<svg version="1.2" baseProfile="tiny-ps" xmlns="http://www.w3.org/2000/svg" width="46" height="46"><style></style><path id="Arrow - Left Square" fill-rule="evenodd" d="M45.5 31.45c0 8.67-5.38 14.05-14.07 14.05H14.55C5.88 45.5.5 40.12.51 31.44a1.72 1.72 0 113.44 0c0 6.83 3.76 10.61 10.61 10.61h16.87c6.85 0 10.63-3.78 10.63-10.61V14.57c0-6.85-3.78-10.63-10.64-10.63H14.55C7.7 3.94 3.94 7.7 3.94 14.57v5.72c0 .95-.77 1.72-1.72 1.72v.04H2.2c-.94 0-1.7-.76-1.7-1.7v-5.78C.5 5.88 5.92.5 14.56.5h16.87C40.12.5 45.5 5.88 45.5 14.58v16.87zM33.88 23c0 .03-.01.05-.01.08-.01.19-.04.38-.12.56-.08.19-.19.35-.32.5-.02.01-.02.03-.04.05-.16.16-.34.28-.55.37-.21.08-.42.13-.65.13H13.81c-.93 0-1.69-.76-1.69-1.69 0-.93.76-1.69 1.69-1.69h14.3l-5.58-5.55c-.66-.66-.66-1.72 0-2.38a1.69 1.69 0 012.39-.01l8.46 8.44h.01c.15.15.28.34.36.54.09.21.13.43.13.65zm-5.58 5.56c0 .43-.16.86-.49 1.19l-2.89 2.88c-.33.33-.76.49-1.19.49-.44 0-.87-.16-1.2-.5-.66-.66-.66-1.72 0-2.38l2.89-2.88a1.7 1.7 0 012.39.01c.33.32.49.76.49 1.19z" fill="#0f345c"/></svg>