<svg version="1.2" baseProfile="tiny-ps" xmlns="http://www.w3.org/2000/svg" width="320" height="500"><style>.shp0{fill:#653b03}</style><g id="Group 137" opacity=".129"><g id="Group 136"><path id="Path 253" class="shp0" d="M203.1 30.11c-4.99-2.76-11.07-3.53-16.64-4.34-5.6-.81-11.2-1.57-16.8-2.36-4.25-.6-5.59 5.29-1.45 6.52 5.44 1.6 10.92 2.77 16.46 3.89 5.53 1.12 11.48 2.54 17.14 2.1 3.03-.24 3.98-4.32 1.29-5.81z"/><path id="Path 254" fill-rule="evenodd" class="shp0" d="M348.57 135.6c-5.14.87-10.36 1.16-15.62 1.13-1.41 3.12-1.89 6.7-2.62 10-.96 4.39-2.47 8.67-3.72 12.98-1.33 4.57-2.56 9.12-3.57 13.77-.45 2.06-.82 4.54-1.48 6.88 1.35.03 2.7.17 4.05.59.61.19 1.04.5 1.39.85 1.28.42 2.35 1.46 2.49 3.18.43 5.27-1.42 10.17-3.08 15.08-1.98 5.87-3.25 11.94-4.98 17.88-1.74 5.98-4.09 11.78-6.31 17.59-4.6 12.07-9.54 24-14.27 36.02-9.61 24.41-19.14 48.82-28.05 73.51-4.17 11.55-8.26 23.11-12.19 34.75-1.89 5.58-3.77 11.21-6.17 16.6-1.54 3.45-3.05 7.81-6.62 9.66-2.46 1.27-5.7 1.44-8.72 1.51.13.52.16 1.1.05 1.73-1.2 7.1-4.56 13.54-7.23 20.16-3.03 7.49-5.86 15.07-8.71 22.63-2.71 7.17-5.22 14.4-7.71 21.64-1.91 5.54-4.02 11.14-7.91 15.63-7.34 8.47-20.27 9.82-30.79 9.88-12.8.08-25.69-2.34-38.28-4.36-28.03-4.5-55.19-11.51-81.36-22.55-12.8-5.4-25.82-10.64-37.99-17.37-9.69-5.36-16.75-12.68-18.21-24-1.62-12.59.8-25.19 2.45-37.65 1.77-13.32 2.57-26.74 3.74-40.13-2.01-2.45-3.59-5.23-4.41-8.45-1.25-4.88-.68-10.04-.45-15.01.3-6.25.8-12.48 1.36-18.7 1.17-12.97 2.57-25.91 3.39-38.92 1.61-25.8 3-51.62 5.79-77.33 1.39-12.78 3.16-25.53 4.9-38.27 1.59-11.65 4.75-23.97 4.04-35.75-.11-1.98 2.86-2.1 3.05-.16.03.21.02.42.04.63.65.9 1.38 1.7 2.13 2.5.01-8.77.9-17.51 1.97-26.2.6-4.84 1.37-9.65 1.98-14.48.51-4.05.27-9.5 2.31-13.11.2-.36.47-.59.76-.75-2.49-1.29-4.95-2.64-7.29-4.15-4.38-2.83-8.56-6.58-10.03-11.77-2.18-7.7 3.46-11.51 9.14-15.16 4.91-3.15 4.31-9.89 8.56-13.87 4.48-4.19 10.89-5.18 16.78-4.74C52.41 11.93 55.1 3.92 62.1 1.45c4.24-1.51 8.94-.18 13.25.28 7.53.81 15.23.72 22.79.46 12.37-.43 24.54-.99 36.89.19 12.67 1.21 24.3 4.76 36.31 8.74 24.56 8.13 50.12 13.36 75.23 19.51 12.49 3.07 25.01 6.1 37.44 9.44 11.35 3.06 23.05 5.88 34.13 9.8 9.02 3.18 14.4 9.54 16.26 18.93.93 4.68 1.03 9.57.72 14.43 4.59-.88 9.52 1.74 13.36 4.09 5.26 3.2 10.5 7.3 10.69 14.03.13 4.13-2.18 7.35-3.33 11.15-1.49 4.92 1.6 6.78 3.16 10.93 2.68 7.18-4.48 11.16-10.43 12.17zM320.6 99.19c-2.02-.01-4.04-.11-6.06-.24 2.87 3.91 4.83 8.55 5.85 13.21l.03.16c4.82.27 9.61.27 14.45-.09 5.5-.41 11.15-1.31 16.65-.67.11.01.18.07.28.09.28-1.09.59-2.17.85-3.25.81-3.25 1.47-6.69-.94-9.46-1.21-1.39-3.07-2.47-4.6-3.46-2.06-1.35-4.25-2.57-6.52-3.52-.98-.41-2.01-.62-2.99-1-.67-.26-1.72.13-.67-.4-.91.46-1.81.54-2.63.37-.13.93-.27 1.85-.42 2.76-.01.08-.06.12-.08.2 0 .11 0 .22-.01.33-.82 5.28-9.26 5-13.19 4.97zM37.07 83.57c-.37 4.64-.8 9.29-1.27 13.93-.96 9.3-2 18.55-1.79 27.91.04 1.46-.67 2.49-1.65 3.06 1.49 1.12 3.02 2.22 4.56 3.28 4.41 3.05 8.94 5.94 13.6 8.61 1.87 1.08 3.79 2.08 5.7 3.09 1.42-5.2 2.77-10.68 6.03-15.05 1.47-1.95 3.43-3.65 5.9-4.1 3.91-.71 7.51 2.03 11.01 3.3.63.22.41 1.25-.23 1.02-3.77-1.35-7.94-4.44-11.99-2.24-2.56 1.39-4.09 4.16-5.21 6.74-1.57 3.62-2.57 7.52-3.53 11.39 5.52 2.83 11.17 5.37 16.91 7.71.52-3.62 1.04-7.23 1.61-10.83.21-1.29 2.1-.82 1.96.43-.43 3.77-.85 7.54-1.29 11.3 1.45.57 2.89 1.17 4.35 1.72 40.32 15.23 83.98 22.74 126.67 27.41 21.08 2.31 42.31 4.1 63.53 4.02 2.3-1.78 4.63-3.55 7.03-5.22 8.65-6.02 18.38-10.55 26.25-17.66 1.18-1.07 3.03.6 1.84 1.71-7.68 7.16-17.11 11.86-25.66 17.84-1.52 1.06-2.99 2.2-4.46 3.32 4.91-.02 9.94-.09 14.91-.41 3.96-2.68 7.71-5.65 11.05-9.13 1.02-1.07 2.71.49 1.69 1.58-2.47 2.64-5.18 4.99-8.03 7.17 2.39-.25 4.75-.58 7.06-1.04 3.17-.62 6.41-1.82 9.68-2.77.37-1.44 1.01-2.83 1.48-4.27.77-2.37 1.37-4.81 2.01-7.22 1.27-4.8 2.93-9.47 4.53-14.17 1.46-4.25 3-8.41 4.12-12.77.59-2.27 1.24-4.51 2.15-6.64-7.51-.36-15.03-1.33-22.4-2.41-.3.3-.59.6-.93.85-.98.73-2.19-.31-2.15-1.31-.93-.13-1.87-.27-2.79-.41l-3.88-.57c-.62.79-1.3 1.52-2.17 2.05-1.15.7-2.66-.58-1.97-1.82.15-.26.3-.51.45-.77l-6.74-.99c-1 1.16-2.21 2.04-3.7 2.15-.93.07-1.41-.92-1.07-1.68.16-.38.38-.73.61-1.07-5.86-.85-11.73-1.71-17.6-2.57v.01c-.52.4-1.17.19-1.59-.24-6.58-.96-13.15-1.94-19.71-2.95-39.01-5.99-78.03-12.42-116.31-22.15-18.57-4.72-36.99-10.04-54.92-16.82-8.7-3.3-17.23-6.95-25.53-11.14-2.73-1.38-5.52-2.71-8.29-4.09 1.48 3.77.48 9.01.17 12.91zm280.43 28.57c-.88-4.07-2.43-8.13-4.78-11.62-.69-.04-1.34-.49-1.43-1.47-.01-.11-.01-.23-.02-.34-3.15-.28-6.29-.64-9.42-1.03-.92-.12-1.84-.26-2.75-.38a70.29 70.29 0 011.24 13.43c2.01.16 4.01.33 6.02.49a60.05 60.05 0 00-.45-3.54c-.24-1.57 2.2-1.66 2.46-.12.21 1.28.38 2.57.52 3.87 2.87.23 5.74.5 8.61.71zm-29.1 12.37c1.9.31 3.79.61 5.69.93.32.05.65.1.97.16.08-.23.19-.45.26-.68.87-2.84 1.38-5.79 1.66-8.76-2.29-.3-4.58-.61-6.88-.92l-.03.57c-.25 2.96-.76 5.89-1.67 8.7zm-10.57-1.68c2.36.38 4.72.73 7.08 1.11 1.1-2.9 1.66-6.05 1.94-9.13-2.27-.31-4.54-.6-6.81-.92-.51 3.03-1.17 6.05-2.21 8.94zm9.27-13.2c.01-4.76-.59-9.64-2.3-13.97-.08-.18-.09-.34-.09-.5-1.12-.18-2.24-.34-3.35-.52.25 2.44.13 4.96-.01 7.38-.13 2.37-.37 4.73-.65 7.09 2.13.18 4.26.35 6.4.52zm3.18.27c2.34.19 4.68.39 7.02.58.09-4.54-.24-9.13-1.06-13.57-2.81-.39-5.6-.85-8.41-1.28 1.71 4.44 2.4 9.4 2.45 14.27zm18.95 7.89c0 1.37-.02 2.74-.11 4.1-.11 1.84-.31 3.88-.74 5.85 2.62.4 5.25.81 7.88 1.14 1.23-3.28 1.82-6.63 1.86-10.02-.54-.06-1.08-.07-1.62-.14-2.43-.29-4.85-.62-7.27-.93zm4.9-59.31c1.93 6.23 2.26 12.73 1.92 19.23-.25 4.78-.6 9.57-.96 14.35.54.01 1.09.05 1.64.06 2.84.01 5.78 0 8.59-.47.96-.16 1.85-.47 2.75-.75 1.96-8.13 3.01-17.3-1-24.98-2.54-4.87-7.07-7.57-12.1-9.49-.07.76-.37 1.5-.84 2.05zm-2.9.85c-8.29-.53-16.57.19-24.84-.36-1.19-.08-2.38-.19-3.58-.29.01.05.04.08.04.13.16 5.59-.76 11.13-2.35 16.47-1.3 4.37-2.85 9.06-5.24 13.05 1.89.24 3.78.47 5.67.7.42-.75.84-1.49 1.25-2.24a73.59 73.59 0 003.79-8.04c2.07-5.21 3.82-11.12 3.01-16.77-.24-1.65 2.27-1.71 2.55-.13 1.04 5.92-.62 12.17-2.62 17.71-1.08 3-2.34 5.94-3.81 8.77-.18.35-.37.74-.58 1.14 1.36.16 2.72.35 4.08.5-.64-.34-1.06-1.1-.63-1.91 2.06-3.88 3.65-7.71 4.44-12.05.77-4.28.97-8.63 1.02-12.96.02-2.01 3.11-2.18 3.12-.16.02 4.7-.14 9.42-.93 14.05-.75 4.47-2.05 9.46-5.3 12.79-.19.2-.4.3-.62.36 1.65.18 3.3.38 4.95.55.34-1.1.71-2.19.99-3.29.52-1.99.91-4 1.25-6.02.69-4.18 1.1-8.41 1.65-12.61.29-2.24 3.7-1.45 3.42.76-.56 4.36-.98 8.74-1.71 13.08-.37 2.17-.81 4.34-1.41 6.47-.18.66-.39 1.32-.61 1.97.77.07 1.53.17 2.29.24 3.58.3 7.16.53 10.75.69.28-4.48.98-8.98 1.3-13.41.46-6.45.41-12.94-1.34-19.19zm-34.37 54.12c-2.01-.28-4.03-.57-6.04-.85-.83 2.92-1.83 5.82-3.04 8.61l-.02.03c2.21.35 4.41.69 6.61 1.04.14-.32.29-.64.4-.93.96-2.54 1.58-5.22 2.09-7.9zM67.91 5.59c6.78 3.82 15.39 5.48 22.72 7.6 8.97 2.59 18.02 4.88 27.06 7.23 32.93 8.58 65.68 17.08 99.43 21.89 16.83 2.41 33.58 5.38 50.45 7.56 8.2 1.06 16.51 2.13 24.79 1.98 2.46-.05 4.94-.17 7.42-.2-10.81-3.75-21.6-7.49-32.61-10.62-11.48-3.28-23.18-5.86-34.78-8.61-22.77-5.4-45.48-11.01-68.07-17.1-11.16-3.01-22.61-5.18-34.13-6.15-11.07-.93-22.12-.33-33.2-.37-6.18-.03-12.34-.32-18.47-1.18-3.54-.5-7.07-1.51-10.61-2.03zm-32.94 27.3c-.21 2.13-.32 4.12-1.15 6.03 17.71 12.2 37.45 21.35 56.88 30.39 11.1 5.16 22.51 9.86 34.22 13.46 11.37 3.5 23.06 6.07 34.32 9.85 1.04.35.74 1.88-.37 1.68-12.12-2.17-24.09-6.17-35.82-9.86-11.26-3.54-22.59-6.8-33.71-10.78-.04.05-.05.11-.1.15-1.91 1.66-3.48 3.66-5.01 5.66-1.21 1.59-2.41 3.25-4 4.44 4 1.16 8.02 2.28 12.02 3.38 16.45 4.54 32.95 8.7 49.63 12.32 23.83 5.18 47.88 9.33 71.97 13.16.03-.17.09-.33.2-.48 1.97-2.61 4.36-4.86 6.5-7.33-3.01-.66-5.99-1.43-8.95-2.36-2.14 2.45-4.22 4.94-6.57 7.2-.99.95-2.4-.13-1.89-1.34 1.12-2.68 2.83-4.97 4.68-7.17-.11-.04-.22-.07-.32-.11-.29-.12-.1-.54.17-.49.2.04.39.06.58.09.34-.39.68-.79 1.02-1.19 2.37-2.71 4.79-5.38 7.08-8.17 1.53-1.87 4.3.7 2.76 2.57-2.11 2.56-4.34 5.02-6.54 7.51 3.21.5 6.43.95 9.67 1.34 2.03-2.66 3.86-5.47 5.48-8.4 1.11-2.02 4.26-.35 3.16 1.68-1.36 2.49-2.91 4.87-4.55 7.19 1.78.19 3.56.37 5.34.55 2.34-3.69 4.4-7.6 5.89-11.71.32-.9 1.08-1.59 2.12-1.35.85.2 1.68 1.21 1.35 2.12a65.62 65.62 0 01-5.43 11.34l4.85.48c1.07-2.81 2.01-5.67 2.94-8.54.66-2.02 3.91-1.32 3.26.73-.87 2.73-1.75 5.47-2.73 8.17 2.24.24 4.49.5 6.73.75.78-1.54 1.54-3.08 2.3-4.63.88-1.78 3.58-.33 2.72 1.44-.58 1.19-1.15 2.38-1.73 3.56l5.13.57c.96-3.23 1.8-6.49 2.98-9.64.64-1.71 3.64-.59 3.02 1.11-1.06 2.91-1.84 5.91-2.68 8.9 2.08.23 4.15.47 6.22.69 1.09-4.35 1.86-8.79 2.32-13.25.17-1.73 3.18-1.46 3.03.26-.38 4.48-1.02 8.95-2.02 13.35 1.9.19 3.78.42 5.67.6.36-2.55.66-5.11.83-7.68.14-2.29.27-4.66 0-6.96-.7-.11-1.4-.22-2.1-.35-3.28-.59-6.54-1.27-9.78-2.02-.21.26-.4.53-.63.77-.91.92-2.89.14-2.43-1.28.03-.07.06-.14.08-.21-.66-.17-1.32-.3-1.98-.48-1.66-.45-3.32-.94-4.98-1.4-1.26 1.21-2.84 2.06-4.49 1.27-.66-.31-.84-1.32-.31-1.83.18-.18.4-.31.6-.46-1.7-.35-3.4-.63-5.14-.7-1.17-.05-1.24-1.64-.09-1.81 2.71-.4 5.47-.39 8.23-.2.3-.4.58-.82.83-1.26 1.52-2.58 2.49-5.49 3.33-8.35 1.6-5.47 2.5-11.07 3.75-16.62.44-1.93 3.42-1.26 3.01.67-1.32 6.09-2.24 12.24-4.08 18.21-.81 2.63-1.77 5.31-3.16 7.72 2.15.27 4.29.6 6.42.97.36-.72.73-1.44 1.06-2.17.99-2.23 1.82-4.51 2.51-6.85 1.4-4.71 2.22-9.57 2.65-14.47.15-1.81 3.31-1.53 3.17.27-.38 5.13-1.15 10.24-2.58 15.2a64.435 64.435 0 01-3.19 8.64c1.07.19 2.13.36 3.18.52 1.45-4.53 3.79-8.78 5.26-13.32 1.64-5.08 2.69-10.34 2.67-15.69 0-.17.04-.32.09-.46-7.27-.67-14.52-1.65-21.72-2.79-34.19-5.41-67.81-13.4-101.42-21.58-16.56-4.03-33.08-8.27-49.58-12.53-8.32-2.16-16.62-4.47-24.81-7.1-6.33-2.03-13.09-3.38-18.44-7.52-.55-.43-.59-1.06-.36-1.61-6.22.69-9.8 7.77-11.68 14.51.95.75.85 2.44-.64 2.59-.14.61-.27 1.23-.38 1.83 1.41 3.53 1.19 7.14 4.56 9.92 3.6 2.97 7.96 5.26 12.3 7.16.23-3.04 1.11-6.09 2.14-8.86 1.61-4.33 3.93-8.95 7.67-11.82.95-.73 1.89.82.99 1.55-3.29 2.66-5.29 7.11-6.61 11.02-.95 2.79-1.84 6.02-1.82 9.12.11.05.22.1.32.14.81.33 1.65.61 2.47.92 1.89-1.18 3.49-2.93 4.76-4.67 2.1-2.87 3.7-6.29 4.54-9.76.4-1.65 2.84-1.09 2.56.57-.69 4.14-2.73 8.03-5.28 11.33-1.03 1.33-2.22 2.59-3.56 3.65 7.9 2.81 15.99 5.08 23.85 8.01 12.06 4.49 24.31 8.76 36.63 12.5 24.19 7.34 49.78 9.23 74.03 16.33 1.15.34.78 2-.4 1.82-15.11-2.3-30.14-6.12-45.03-9.53-13.07-3-26.09-6.05-39.24-8.7-12.57-2.55-24.7-6.4-37.08-9.73-10.26-2.75-21.24-6.17-30.08-12.23-3.54-2.43-7.58-5.67-8.99-9.91-1.07-3.25-.47-6.94.35-10.17.03-.12.21-.17.28-.05l.01.03.06-.4c-6.79.47-14.96 2.38-15.77 10.37zm226.17 78.33c-.12.37-.22.73-.35 1.1-.91 2.5-1.91 5.02-3.38 7.26l-.02.02c2.21.35 4.43.69 6.64 1.05.24-.45.47-.91.69-1.37 1.06-2.33 1.93-4.73 2.69-7.17-2.09-.29-4.18-.6-6.27-.89zm-14.5 6.68c2.32.37 4.64.73 6.96 1.1 1.93-2.4 3.18-5.4 4.19-8.25-1.92-.27-3.84-.55-5.76-.82a56.41 56.41 0 01-1.8 3.09c-1.04 1.63-2.21 3.38-3.59 4.88zm2-8.45c-2.02-.29-4.04-.57-6.05-.86-.35.85-.7 1.71-1.08 2.55-.88 1.91-1.91 3.75-3.09 5.49 1.38.21 2.76.43 4.14.64 1.96-1.88 3.71-3.87 5.2-6.25.32-.51.58-1.05.88-1.57zm-20.89 5.53c2.25.35 4.5.71 6.76 1.06 1.75-2.12 3.09-4.56 4.22-7.09.13-.29.24-.58.37-.87-1.8-.26-3.6-.52-5.4-.79-1.73 2.62-3.67 5.38-5.95 7.69zm1.99-8.3c-1.73-.27-3.46-.57-5.19-.9-.12.16-.22.32-.34.47-2.08 2.64-4.43 5.34-7.39 7 2.34.37 4.68.75 7.02 1.12 1.87-2.62 3.99-5.09 5.9-7.69zM45.43 71.26c10.3 4.94 21.17 8.62 32.15 11.87.6-1.11 1.37-2.05 2.12-3.06.72-.97 1.48-1.93 2.22-2.89 1.27-1.65 2.6-3.25 4.1-4.71-19.66-7.14-39.65-14.99-54.07-30.6-1.5 1.71-3.37 3.12-5.15 4.49-2.29 1.77-4.56 4.32-3.97 7.45.52 2.76 2.91 4.93 4.95 6.66 5.16 4.39 11.58 7.88 17.65 10.79zm253.05 54.9c2.39.4 4.77.8 7.17 1.19.58-2.17.79-4.49.91-6.54.07-1.11.1-2.23.1-3.35-2.18-.28-4.37-.59-6.55-.88-.26 3.24-.71 6.47-1.63 9.58zm13.08 64.16c-4.83 1.65-9.53 2.31-14.6 2.75-4.36.38-8.72.63-13.09.79a425.05 425.05 0 01-7.96 4.53c-5.16 2.9-10.32 5.82-15.21 9.17-2.47 1.7-4.86 3.51-7.13 5.47-2.14 1.85-4.04 3.9-6.33 5.54-.75.53-1.64-.41-1.26-1.15 2.49-4.92 7.84-8.57 12.27-11.63 4.87-3.37 10.03-6.28 15.21-9.14 1.58-.88 3.17-1.75 4.75-2.63-3.72.08-7.44.11-11.17.06-3.88 3.16-7.82 6.34-12.25 8.68-1.05.55-2.46-.83-1.43-1.71 2.85-2.43 5.8-4.74 8.75-7.05-.32 0-.63 0-.95-.01-44.21-1.21-89.19-6.83-132.01-18-17.8-4.64-35.57-10.06-52.48-17.4-.28 2.13-.53 4.26-.85 6.38-1.73 11.47-4.54 22.57-7.97 33.63-1.24 4.02-2.59 8.09-4.63 11.78-1.63 2.95-3.88 5.91-7.25 6.9-.41.12-.87.04-1.19-.27-5.38-5.15-6.08-13.57-6.35-20.59-.32-8.49.08-16.92 1.35-25.32 1.19-7.92 3.15-15.62 5.26-23.32-4.57-2.64-9.04-5.46-13.37-8.47-5.88-4.1-12.21-8.38-16.58-14.17.22 10.71-2.28 21.69-3.62 32.2-1.78 14.08-3.22 28.19-4.17 42.35-1.84 27.47-2.11 55.02-3.97 82.49-.82 12.29-2.13 24.54-2.92 36.84-.41 6.36-.85 12.81-.68 19.2.11 3.59 1.06 6.83 3.34 9.67 3.34 4.13 8.1 6.89 12.91 9.29.13-2.73.21-5.45.13-8.18-.04-1.4 2.12-1.51 2.17-.11.1 3.12.01 6.23-.15 9.34 1.23.59 2.46 1.17 3.64 1.75 9.05 4.4 17.86 8.99 27.35 12.41 21.95 7.88 44.91 12.46 67.43 18.36 18.35 4.81 36.7 8.43 55.5 10.1 7.69-5.06 15.21-10.33 22.46-16 7.75-6.04 15.3-12.32 23.04-18.37 1.5-1.18 3.06 1.32 1.58 2.49-7.7 6.1-15.22 12.44-22.93 18.53-6.14 4.85-12.41 9.63-19.07 13.76 2.17.15 4.34.3 6.52.39 1.08.05 2.17.06 3.26.09 9.61-7.39 19.09-14.95 27.67-23.55 1.47-1.48 3.84.71 2.37 2.2-7.59 7.78-15.92 14.74-24.42 21.49 2.47.02 4.93-.05 7.4-.09 2.99-2.34 5.96-4.72 8.83-7.22 1.52-1.32 3.86.81 2.32 2.17-1.92 1.7-3.88 3.36-5.87 4.98 4.45-.13 8.89-.35 13.32-.63 3.44-.22 6.86-.49 10.29-.82 1.33-.13 4.1.1 5.29-.68.76-.49 1.08-1.77 1.42-2.56 1.11-2.49 2.06-5.04 3.02-7.6 4.11-10.88 7.4-22.04 11.49-32.93 4.27-11.34 8.43-22.72 12.99-33.94 9.39-23.1 19.61-45.82 28.39-69.17 4.4-11.73 9.2-23.54 12.65-35.59 1.73-6.06 2.82-12.28 4.7-18.29 1.28-4.13 3.2-8.26 3.31-12.62-3.57.42-7.3 2.33-10.52 3.43zm-80.19 217.53c-4.99.21-9.98.35-14.97.36-3.07.01-6.14-.04-9.21-.11-4 3.08-8.06 6.11-12.11 9.13-8.96 6.68-17.77 13.56-26.21 20.9-1.55 1.36-3.91-.69-2.4-2.22 7.78-7.81 16.75-14.31 25.63-20.81 3.26-2.38 6.52-4.77 9.76-7.17-2.2-.08-4.41-.14-6.61-.25-8.75 6.93-17.39 14.01-26.16 20.94-1.51 1.19-3.41-1.23-2.12-2.55 6.8-6.93 14.68-12.85 22.5-18.7-2.91-.19-5.81-.4-8.71-.63-11.81-.97-23.57-2.51-35.2-4.81-11.62-2.29-23.07-5.34-34.63-7.89-23.52-5.18-47.24-10.15-69.26-20.2-4.7-2.14-9.48-4.38-14.17-6.75-.21 2.16-.43 4.31-.66 6.47-1.39 12.96-3.12 27.39 1.31 39.96.75 2.14 2.37 6.62 4.59 7.23.22.06.31.09.7-.2.5-.37.86-.96 1.16-1.5 1.31-2.36 1.94-5.12 2.52-7.74.43-1.97 3.41-1.29 3.05.68-.68 3.7-2.07 12.23-7.35 12.17-3.61-.04-5.68-4.36-6.85-7.18-2.27-5.48-2.95-11.54-3.14-17.42-.36-11.26 1.41-22.4 2.5-33.58-2.62-1.36-5.22-2.75-7.73-4.23-2.08-1.23-4.1-2.61-5.99-4.15-.78 12.5-1.28 25.02-2.26 37.49-.53 6.7-1.09 13.38-1.21 20.09-.11 6.32-.35 13.42 1.86 19.44 3.68 10 14.72 14.6 23.51 19.06 11.84 6 23.9 11.59 36.19 16.59 24.44 9.95 50.57 15.34 76.59 19.17 11.78 1.74 23.76 3.79 35.69 2.81 5.32-.43 11.24-1.28 15.96-3.91 4.3-2.4 6.79-6.64 8.68-11.03 4.82-11.22 8.21-23.23 12.42-34.69 2.18-5.96 4.27-11.96 6.61-17.86 2.21-5.56 4.75-10.96 5.72-16.91zM74.35 157.54c-1.75-.77-3.48-1.54-5.21-2.36-4.09-1.96-8.1-4.06-12.05-6.28-.06.2-.1.41-.16.6-2.26 8.46-4.15 17.01-5.18 25.71-.9 7.56-1.1 15.21-.69 22.8.3 5.61.97 12.32 4.9 16.7 3.49-1.39 5.51-5.39 6.93-8.62 1.6-3.64 2.68-7.46 3.77-11.28 1.45-5.12 2.92-10.21 4.02-15.42 1.51-7.23 2.62-14.53 3.67-21.85zm278.81-33.17c-.5-2.07-1.58-3.72-2.01-5.72-.08.02-.15.07-.23.07-9.92.83-19.8 1.19-29.69.4.04 3.56-.63 7.09-2.46 10.05 7.38.82 14.78 1.22 22.21.72 3.49-.23 13.53.02 12.18-5.52z"/><path id="Path 255" fill-rule="evenodd" class="shp0" d="M192.16 309.25c-3.75 9.42-8.72 18.51-15.77 25.88-11.89 12.41-29.08 22.89-46.91 20.69-17.92-2.22-32.55-17.09-39.7-32.9-7.02-15.51-7.55-33.73-1.55-49.64 6.15-16.31 18.76-30.58 33.38-39.86 3.36-2.13 6.91-3.97 10.57-5.56 12.79-6.94 29.11-10.09 42.66-6.18 11 3.17 18.88 11.31 22.78 21.94 7.6 20.72 2.44 45.79-5.46 65.63zm-2.65-68.15c-12.46-23.59-45.18-16.74-64.54-6.74-.02.01-.04-.01-.07 0-3.29 2.07-6.46 4.33-9.43 6.87-14.03 12.03-24.84 28.95-26.27 47.69-1.23 16.05 4 32.49 14.93 44.41 11.22 12.22 26.82 18.44 42.88 12.38 21.9-8.26 35.14-27.27 41.97-48.71 5.44-17.07 9.33-39.23.53-55.9z"/><path id="Path 256" fill-rule="evenodd" class="shp0" d="M148.25 279.52c-5.3 7.21-11.17 13.97-15.44 21.88-2.05 3.82-3.83 7.81-4.88 12.02-1.13 4.49-.76 8.93-1.37 13.46-.46 3.4-5.4 3.22-6.39.3-2.15-6.37.08-14 2.94-20.32.25-1.5.5-2.99.66-4.46.93-8.41 2.41-15.81 7.1-23 2.09-3.2 4.35-6.32 6.96-9.13 2.64-2.84 5.43-5.47 7.24-8.97 1.52-2.94 2.47-6.22 3.37-9.39.95-3.4 1.2-7.12 3.45-9.93 1.45-1.81 4.9-1.08 5.43 1.21.18.79.24 1.63.24 2.5 3.87 11.25-2.69 24.82-9.31 33.83zm5.92-22.38c-.87 1.67-1.81 3.21-2.73 4.48-3.93 5.53-9.19 9.68-13.59 14.76-5.17 5.98-7.71 12.62-9.01 20.09 3.14-4.84 6.68-9.45 10.25-13.93 5.58-7.02 12.56-15.95 15.08-25.4z"/><path id="Path 257" class="shp0" d="M303.44 145.78c-5.53 4.68-11.93 8.24-18.41 11.43-6.43 3.18-13.15 5.82-19.37 9.41-1.03.59-.24 2.36.89 1.9 6.85-2.75 13.61-5.82 20.24-9.06 6.65-3.26 13.09-6.93 18.78-11.7 1.43-1.2-.72-3.18-2.13-1.98z"/><path id="Path 258" class="shp0" d="M303.88 155.72c-6.55 4.27-13.19 8.38-19.87 12.43-6.68 4.04-13.48 7.91-19.96 12.27-1.42.96-.06 3.05 1.43 2.24 6.84-3.76 13.42-7.99 20.02-12.16 6.61-4.18 13.17-8.42 19.63-12.81 1.24-.84.01-2.8-1.25-1.97z"/><path id="Path 259" class="shp0" d="M293.94 195.46c-8.54 6.14-17.26 12.01-25.91 18-4.16 2.89-8.25 5.88-12.43 8.73-3.83 2.6-7.96 5.11-10.88 8.76-1.22 1.53.77 3.32 2.21 2.04 3.55-3.15 7.37-5.86 11.21-8.64 4.05-2.92 8.02-5.94 12.05-8.87 8.32-6.04 16.69-12 25-18.05 1.21-.88-.02-2.86-1.25-1.97z"/><path id="Path 260" class="shp0" d="M300.75 198.35c-2.59 1.4-4.72 3.42-6.77 5.5a95.086 95.086 0 01-6.66 6.19c-5.26 4.42-10.71 8.62-16.04 12.95-4.82 3.93-9.91 7.51-14.81 11.32-4.75 3.7-9.77 7.67-13.01 12.81-.8 1.27 1.01 2.21 1.97 1.4 4.69-4 9.14-8.2 14-11.99 4.76-3.72 9.65-7.25 14.28-11.12 5.12-4.27 10.38-8.37 15.45-12.68 2.35-2 4.6-4.06 6.74-6.28 1.99-2.08 3.97-4.08 6.51-5.49 1.75-.96.08-3.56-1.66-2.61z"/><path id="Path 261" class="shp0" d="M295.91 212.01c-7.79 8.08-16.07 15.66-24.52 23.05-8.42 7.38-17.19 14.4-25.07 22.36-.91.92.42 2.58 1.47 1.76 8.82-6.9 17.2-14.37 25.59-21.79 8.49-7.52 16.81-15.22 24.63-23.44 1.28-1.33-.82-3.27-2.1-1.94z"/><path id="Path 262" class="shp0" d="M282.39 234.58c-10.62 14.38-28.16 21.81-38.38 36.49-.56.81.75 1.71 1.39.99 5.96-6.73 12.91-12.33 19.92-17.91 6.77-5.41 13.53-11.04 18.63-18.12.78-1.1-.75-2.55-1.56-1.45z"/><path id="Path 263" class="shp0" d="M274.88 251.42c-6.82 8.28-15.31 15.06-21.82 23.61-.74.97.53 2.21 1.42 1.31 7.52-7.63 15.82-14.54 22.71-22.78 1.3-1.56-1.02-3.71-2.31-2.14z"/><path id="Path 264" class="shp0" d="M262.1 297.24c-15.36 16.9-36.09 27.68-51.65 44.36-1.06 1.14.67 2.72 1.77 1.64 16.23-15.97 36.72-27.03 51.91-44.12 1.19-1.33-.83-3.2-2.03-1.88z"/><path id="Path 265" class="shp0" d="M250.8 316.44c-9.84 7.56-19.63 15.2-29.59 22.61-3.97 2.95-8.15 5.56-12.19 8.41-3.34 2.35-7.72 5.4-8.59 9.64-.2 1 1 1.56 1.69.89 3.28-3.15 6.42-6.1 10.19-8.69 4-2.75 7.98-5.45 11.85-8.38 9.5-7.21 18.85-14.62 28.24-21.96 1.5-1.17-.07-3.69-1.6-2.52z"/><path id="Path 266" class="shp0" d="M249.56 329.4a489.05 489.05 0 00-27.78 20.83c-8.92 7.2-17.68 14.62-25.64 22.88-1.23 1.28.7 2.95 1.98 1.84 8.64-7.5 17.15-15.15 26-22.39 8.78-7.18 17.81-14.06 27.07-20.61 1.58-1.12-.02-3.67-1.63-2.55z"/><path id="Path 267" class="shp0" d="M245.99 340.04c-9.57 10.12-20.71 18.55-31.99 26.66-5.58 4.02-11.2 7.96-16.72 12.05-5.46 4.03-11.26 8.12-15.85 13.14-1.05 1.15.45 3.09 1.79 2.14 5.65-3.98 10.9-8.6 16.43-12.76 5.58-4.2 11.26-8.27 16.89-12.41 11.13-8.2 22.06-16.76 31.43-26.98 1.18-1.29-.78-3.1-1.98-1.84z"/><path id="Path 268" class="shp0" d="M210.2 413.08c-8.24 7.77-17.41 14.43-26.55 21.08-4.19 3.05-8.32 6.12-12.28 9.47-3.81 3.23-7.71 6.18-11.98 8.78-1.35.82-.31 2.87 1.16 2.46 1.37-.39 2.66-.97 3.9-1.63-1.11 1.06-2.21 2.13-3.26 3.25-.91.96.42 2.67 1.51 1.82 5.97-4.69 11.77-9.61 17.63-14.44 5.81-4.8 11.6-9.64 17.07-14.84.4-.38.52-.81.47-1.22 5.08-3.96 10.05-8.06 14.71-12.53 1.51-1.45-.87-3.63-2.38-2.2z"/><path id="Path 269" class="shp0" d="M187.37 448.22c-9.45 7.92-17.99 16.86-27.73 24.43-1.68 1.31 0 4.1 1.8 2.84 10.38-7.22 18.88-16.74 28.5-24.88 1.72-1.46-.87-3.82-2.57-2.39z"/><path id="Path 270" class="shp0" d="M49.03 255.75c-.56-3.32-1.61-6.44-3.26-9.38-.48-.85-2.04-.42-1.87.59.78 4.71 2.16 9.66 1.71 14.46-.23 2.44-1.13 4.6-3.01 6.23-.3.26-.65.53-1.02.66a.99.99 0 01-.49.06c-.12-.04-.34-.22-.55-.46-.22-.26-.44-.65-.61-.99-1.05-1.99-1.5-4.27-2.33-6.35-.67-1.68-3.34-.85-2.68.85 1.25 3.23 2.46 11.35 7.66 9.7 2.74-.87 4.87-3.73 5.81-6.33 1.04-2.84 1.13-6.07.64-9.04z"/><g id="Group 134"><path id="Path 271" class="shp0" d="M39.72 299.27c-.02-1.85-.37-3.73-1.24-5.37-.41-.75-1.47-.98-2.19-.62-.7.34-1.29 1.28-.92 2.08.22.49.38 1.01.49 1.54.02.09.04.2.05.25l-.03-.16c.03.18.06.35.08.52.04.35.1.7.14 1.05.07.72.1 1.46.08 2.19-.01.18-.02.35-.04.52.04-.5-.01.15-.03.25-.04.35-.11.7-.19 1.05-.04.18-.09.36-.15.53-.01.03-.07.2-.1.3-.04.09-.1.23-.11.26-.07.15-.15.3-.23.45l-.1.16c-.1.09-.18.21-.27.3l-.1.1c-.12.06-.25.16-.36.23-.06.02-.12.05-.19.07-.03.01-.22.05-.3.07-.07 0-.2.02-.27.02-.04-.01-.13-.04-.2-.05-.07-.04-.27-.12-.31-.14-.08-.05-.15-.09-.22-.14l-.02-.01h-.01a7.34 7.34 0 01-.94-.91c-.03-.03-.18-.23-.3-.39-.16-.21-.31-.42-.46-.64-.28-.41-.54-.84-.79-1.26-.42-.73-.81-1.48-1.19-2.23-.34-.67-1.32-.8-1.91-.43-.69.44-.76 1.24-.43 1.91.83 1.67 1.71 3.32 2.89 4.77.65.79 1.37 1.57 2.29 2.05.93.5 1.94.56 2.95.35 3.78-.81 4.67-5.42 4.63-8.67z"/><path id="Path 272" class="shp0" d="M35.91 297.15c0 .03 0 .03 0 0z"/></g><path id="Path 273" class="shp0" d="M185.16 265.93c-.24-1.2-2.33-.84-2.15.39 1.06 7 .04 14.36-1.5 21.21-.82 3.65-1.86 7.27-3.22 10.76-1.17 3-2.79 5.84-3.81 8.89-.37 1.07 1.13 1.61 1.81.95 2.39-2.31 3.69-5.81 4.81-8.86 1.37-3.71 2.44-7.53 3.24-11.4 1.48-7.17 2.21-14.7.82-21.94z"/><path id="Path 274" class="shp0" d="M172.9 305.49c1.21-6.48 1.72-13.07 2.72-19.59.26-1.71-2.36-2.32-2.66-.58-1.06 6.16-1.69 12.4-2.89 18.54-.59 3.05-1.32 6.09-2.33 9.03-1.04 3.02-2.81 5.69-3.9 8.66-.52 1.41 1.02 2.71 2.22 1.57 2.27-2.14 3.43-5.44 4.44-8.33 1.06-3.03 1.81-6.15 2.4-9.3z"/><path id="Path 275" class="shp0" d="M168.64 298.15c.4-1.9-2.53-2.56-2.96-.66-1.26 5.61-2.04 11.32-3.42 16.9-.7 2.85-1.52 5.69-2.72 8.37-1.1 2.47-2.85 4.49-4.05 6.89-.63 1.25.73 2.23 1.84 1.7 2.43-1.14 3.86-4.07 4.92-6.4 1.29-2.85 2.21-5.87 2.95-8.9 1.45-5.91 2.17-11.96 3.44-17.9z"/><path id="Path 276" class="shp0" d="M157.09 310.86c-1.05-.23-1.81.44-2.14 1.36-2.31 6.44-3.62 13.2-5.89 19.66-.37 1.03 1.27 1.88 1.91 1.01 4.29-5.83 5.08-13.23 7.47-19.9.33-.91-.5-1.94-1.35-2.13z"/><path id="Path 277" class="shp0" d="M145.47 338.27c-2.02-.45-2.72 2.69-.7 3.14 2.03.45 2.73-2.69.7-3.14z"/><path id="Path 278" class="shp0" d="M310.08 71.94c.01-.89-.88-1.61-1.74-1.57-.94.05-1.55.84-1.57 1.74-.1 4.6.18 10.81-3.83 14-.73.58-1.07 1.54-.53 2.39.46.72 1.65 1.12 2.39.53 5.17-4.18 5.21-10.98 5.28-17.09z"/><path id="Path 279" class="shp0" d="M255.23 65.17c.37-1.94-2.62-2.62-3-.67-.63 3.24-1.34 6.47-2.33 9.62-.99 3.14-2.42 6.1-3.71 9.12-.51 1.22 1.07 2.61 2.03 1.44 2.24-2.74 3.5-6 4.57-9.35 1.06-3.32 1.8-6.74 2.44-10.16z"/><path id="Path 280" class="shp0" d="M248.34 57.57c.43-2.25-3.03-3.03-3.47-.78-1.75 8.81-4.08 17.44-8.56 25.3-.8 1.41 1.29 2.95 2.36 1.67 6-7.23 7.94-17.19 9.67-26.19z"/><path id="Path 281" class="shp0" d="M236.78 59.16c-1.03-.23-1.96.44-2.22 1.41-1.4 5.13-3.92 9.85-5.89 14.76-.36.9-.18 1.93.73 2.41.8.42 2.03.15 2.41-.74 2.21-5.18 4.89-10.16 6.38-15.62.26-.97-.47-2.01-1.41-2.22z"/><path id="Path 282" class="shp0" d="M227.63 65.77c-.14-.44-.51-.91-.93-1.12-.89-.42-2.17-.18-2.6.8-.82 1.84-1.57 3.7-2.28 5.59-.18.48-.29.91-.12 1.43.13.42.48.87.89 1.06.84.4 2.1.19 2.5-.76.79-1.85 1.59-3.69 2.4-5.52.22-.47.3-.98.14-1.48z"/><path id="Path 283" class="shp0" d="M179.15 53.22c.48-2.16-2.88-2.91-3.36-.75-1.27 5.7-2.23 11.66-5.54 16.6-.89 1.33 1.28 2.87 2.3 1.63 2.05-2.51 3.46-5.3 4.42-8.38.93-2.98 1.49-6.06 2.18-9.1z"/><path id="Path 284" class="shp0" d="M171.53 47c-.77-.41-2.08-.17-2.42.74-2.4 6.47-3.96 13.51-7.84 19.32-.92 1.38 1.32 2.95 2.37 1.68 4.65-5.61 6.15-12.64 8.63-19.32.34-.91.19-1.93-.74-2.42z"/><path id="Path 285" class="shp0" d="M164.93 42.94c-.02-2.36-3.7-2.19-3.67.18.09 7.26-4.61 13.16-7.28 19.57-.58 1.39 1.25 3.04 2.34 1.66 2.41-3.08 4.3-6.53 5.88-10.1 1.57-3.58 2.76-7.37 2.73-11.31z"/><path id="Path 286" class="shp0" d="M156.37 45.77c-.97-.46-1.97-.12-2.52.77a74.97 74.97 0 00-2.55 4.44c-.84 1.6-1.49 3.27-2.1 4.96-.27.75.35 1.6 1.01 1.84.74.27 1.59-.03 1.96-.74 1.56-2.96 3.18-5.93 4.97-8.76.52-.82.09-2.1-.77-2.51z"/><g id="Group 135"><path id="Path 287" class="shp0" d="M108.66 30.05c.01-.53-.45-1.01-.94-1.12-.54-.12-.99.16-1.3.59.04-.05.07-.09-.04.04l-.16.19c-.13.15-.26.29-.41.43-.14.14-.26.3-.39.47l-.01.02c-.16.19-.31.39-.46.58a16.9 16.9 0 01-2.07 2.16l-.21.19-.05.03c-.2.16-.41.31-.62.45-.18.11-.36.22-.54.32l-.07.04c.02-.01.02-.02.05-.02-.03 0-.06.03-.09.04l-.05.03h-.02l-.15.06c-.18.07-.36.12-.55.17-.1.01-.19.02-.29.02h-.02l-.13-.02.04.02h-.01l-.07-.03c-.13-.03-.11-.04-.04-.02-.05-.02-.1-.05-.13-.06l-.03-.02c-.07-.06-.14-.13-.21-.19l-.01-.02c-.08-.12-.16-.23-.22-.35l-.07-.13-.01-.01-.15-.42c-.12-.36-.2-.74-.28-1.11-.14-.77-1.08-1.18-1.76-1.05-.68.13-1.42.84-1.28 1.6.26 1.44.68 2.98 1.84 3.98.92.78 2.14 1.13 3.33.95 2.47-.35 4.61-2.03 6.11-3.95.49-.62 1-1.33 1.24-2.09.17-.56.22-1.2.23-1.77z"/><path id="Path 288" class="shp0" d="M100.13 34.72h.01c-.03-.01-.06-.03-.08-.03l.04.02.03.01z"/><path id="Path 289" class="shp0" d="M101.39 34.44c-.16.04-.19.08-.11.05l.07-.03.04-.02z"/></g><path id="Path 290" class="shp0" d="M206.32 96.24c-.71-.6-2.02-.73-2.65.1-1.9 2.51-4.08 4.8-6.49 6.83-.35.29-.52.95-.5 1.38.02.45.25.98.6 1.28.37.32.87.55 1.37.5.53-.04.9-.27 1.29-.6a41.55 41.55 0 006.48-6.84c.59-.78.73-1.95-.1-2.65z"/><path id="Path 291" class="shp0" d="M79.96 71c-.68-.58-1.88-.67-2.49.1-.86 1.07-1.8 2.07-2.69 3.11-.9 1.04-1.81 2.06-2.76 3.05-.48.5-.47 1.3-.04 1.82.42.51 1.23.68 1.8.29 1.22-.85 2.38-1.77 3.48-2.77 1.03-.93 1.93-2.02 2.8-3.1.57-.72.67-1.85-.1-2.5z"/></g><path id="Path 292" class="shp0" d="M72.4 73.07c-.18-.47-.61-.78-1.12-.77-.16 0-.32.01-.47.03-.27.03-.5.1-.74.2-.39.15-.78.34-1.14.55-.65.4-1.25.91-1.76 1.49-.22.26-.36.6-.34.95.01.31.17.68.41.88.26.23.6.38.95.35.33-.03.68-.15.89-.41.24-.3.51-.56.78-.81.36-.28.73-.53 1.13-.72.17-.06.34-.13.49-.22.15-.08.3-.17.46-.25l.21-.18c.11-.11.18-.23.22-.37.08-.23.11-.49.03-.72z"/></g></svg>