<svg version="1.2" baseProfile="tiny-ps" xmlns="http://www.w3.org/2000/svg" width="291" height="117" class="efada-logo"><defs><linearGradient id="grd1" gradientUnits="userSpaceOnUse" x1="-85.829" y1="216.331" x2="-84.991" y2="216.331"><stop offset="0" stop-color="#49a736"/><stop offset="1" stop-color="#226a2e"/></linearGradient><linearGradient id="grd2" gradientUnits="userSpaceOnUse" x1="-85.83" y1="216.296" x2="-84.991" y2="216.296"><stop offset="0" stop-color="#49a736"/><stop offset="1" stop-color="#226a2e"/></linearGradient><linearGradient id="grd3" gradientUnits="userSpaceOnUse" x1="-85.829" y1="216.273" x2="-84.991" y2="216.273"><stop offset="0" stop-color="#49a736"/><stop offset="1" stop-color="#226a2e"/></linearGradient><linearGradient id="grd4" gradientUnits="userSpaceOnUse" x1="-85.83" y1="216.294" x2="-84.99" y2="216.294"><stop offset="0" stop-color="#49a736"/><stop offset="1" stop-color="#226a2e"/></linearGradient><linearGradient id="grd5" gradientUnits="userSpaceOnUse" x1="-85.829" y1="216.273" x2="-84.991" y2="216.273"><stop offset="0" stop-color="#49a736"/><stop offset="1" stop-color="#226a2e"/></linearGradient><clipPath clipPathUnits="userSpaceOnUse" id="cp1"><path d="M79.21 7.73c4.45 0 8.32 1.02 11.6 3.04 3.44 2.27 5.15 5.47 5.15 9.61 0 2.65-.78 5.58-2.34 8.78-.47.94-.78 1.17-.94.7-.15-.46-.02-1.19.41-2.16.43-.98.65-2.09.65-3.34 0-3.59-3.24-5.39-9.72-5.39-8.05 0-18.97 2.87-32.8 8.61-13.81 5.74-24.63 12.2-32.44 19.38-4.76 4.46-8.43 8.77-11 12.94-2.58 4.18-3.87 7.83-3.87 10.96 0 3.12.86 5.89 2.58 8.31 2.96 4.53 9.64 7.22 20.02 8.08 1.17.08 3.01.12 5.51.12s5.97-.43 10.42-1.29c11.55-2.11 22.88-6.13 33.96-12.07 11.09-5.93 19.25-12.68 24.48-20.25 1.02-1.48 1.52-1.88 1.52-1.18 0 .32-.07.79-.23 1.41-2.11 5.94-9.25 12.88-21.44 20.85C62.86 86.55 45.6 92.41 28.97 92.41c-9.68 0-17.33-2.86-22.95-8.56C2.27 80.19.4 75.27.4 69.1c0-5.31 1.36-10.46 4.09-15.46C11.13 41.15 22.65 30.1 39.05 20.5c9.67-5.7 18.38-9.49 26.11-11.37 4.92-.93 9.6-1.4 14.05-1.4zM38.23 44.27c3.28 0 6.83.23 10.65.7 8.12 1.02 13.47 2.93 16.05 5.74.47.55.7 1 .7 1.35 0 .35-.04.64-.12.88-.46.62-1.28.54-2.46-.24-2.65-1.95-6.91-2.92-12.76-2.92-7.26 0-14.45.97-21.55 2.92-3.04.86-5.15 1.29-6.33 1.29-1.79 0-2.96-.82-3.51-2.46a.507.507 0 01-.12-.35c0-.86.74-1.88 2.23-3.05 1.48-1.17 4.29-2.14 8.43-2.92 2.58-.63 5.51-.94 8.79-.94z"/></clipPath><clipPath clipPathUnits="userSpaceOnUse" id="cp2"><path d="M124.89 30.33c-5.38 3.68-10.97 10.86-16.75 21.55-2.58.55-4.41 1.29-5.51 2.23-.93.86-1.5 1.7-1.69 2.52-.2.81-.22 1.64-.06 2.45.16.82.37 1.51.64 2.05.28.55.51.9.71 1.06.19.15.48.15.88 0-4.77 11.01-7.15 19.05-7.15 24.12 0 5.08 1.45 8.79 4.33 11.13.08.07.16.12.24.12.07 0 .23-.05.46-.12.24-.08.2-.28-.11-.59-1.01-1.17-1.52-2.92-1.52-5.27 0-2.34.55-5.31 1.63-8.9 2.58-8.27 6.56-16.35 11.95-24.24 3.44-.94 6.45-1.4 9.02-1.4 2.58 0 4.49.37 5.74 1.11 1.25.74 1.95.92 2.11.53.54-1.02-.63-2.62-3.52-4.81-1.48-1.17-4.37-1.95-8.66-2.34 6.09-8.27 11.44-13.89 16.04-16.86 2.42-1.56 5.04-2.35 7.85-2.35.78 0 1.66.03 2.63.06.98.04 2.13.55 3.46 1.52 1.33.98 2.22 2.37 2.69 4.16.08.39.26.59.53.59s.41-.16.41-.47c0-3.28-1.8-6.17-5.39-8.67-2.73-1.87-6.01-2.8-9.83-2.8-3.83 0-7.54 1.2-11.13 3.62z"/></clipPath><clipPath clipPathUnits="userSpaceOnUse" id="cp3"><path d="M154.93 53.05c2.46 0 4.84.69 7.14 2.05 2.3 1.37 3.77 2.99 4.39 4.86 2.34 0 4.03.87 5.04 2.58.16.23.23.63.23 1.17 0 .55-.29 1.17-.88 1.87-.58.71-1.3 1.57-2.16 2.58-.86 1.02-1.74 2.11-2.64 3.28-.89 1.17-2.03 2.77-3.39 4.8-1.37 2.04-2.05 3.75-2.05 5.15 0 1.41.6 2.11 1.82 2.11 1.2 0 3.17-.74 5.91-2.22 5.46-3.12 11.51-7.81 18.15-14.06.78-.77 1.29-.89 1.52-.35v.47c0 .24-.16.51-.46.82-13.43 12.65-23.2 18.97-29.29 18.97-1.79 0-3.29-.6-4.5-1.81s-1.82-2.64-1.82-4.28c0-1.64.7-4.13 2.11-7.49-3.51 4.37-7.28 7.75-11.3 10.13-4.02 2.38-7.17 3.57-9.43 3.57s-4.2-.68-5.79-2.05c-1.61-1.36-2.41-3.07-2.41-5.1 0-5.77 2.58-11.43 7.73-16.97 3.91-4.14 8.75-7.07 14.52-8.79 2.58-.86 5.1-1.29 7.56-1.29zm-18.56 31.16c1.09 0 2.9-.71 5.44-2.11 2.54-1.4 5.87-4.18 10.01-8.32.23-.23 1.14-1.09 2.7-2.58 1.56-1.48 2.88-2.76 3.98-3.86 3.67-3.82 5.5-6.57 5.5-8.26 0-1.67-1.28-2.51-3.86-2.51-1.64 0-3.59.51-5.86 1.52-3.98 1.72-7.76 4.68-11.36 8.9-5.7 6.72-8.54 11.64-8.54 14.76 0 1.64.66 2.46 1.99 2.46z"/></clipPath><clipPath clipPathUnits="userSpaceOnUse" id="cp4"><path d="M243.41 28.58c2.96 0 5.38.82 7.26 2.46-1.64 1.01-4.85 4.37-9.6 10.07-4.77 5.7-9.42 11.81-13.94 18.33-4.53 6.52-8.2 13.64-11.01 21.37-1.49 4.06-2.23 7.38-2.23 9.95 0 2.58.55 4.54 1.64 5.86.24.31.28.53.12.64-.16.12-.27.18-.35.18-.08 0-.19-.04-.35-.12-2.5-2.02-3.75-5.05-3.75-9.08 0-4.01.82-8.64 2.46-13.87-3.2 4.14-6.36 7.53-9.49 10.19-3.75 3.12-7.57 4.68-11.47 4.68-2.51 0-4.85-.84-7.03-2.52-2.19-1.67-3.28-4.43-3.28-8.25-.08-1.88.27-4.03 1.05-6.44-1.56 1.4-2.56 2.26-2.99 2.57-.42.32-.71.32-.87 0-.16-.31-.24-.6-.24-.88 0-.27.26-.62.77-1.05.5-.43 3.22-3.3 8.14-8.61 2.88-3.2 6.32-5.69 10.3-7.49 3.98-1.8 7.77-2.7 11.36-2.7 3.28 0 5.68.57 7.2 1.7 1.53 1.13 2.29 2.56 2.29 4.27 2.81-5.93 5.83-11.57 9.07-16.92 3.24-5.34 5.76-9.03 7.56-11.06 1.95-2.19 4.41-3.28 7.38-3.28zm-46.97 56.56c3.2 0 7.97-3.2 14.29-9.6 1.72-1.64 3.16-3.4 4.33-5.27.63-1.8 1.45-3.87 2.46-6.21-.7.47-1.27.53-1.69.18-.43-.35-.34-1.13.29-2.34.62-1.21.94-2.29.94-3.22 0-1.57-.98-2.35-2.94-2.35-1.01 0-2.33.32-3.97.94-3.67 1.41-7.3 4.14-10.9 8.2-4.45 5.07-6.67 9.91-6.67 14.52 0 2.73.9 4.37 2.69 4.92.39.15.78.23 1.17.23z"/></clipPath><clipPath clipPathUnits="userSpaceOnUse" id="cp5"><path d="M257.52 53.05c2.45 0 4.84.69 7.14 2.05 2.3 1.37 3.77 2.99 4.39 4.86 2.34 0 4.02.87 5.04 2.58.16.23.24.63.24 1.17 0 .55-.3 1.17-.89 1.87-.58.71-1.3 1.57-2.16 2.58-.86 1.02-1.74 2.11-2.64 3.28-.9 1.17-2.03 2.77-3.39 4.8-1.37 2.04-2.05 3.75-2.05 5.15 0 1.41.6 2.11 1.81 2.11s3.18-.74 5.92-2.22c5.46-3.12 11.51-7.81 18.15-14.06.78-.77 1.29-.89 1.52-.35v.47c0 .24-.16.51-.47.82-13.42 12.65-23.18 18.97-29.28 18.97-1.79 0-3.29-.6-4.5-1.81s-1.82-2.64-1.82-4.28c0-1.64.7-4.13 2.11-7.49-3.51 4.37-7.28 7.75-11.3 10.13-4.02 2.38-7.17 3.57-9.43 3.57s-4.2-.68-5.79-2.05c-1.61-1.36-2.4-3.07-2.4-5.1 0-5.77 2.57-11.43 7.72-16.97 3.91-4.14 8.75-7.07 14.53-8.79 2.57-.86 5.09-1.29 7.55-1.29zm-18.57 31.16c1.1 0 2.91-.71 5.45-2.11s5.87-4.18 10.02-8.32c.23-.23 1.12-1.09 2.69-2.58 1.56-1.48 2.89-2.76 3.98-3.86 3.67-3.82 5.5-6.57 5.5-8.26 0-1.67-1.29-2.51-3.86-2.51-1.64 0-3.59.51-5.86 1.52-3.98 1.72-7.77 4.68-11.36 8.9-5.7 6.72-8.54 11.64-8.54 14.76 0 1.64.66 2.46 1.98 2.46z"/></clipPath></defs><style>.shp0{fill:#1a1718}.shp7{fill:#8bab2b}.shp8{fill:#ffe600}</style><g id="Group 30"><g id="Group 17"><path id="Path 36" fill-rule="evenodd" class="shp0" d="M93.74 24.36c0-3.59-3.24-5.38-9.72-5.38-8.05 0-18.97 2.86-32.8 8.6-13.81 5.74-24.63 12.2-32.44 19.38-4.76 4.46-8.43 8.77-11 12.94-2.58 4.18-3.87 7.83-3.87 10.96 0 3.12.86 5.89 2.58 8.31 2.96 4.53 9.64 7.22 20.02 8.08 1.17.08 3.01.12 5.51.12s5.97-.43 10.42-1.29c11.55-2.11 22.88-6.13 33.96-12.07 11.09-5.92 19.25-12.68 24.48-20.26 1.02-1.47 1.52-1.87 1.52-1.17 0 .32-.07.79-.23 1.41-2.11 5.94-9.26 12.88-21.43 20.85C62.86 86.55 45.6 92.41 28.97 92.41c-9.68 0-17.33-2.86-22.95-8.56C2.27 80.19.4 75.27.4 69.1c0-5.31 1.36-10.46 4.09-15.46C11.13 41.15 22.65 30.1 39.05 20.5c9.67-5.7 18.38-9.49 26.11-11.36 4.92-.94 9.61-1.41 14.05-1.41 4.45 0 8.32 1.02 11.6 3.04 3.44 2.27 5.15 5.47 5.15 9.61 0 2.65-.78 5.58-2.34 8.78-.47.94-.78 1.17-.94.7-.15-.46-.02-1.19.41-2.16.43-.98.65-2.09.65-3.34zM64.93 50.71c.47.55.7 1 .7 1.35 0 .35-.04.64-.12.88-.46.62-1.29.54-2.46-.24-2.65-1.95-6.91-2.92-12.76-2.92-7.26 0-14.45.97-21.55 2.92-3.04.86-5.15 1.29-6.32 1.29-1.8 0-2.97-.82-3.52-2.46a.507.507 0 01-.12-.35c0-.86.74-1.88 2.23-3.05 1.48-1.17 4.29-2.14 8.43-2.92 2.58-.63 5.51-.94 8.79-.94 3.27 0 6.83.23 10.65.7 8.12 1.02 13.47 2.93 16.05 5.74z"/><path id="Path 37" class="shp0" d="M151.24 38.18c0 .31-.14.47-.41.47-.27 0-.45-.2-.53-.59-.47-1.79-1.36-3.18-2.69-4.16-1.33-.97-2.48-1.47-3.45-1.52-.98-.03-1.86-.06-2.64-.06-2.81 0-5.43.79-7.85 2.35-4.6 2.97-9.95 8.59-16.04 16.86 4.29.39 7.18 1.17 8.66 2.34 2.89 2.19 4.06 3.79 3.52 4.81-.16.39-.86.21-2.11-.53s-3.16-1.12-5.74-1.12c-2.57 0-5.58.47-9.02 1.41-5.39 7.89-9.37 15.97-11.94 24.24-1.09 3.59-1.64 6.56-1.64 8.9 0 2.35.51 4.1 1.52 5.27.31.31.35.51.12.59-.24.08-.4.12-.47.12-.08 0-.16-.04-.24-.12-2.88-2.34-4.33-6.05-4.33-11.13 0-5.07 2.38-13.11 7.15-24.12-.4.15-.69.15-.88 0-.2-.16-.43-.51-.71-1.06-.27-.54-.48-1.23-.64-2.05a5.63 5.63 0 01.06-2.45c.19-.82.76-1.66 1.69-2.52 1.1-.94 2.93-1.68 5.51-2.23 5.78-10.69 11.37-17.87 16.75-21.55 3.59-2.42 7.3-3.62 11.13-3.62 3.82 0 7.1.93 9.83 2.8 3.59 2.5 5.39 5.39 5.39 8.67z"/><path id="Path 38" fill-rule="evenodd" class="shp0" d="M168.69 68.16c-.86 1.02-1.74 2.11-2.64 3.28-.89 1.17-2.03 2.77-3.39 4.8-1.37 2.04-2.05 3.75-2.05 5.15 0 1.41.6 2.11 1.82 2.11 1.2 0 3.17-.74 5.9-2.22 5.47-3.12 11.52-7.81 18.16-14.06.78-.77 1.29-.89 1.52-.35v.47c0 .24-.16.51-.46.82-13.43 12.65-23.2 18.97-29.29 18.97-1.79 0-3.29-.6-4.5-1.81s-1.82-2.64-1.82-4.28c0-1.64.7-4.13 2.11-7.49-3.51 4.37-7.28 7.75-11.3 10.13-4.02 2.38-7.17 3.57-9.43 3.57s-4.2-.68-5.79-2.05c-1.61-1.36-2.41-3.07-2.41-5.1 0-5.77 2.58-11.43 7.73-16.97 3.91-4.14 8.75-7.07 14.52-8.79 2.58-.86 5.1-1.29 7.56-1.29s4.84.69 7.14 2.05c2.3 1.37 3.77 2.99 4.39 4.86 2.34 0 4.03.86 5.04 2.58.16.23.23.62.23 1.17 0 .55-.29 1.17-.88 1.88-.58.7-1.3 1.56-2.16 2.57zm-8.55-11.59c-1.64 0-3.59.5-5.86 1.52-3.98 1.72-7.76 4.68-11.36 8.9-5.7 6.72-8.54 11.64-8.54 14.76 0 1.64.66 2.46 1.99 2.46 1.09 0 2.9-.71 5.44-2.11 2.54-1.4 5.87-4.18 10.01-8.32l2.7-2.58c1.56-1.48 2.88-2.76 3.98-3.86 3.67-3.82 5.5-6.57 5.5-8.26 0-1.67-1.29-2.51-3.86-2.51z"/><path id="Path 39" fill-rule="evenodd" class="shp0" d="M216.12 80.81c-1.49 4.06-2.23 7.38-2.23 9.95 0 2.58.55 4.54 1.64 5.86.24.31.28.53.12.64-.16.12-.27.18-.35.18-.08 0-.19-.04-.35-.12-2.5-2.02-3.75-5.05-3.75-9.08 0-4.01.82-8.64 2.46-13.87-3.2 4.14-6.36 7.53-9.49 10.19-3.74 3.12-7.57 4.68-11.47 4.68-2.51 0-4.85-.84-7.03-2.52-2.19-1.67-3.28-4.43-3.28-8.25-.08-1.88.27-4.02 1.05-6.44-1.56 1.4-2.55 2.26-2.99 2.57-.42.32-.71.32-.87 0-.16-.31-.24-.6-.24-.88 0-.27.26-.62.77-1.05.5-.43 3.22-3.3 8.14-8.61 2.88-3.2 6.32-5.7 10.3-7.49 3.98-1.8 7.77-2.7 11.36-2.7 3.28 0 5.68.57 7.2 1.7 1.53 1.13 2.29 2.56 2.29 4.27 2.81-5.93 5.83-11.57 9.07-16.92 3.24-5.34 5.76-9.03 7.56-11.06 1.95-2.19 4.41-3.28 7.38-3.28 2.96 0 5.38.82 7.26 2.46-1.64 1.01-4.85 4.37-9.6 10.07-4.77 5.7-9.42 11.81-13.94 18.33-4.53 6.52-8.2 13.64-11.01 21.37zm.94-22.13c0-1.57-.98-2.35-2.94-2.35-1.01 0-2.33.32-3.97.94-3.67 1.41-7.3 4.14-10.9 8.2-4.45 5.07-6.67 9.91-6.67 14.52 0 2.73.9 4.37 2.69 4.92.39.15.78.23 1.17.23 3.2 0 7.97-3.2 14.29-9.6 1.72-1.64 3.16-3.4 4.33-5.27.63-1.8 1.45-3.87 2.46-6.21-.7.47-1.27.53-1.69.18-.44-.35-.34-1.13.29-2.34.62-1.21.94-2.29.94-3.22z"/><path id="Path 40" fill-rule="evenodd" class="shp0" d="M271.28 68.16c-.86 1.02-1.74 2.11-2.64 3.28-.9 1.17-2.03 2.77-3.39 4.8-1.37 2.04-2.05 3.75-2.05 5.15 0 1.41.6 2.11 1.82 2.11 1.2 0 3.17-.74 5.91-2.22 5.46-3.12 11.51-7.81 18.15-14.06.78-.77 1.29-.89 1.52-.35v.47c0 .24-.16.51-.46.82-13.43 12.65-23.19 18.97-29.29 18.97-1.79 0-3.29-.6-4.5-1.81s-1.82-2.64-1.82-4.28c0-1.64.7-4.13 2.11-7.49-3.51 4.37-7.28 7.75-11.3 10.13-4.02 2.38-7.17 3.57-9.43 3.57s-4.2-.68-5.79-2.05c-1.61-1.36-2.4-3.07-2.4-5.1 0-5.77 2.57-11.43 7.72-16.97 3.91-4.14 8.75-7.07 14.53-8.79 2.57-.86 5.09-1.29 7.55-1.29s4.84.69 7.14 2.05c2.3 1.37 3.77 2.99 4.39 4.86 2.34 0 4.02.86 5.04 2.58.16.23.24.62.24 1.17 0 .55-.3 1.17-.89 1.88-.58.7-1.3 1.56-2.16 2.57zm-8.55-11.59c-1.64 0-3.59.5-5.86 1.52-3.98 1.72-7.77 4.68-11.36 8.9-5.7 6.72-8.54 11.64-8.54 14.76 0 1.64.66 2.46 1.98 2.46 1.1 0 2.91-.71 5.45-2.11s5.87-4.18 10.02-8.32c.23-.23 1.12-1.09 2.69-2.58 1.56-1.48 2.89-2.76 3.98-3.86 3.67-3.82 5.5-6.57 5.5-8.26 0-1.67-1.29-2.51-3.86-2.51z"/></g><g id="Group 19"><g id="Group 18" clip-path="url(#cp1)"><path id="Rectangle 16" d="M.4 7.73h102v84.68H.4V7.73z" fill="url(#grd1)"/></g></g><g id="Group 21"><g id="Group 20" clip-path="url(#cp2)"><path id="Rectangle 17" d="M95.96 26.71h55.28v70.85H95.96V26.71z" fill="url(#grd2)"/></g></g><g id="Group 23"><g id="Group 22" clip-path="url(#cp3)"><path id="Rectangle 18" d="M125.12 53.06h62.89v34.19h-62.89V53.06z" fill="url(#grd3)"/></g></g><g id="Group 25"><g id="Group 24" clip-path="url(#cp4)"><path id="Rectangle 19" d="M179.34 28.58h71.33v68.86h-71.33V28.58z" fill="url(#grd4)"/></g></g><g id="Group 27"><g id="Group 26" clip-path="url(#cp5)"><path id="Rectangle 20" d="M227.72 53.06h62.88v34.19h-62.88V53.06z" fill="url(#grd5)"/></g></g><g id="Group 29"><path id="Path 46" d="M238.28 29.57c-17.7-15.6-48.25-26-77.23-25.29-28.88.72-51.38 9.89-67.75 25.29 8.22-12.7 30.57-27.25 62.27-29.27 36.95-2.36 71.37 14.93 82.71 29.27z" fill="#89aa2b"/><path id="Path 47" class="shp7" d="M221.97 3.67c.89 2.08 2.96 3.28 5.29 4.35 2.3 1.04 4.23 2.29 4.96 4.18.52 1.35.35 2.7-.12 4.03-.55 1.55-1.45 3.01-2.52 4.49-.6-2.93-1.56-5.77-4.17-8.23 1.51 2.6 2.93 5.22 3.35 8.02-.12.01-.24.04-.26.02-2.34-2.14-4.96-4.13-7.4-6.21-2.61-2.22-3.15-4.68-1.76-7.33.59-1.14 1.36-2.22 2.63-3.32z"/><path id="Path 48" class="shp7" d="M195.36 16.03c2.91-1.49 5.58-2.82 9.28-2.3.91.13 1.78.35 2.51.72 2.67 1.37 5.3 2.77 8.09 4.24-3.38.2-6.46-.24-9.51-.83 3.13.95 6.43 1.31 10.16 1.38a27.962 27.962 0 01-6.76 2.1c-3.36.6-6.02-.11-8.03-2-.77-.72-1.47-1.47-2.42-2.09-.87-.56-1.9-.92-3.32-1.22z"/><g id="Group 28"><path id="Path 49" class="shp8" d="M31.23 101.5v3.15h5.55v2.25h-5.55v5.67h-2.69V99.24h9.14v2.26h-6.45z"/><path id="Path 50" fill-rule="evenodd" class="shp8" d="M48.39 102.69c.73 0 1.4.13 2.02.38.61.25 1.14.6 1.58 1.05.44.44.78.97 1.02 1.59.25.61.38 1.28.38 2.01 0 .73-.13 1.4-.38 2.02-.25.62-.59 1.16-1.04 1.6-.44.45-.97.8-1.58 1.06-.6.25-1.26.38-1.97.38-.45 0-.88-.05-1.32-.15-.43-.1-.84-.25-1.22-.44-.38-.2-.73-.44-1.04-.74-.32-.3-.58-.64-.79-1.02-.42-.78-.64-1.72-.64-2.83 0-.42.06-.84.17-1.27.11-.42.26-.81.47-1.19.2-.37.45-.71.76-1.03.3-.32.64-.58 1.02-.79.77-.42 1.63-.63 2.56-.63zm.02 2.1c-.33 0-.64.06-.93.19-.29.13-.54.32-.76.57-.2.25-.37.56-.5.93-.12.36-.18.78-.18 1.26s.06.9.18 1.27c.13.37.3.68.5.93.22.25.47.44.76.58.29.13.6.19.93.19.33 0 .64-.06.92-.19.29-.14.54-.33.75-.58.21-.25.38-.56.49-.93.12-.38.18-.8.18-1.29 0-.46-.06-.88-.18-1.24-.11-.37-.28-.68-.49-.93-.21-.25-.46-.44-.75-.57-.28-.13-.59-.19-.92-.19z"/><path id="Path 51" class="shp8" d="M61.79 104.29c.21-.32.4-.59.57-.8.18-.2.36-.36.53-.49.17-.12.35-.2.53-.24.17-.05.36-.07.57-.07.58 0 1.14.16 1.68.49l-.78 2.23c-.44-.28-.84-.42-1.22-.42-.35 0-.66.1-.9.29-.25.2-.44.56-.58 1.08-.14.51-.21 1.59-.21 3.23v2.98h-2.57v-9.64h2.38v1.36z"/><path id="Path 52" class="shp8" d="M85.55 112.57v-5.83h-5.27v5.83h-2.7V99.24h2.7v5.26h5.27v-5.26h2.68v13.33h-2.68z"/><path id="Path 53" fill-rule="evenodd" class="shp8" d="M103.25 109.92c-.32.95-.83 1.66-1.54 2.14-.7.48-1.58.72-2.65.72-.83 0-1.55-.13-2.14-.4-.6-.26-1.09-.62-1.46-1.07-.37-.45-.64-.98-.82-1.58a6.65 6.65 0 01-.26-1.92c0-.8.11-1.51.33-2.15.22-.63.53-1.17.93-1.6.39-.44.86-.78 1.4-1.01.54-.24 1.12-.36 1.76-.36.72 0 1.37.12 1.94.36.58.23 1.07.59 1.46 1.07.4.48.7 1.08.91 1.8.21.72.3 1.57.29 2.56H97c.02.38.08.72.18 1.02.11.3.26.55.44.75a1.986 1.986 0 001.47.62c.39 0 .72-.1 1-.32.27-.22.48-.56.62-1.05l2.54.42zm-2.39-2.99c-.01-.38-.06-.7-.17-.99-.1-.28-.24-.51-.4-.71a1.7 1.7 0 00-.6-.43c-.23-.1-.47-.15-.74-.15-.28 0-.53.05-.76.16-.23.1-.43.26-.61.45-.17.2-.31.44-.4.72-.09.28-.14.6-.14.95h3.82z"/><path id="Path 54" fill-rule="evenodd" class="shp8" d="M109.19 105.45c.13-.46.31-.87.53-1.22.21-.34.48-.63.81-.86.34-.23.74-.4 1.2-.51.47-.11 1.01-.17 1.64-.17.57 0 1.07.04 1.48.11.42.07.78.17 1.07.3a2.328 2.328 0 011.18 1.03c.22.41.33 1.18.32 2.29v2.99c0 .42.01.78.03 1.08.01.3.04.56.09.79.05.23.11.44.18.64.08.2.17.41.28.65h-2.54c-.06-.17-.14-.43-.24-.76-.04-.15-.07-.25-.09-.3-.43.42-.9.74-1.4.95-.5.22-1.03.32-1.58.32-.51 0-.96-.06-1.36-.21-.39-.14-.73-.34-1.01-.59-.27-.25-.48-.55-.63-.9-.14-.35-.22-.74-.22-1.15 0-.54.13-1.03.39-1.45.26-.43.62-.76 1.09-.99.46-.23 1.14-.42 2.04-.59 1.19-.23 2.02-.44 2.49-.63v-.25c0-.25-.03-.45-.09-.63a.805.805 0 00-.28-.42c-.13-.11-.31-.19-.54-.24-.22-.05-.5-.08-.84-.08-.45 0-.8.09-1.06.28-.25.18-.46.49-.62.94l-2.32-.42zm5.75 2.49c-.33.1-.85.23-1.57.39-.7.15-1.16.29-1.39.44-.33.25-.5.55-.5.91 0 .18.04.34.11.5.07.16.17.3.29.42a1.395 1.395 0 001.03.39c.23 0 .45-.03.67-.1.21-.07.4-.17.57-.29.18-.12.32-.26.44-.42.12-.16.19-.32.24-.49.07-.23.11-.65.11-1.24v-.51z"/><path id="Rectangle 21" class="shp8" d="M124.08 99.24h2.56v13.33h-2.56V99.24z"/><path id="Path 55" class="shp8" d="M137.8 102.93v2.03h-1.74v3.88c0 .78.02 1.25.06 1.38.03.13.11.24.22.33.12.09.26.13.43.13.23 0 .57-.09 1.03-.26l.22 1.99c-.59.25-1.26.37-2.02.37-.47 0-.88-.07-1.24-.23-.37-.15-.64-.35-.82-.59-.08-.13-.15-.26-.21-.39-.06-.14-.1-.32-.14-.52-.03-.21-.06-.46-.07-.76-.01-.3-.02-.68-.02-1.12v-4.21h-1.17v-2.03h1.17v-1.94l2.56-1.48v3.42h1.74z"/><path id="Path 56" class="shp8" d="M146.26 104.15c.82-.97 1.81-1.46 2.94-1.46.59 0 1.13.11 1.6.33.47.22.83.5 1.07.85.12.16.22.34.3.51.07.18.14.39.19.61.05.23.09.49.11.8.02.3.02.68.02 1.11v5.67h-2.56v-5.1c0-1-.05-1.65-.14-1.93-.09-.28-.27-.5-.52-.65-.25-.16-.55-.24-.91-.24-.43 0-.81.1-1.15.31-.32.19-.57.51-.73.93-.15.42-.22 1.04-.22 1.85v4.83h-2.55V99.24h2.55v4.91z"/><path id="Path 57" class="shp8" d="M163.92 113.89c-.11.29-.22.53-.32.75-.11.21-.21.39-.32.54-.11.16-.22.3-.33.42-.11.12-.23.22-.37.3-.26.19-.58.33-.97.44-.38.11-.81.16-1.3.16-.48 0-.96-.06-1.45-.17l-.24-2c.41.08.77.12 1.09.12.3 0 .55-.05.77-.14.21-.09.39-.22.55-.38.15-.17.28-.36.39-.58.1-.23.19-.48.26-.75l-3.67-9.67h2.72l2.31 6.84 2.25-6.84h2.66l-3.42 9.28-.61 1.68z"/><path id="Path 58" class="shp8" d="M183.08 101.5v3.15h5.55v2.25h-5.55v5.67h-2.69V99.24h9.14v2.26h-6.45z"/><path id="Path 59" fill-rule="evenodd" class="shp8" d="M200.23 102.69c.74 0 1.41.13 2.02.38a4.719 4.719 0 012.62 2.64c.24.61.36 1.28.36 2.01 0 .73-.12 1.4-.37 2.02-.25.62-.6 1.16-1.04 1.6-.45.45-.97.8-1.58 1.06a5.1 5.1 0 01-1.98.38c-.44 0-.88-.05-1.31-.15-.43-.1-.84-.25-1.22-.44-.39-.2-.74-.44-1.04-.74-.32-.3-.58-.64-.79-1.02-.42-.78-.64-1.72-.64-2.83 0-.42.06-.84.16-1.27.11-.42.27-.81.47-1.19.21-.37.46-.71.76-1.03.3-.32.64-.58 1.03-.79.77-.42 1.63-.63 2.55-.63zm.02 2.1c-.33 0-.64.06-.92.19-.3.13-.55.32-.76.57-.21.25-.37.56-.5.93-.12.36-.18.78-.18 1.26s.06.9.18 1.27c.13.37.29.68.5.93.21.25.46.44.76.58.28.13.59.19.92.19.34 0 .65-.06.93-.19.29-.14.53-.33.75-.58.21-.25.37-.56.49-.93.12-.38.18-.8.18-1.29 0-.46-.06-.88-.18-1.24-.12-.37-.28-.68-.49-.93a2.17 2.17 0 00-.75-.57 2.18 2.18 0 00-.93-.19z"/><path id="Path 60" fill-rule="evenodd" class="shp8" d="M215.74 102.69c.74 0 1.41.13 2.02.38.62.25 1.14.6 1.58 1.05.45.44.79.97 1.03 1.59.25.61.37 1.28.37 2.01 0 .73-.12 1.4-.37 2.02-.25.62-.59 1.16-1.04 1.6-.45.45-.97.8-1.58 1.06a5.1 5.1 0 01-1.98.38c-.44 0-.88-.05-1.31-.15-.43-.1-.84-.25-1.22-.44-.39-.2-.73-.44-1.05-.74-.31-.3-.57-.64-.78-1.02-.42-.78-.63-1.72-.63-2.83 0-.42.05-.84.15-1.27.11-.42.27-.81.48-1.19.2-.37.45-.71.75-1.03.3-.32.64-.58 1.03-.79.77-.42 1.62-.63 2.55-.63zm.02 2.1c-.33 0-.64.06-.93.19-.28.13-.54.32-.75.57-.21.25-.37.56-.5.93-.12.36-.18.78-.18 1.26s.06.9.18 1.27c.13.37.29.68.5.93.21.25.47.44.75.58.29.13.6.19.93.19.34 0 .65-.06.93-.19.29-.14.53-.33.74-.58.22-.25.38-.56.5-.93.12-.38.18-.8.18-1.29 0-.46-.06-.88-.18-1.24-.12-.37-.28-.68-.5-.93-.21-.25-.45-.44-.74-.57a2.18 2.18 0 00-.93-.19z"/><path id="Path 61" fill-rule="evenodd" class="shp8" d="M233.37 112.57v-1.43c-.41.57-.88.99-1.41 1.25a3.642 3.642 0 01-3.18.05c-.49-.23-.92-.56-1.29-1-.37-.43-.65-.96-.87-1.59-.21-.63-.32-1.34-.32-2.14 0-.82.11-1.54.31-2.16.21-.63.49-1.15.85-1.57.36-.43.79-.74 1.29-.96.5-.22 1.04-.33 1.63-.33 1.08 0 2.02.46 2.8 1.36v-4.81h2.56v13.33h-2.37zm-2.31-7.92c-.3 0-.59.06-.84.18-.26.13-.49.3-.68.55-.19.24-.34.54-.45.9-.11.36-.17.78-.17 1.26 0 1.04.17 1.84.53 2.39.35.56.89.84 1.62.84.3 0 .57-.06.83-.19.26-.12.48-.31.67-.56.19-.25.34-.56.46-.94.11-.37.16-.8.16-1.3 0-.56-.05-1.03-.16-1.43-.11-.39-.25-.71-.44-.97-.19-.25-.42-.43-.68-.55-.26-.12-.55-.18-.85-.18z"/><path id="Path 62" class="shp8" d="M244.06 109.42c.1.5.32.89.65 1.14.33.26.8.39 1.41.39.66 0 1.16-.12 1.49-.36.22-.17.33-.4.33-.69 0-.2-.06-.36-.18-.48-.13-.12-.42-.23-.86-.33-2.06-.46-3.37-.88-3.91-1.26-.76-.51-1.14-1.24-1.14-2.17 0-.42.07-.81.24-1.17.16-.35.41-.67.74-.94.33-.27.75-.48 1.27-.63.51-.15 1.11-.23 1.81-.23.65 0 1.22.06 1.71.16.48.11.89.28 1.23.49.34.22.61.48.83.8.21.32.38.69.5 1.12l-2.42.43c-.1-.37-.29-.66-.57-.85-.29-.2-.7-.3-1.25-.3-.66 0-1.13.09-1.43.27-.19.14-.29.31-.29.52 0 .18.09.34.26.47.21.17 1 .4 2.38.72.69.15 1.25.32 1.72.5.47.19.84.4 1.13.64.29.24.49.51.61.82.13.31.19.67.19 1.08 0 .44-.09.85-.27 1.24-.19.39-.47.74-.83 1.03-.37.29-.83.52-1.38.7-.55.16-1.19.25-1.91.25-1.31 0-2.36-.26-3.13-.79-.76-.53-1.26-1.25-1.5-2.18l2.57-.39z"/></g></g></g></svg>