<svg version="1.2" baseProfile="tiny-ps" xmlns="http://www.w3.org/2000/svg" width="189" height="94"><style></style><path id="Path 252" fill-rule="evenodd" d="M12.93.1c3.73.34 6.28 3.52 8.15 6.47 4 6.34 6.01 13.77 8.89 20.64 1.87 4.44 3.68 8.76 6.68 12.47.51.38 1 .77 1.52 1.12.37.25.52.56.54.87 2.65 2.09 5.37 4.1 8.23 5.89 1.23.77 2.48 1.51 3.75 2.22-2.18-1.76-4.24-3.64-5.99-5.85-2.98-3.78-4.88-8.24-5.42-13.02-.17-1.53-.42-3.57.43-4.96.84-1.38 2.39-1.21 3.59-.41 2.5 1.67 4.34 4.68 5.91 7.17 1.93 3.06 3.58 6.29 5.29 9.48 1.39 2.6 2.65 5.27 4.06 7.85 1.27 2.34 2.82 4.56 5.08 6 4.4 1.88 8.87 3.6 13.4 5.14-2.03-1.35-3.95-2.84-5.7-4.51-3.23-3.07-5.64-6.85-7.54-10.87-.95-2.01-3.42-8.07 1.08-7.75 2.8.2 5.48 2.39 7.5 4.13 2.95 2.53 5.57 5.42 8.42 8.06 2.97 2.75 5.77 5.83 8.1 9.14 1.71 2.42 3.36 4.93 5.69 6.77 7.65 1.74 15.41 2.98 23.24 3.56a66.082 66.082 0 01-10.17-4.51 54.49 54.49 0 01-10.67-7.67c-2.04-1.86-4.11-3.71-5.86-5.85-1.58-1.94-3.68-4.86-2.21-7.41 1.82-3.17 5.64-1.43 8.08-.15 7.22 3.77 13.23 9.05 19.47 14.2 6.12 5.05 12.64 9.61 20.39 11.58 7.39-.39 14.77-1.3 22.02-2.75-5.61-.18-11.27-.67-16.6-2.4-5.17-1.67-10.42-4.63-13.76-9.02-1.07-1.4-2.33-3.59-.82-5.16 1.31-1.37 3.67-.72 5.21-.19 1.79.62 3.43 1.54 5.14 2.31 3.15 1.42 6.3 2.79 9.4 4.31 6.44 3.15 12.83 6.32 19.9 7.78.23.05.39.16.52.3 6.83-1.85 13.54-4.39 19.41-8.25.67-.44 1.42.69.78 1.15-6.87 4.96-14.88 8.01-23.08 10.1.01.22-.06.45-.28.65-4.68 4.43-9.55 8.67-14.47 12.83-2 1.7-4.05 3.24-6.25 4.68-2.41 1.59-4.89 3.09-7.47 4.4-2.19 1.11-4.62 2.27-7.1 2.44-1.78.12-3.55-.55-3.84-2.51-.32-2.12 1.44-4.02 2.88-5.34 2.27-2.07 4.98-3.69 7.64-5.19 2.79-1.57 5.61-3.06 8.48-4.47 2.3-1.13 4.59-2.32 6.91-3.41 1.54-.72 3.13-1.41 4.68-2.16-5.52 1.03-11.09 1.75-16.67 2.17-.7.27-1.4.55-2.09.83-.08.05-.17.08-.27.1-3.77 1.55-7.45 3.29-11.18 4.95-7.02 3.13-14.24 5.4-21.77 6.97-6.06 1.27-13.77 2.6-19.24-1.13-.57-.38-.52-1.09-.1-1.55 2.36-2.61 6.1-3.51 9.41-4.24 4.3-.94 8.59-1.92 12.93-2.64 5-.83 10.04-1.34 15.02-2.25 1.11-.21 2.22-.43 3.33-.66-10.7-.14-21.38-1.36-31.86-3.72-7.31 3.88-16.06 5.29-24.21 5.84-4.58.3-8.85.08-13.34-.85-1.82-.38-8.93-2.08-5.73-5.19 1.92-1.86 5.3-2.51 7.82-2.93 3.82-.65 7.74-.66 11.6-.53 3.9.13 7.78.44 11.67.49.1 0 .19 0 .28-.01-7.11-2.14-14.11-4.72-20.89-7.73-8.14 1.44-16.29 2.47-24.57 2.44-6.4-.03-13.83-.4-19.26-4.19-.27-.19-.52-.57-.46-.92.51-2.65 2.99-3.82 5.41-4.36 3.11-.71 6.42-.66 9.59-.51 3.88.19 7.76.66 11.6 1.23 2.46.36 4.91.8 7.35 1.26-1.63-.89-3.21-1.84-4.78-2.82-3.64-1.58-6.97-4.31-9.6-6.97-.25-.26-.48-.54-.73-.81-7.14-3.81-15.46-4.94-22.78-8.4-2.77-1.3-5.59-2.63-8.06-4.46C2.33 27.73 0 25.35.35 22.3c.05-.49.36-.83.83-.96 2.79-.78 5.78.06 8.39 1.11 3.19 1.29 6.18 3.06 9.08 4.9 2.26 1.44 4.52 2.91 6.71 4.47-3.94-4.7-7.53-9.86-10.53-15.17C12.27 12.12 9.04 5.61 11.99.56c.18-.31.59-.49.94-.46zm117.46 73.7c-2.68.42-5.35.98-8.02 1.45-4.73.84-9.52 1.32-14.27 2.07-4.29.68-8.49 1.66-12.73 2.55-2.79.59-5.95 1.21-8.24 3.02 2.68 1.29 6.05 1.3 8.9 1.09 3.37-.25 6.7-.93 9.98-1.7 3.11-.72 6.23-1.46 9.27-2.42 5.19-1.65 10.13-3.9 15.11-6.06zm28.43-8.82c-4.03-1.51-7.92-3.43-11.77-5.36-4.41-2.21-8.84-4.45-13.35-6.46-.75-.34-3.82-1.94-4.59-1.13-.91.97 2.16 3.79 2.78 4.37 7.25 6.83 17.31 8.1 26.93 8.58zm1.49 5.01c-2.58 1.44-5.4 2.51-8.08 3.67-2.43 1.05-4.82 2.22-7.22 3.36-5.3 2.51-10.91 5.12-15.29 9.1-.97.88-3.2 2.95-2.16 4.48.65.96 3 .08 3.95-.28 11.2-4.16 19.63-12.99 28.8-20.33zm-31.23.13c.27 0 .53.01.8 0 .12 0 .24-.01.37-.01-5.5-2.41-10.42-6-15.08-9.86-5.88-4.86-11.56-10-18.29-13.66-1.22-.66-6.61-3.84-6.29-.28.1 1.21 1 2.4 1.7 3.32.92 1.2 1.95 2.3 3.02 3.35 5.06 4.99 10.72 9.2 17.2 12.17a64.343 64.343 0 0016.57 4.97zm-40.67-2.58c-2.67-.04-5.41.28-8.02.2-3.93-.13-7.84-.47-11.77-.59-3.53-.11-7.11-.09-10.6.54-2.12.38-4.89.98-6.45 2.42.13.13.25.23.44.35.62.38 1.37.58 2.06.78 1.86.53 3.78.83 5.7 1.07 4.59.58 9.07.21 13.67-.32 5.76-.67 11.66-1.76 17.1-3.91-.56-.14-1.13-.27-1.69-.41-.14-.04-.29-.09-.44-.13zm1.22-2.93c-.79-1.03-1.52-2.11-2.24-3.14-2.35-3.34-5.1-6.48-8.06-9.29-2.54-2.41-4.95-4.96-7.53-7.33-1.86-1.72-4.39-4.09-6.99-4.53-.22-.03-.33-.01-.34-.02-.01.6.08 1.14.26 1.75.52 1.77 1.43 3.45 2.33 5.06 2.21 3.95 4.85 7.25 8.46 10.06 4.27 3.34 9.07 5.65 14.11 7.44zM31.71 52.56c-2.96-.18-6-.27-8.92.29-1.32.25-3.28.77-3.95 1.98 5.19 3.19 12.09 3.32 17.97 3.32 6.86 0 13.65-.71 20.43-1.59-1.46-.31-2.92-.62-4.38-.91-6.98-1.38-14.04-2.65-21.15-3.09zM29.6 38.02c-1.19-.92-2.37-1.85-3.56-2.75-2.53-1.93-5.21-3.67-7.85-5.43-2.69-1.78-5.44-3.54-8.38-4.89-2.21-1.01-4.85-2.08-7.34-1.73.27 2.5 2.97 4.33 4.9 5.55 2.58 1.63 5.4 3.04 8.21 4.23 4.54 1.92 9.39 3.24 14.02 5.02zm26.51 12.96c-1.03-1.96-1.94-4-2.94-5.86-3.06-5.68-5.79-11.94-10.21-16.72-.35-.38-.77-.67-1.14-1.03-.01 0-.08-.06-.14-.11-.05.15-.11.3-.13.45-.29 1.54.05 3.27.34 4.78.9 4.64 3.3 8.77 6.59 12.14C50.8 47 53.45 49 56.11 50.98zM13.47 2.33c-1.22 2.81-.08 6.28 1.04 8.92 1.4 3.29 3.29 6.36 5.27 9.32 3.12 4.69 6.48 9.32 10.39 13.4-.7-1.51-1.35-3.04-1.98-4.58-1.36-3.32-2.62-6.64-3.85-10.01-1.37-3.75-2.83-7.53-4.81-11.02-1.31-2.3-3.27-5.36-6.06-6.03z" opacity=".58" fill="#fff"/></svg>