 <svg
                  version="1.2"
                  baseProfile="tiny-ps"
                  xmlns="http://www.w3.org/2000/svg"
                  viewBox="0 0 176 71"
                  width="176"
                  height="71"
                  class="main-logo"
                >
                  <title>Group 10</title>
                  <style>
                    tspan {
                      white-space: pre;
                    }
                    .shp0 {
                      fill: #ffffff;
                    }
                  </style>
                  <g id="Group 10">
                    <g id="Group 6">
                      <g id="Group 4">
                        <g id="Group 1">
                          <path
                            id="Path 1"
                            fill-rule="evenodd"
                            class="shp0"
                            d="M171.23 28.94C168.87 28.94 166.95 27.02 166.95 24.66C166.95 22.3 168.87 20.38 171.23 20.38C173.59 20.38 175.5 22.3 175.5 24.66C175.5 27.02 173.59 28.94 171.23 28.94ZM171.23 20.48C168.92 20.48 167.04 22.35 167.04 24.66C167.04 26.97 168.92 28.84 171.23 28.84C173.53 28.84 175.41 26.97 175.41 24.66C175.41 22.35 173.53 20.48 171.23 20.48Z"
                          />
                        </g>
                        <g id="Group 3">
                          <g id="Group 2">
                            <path
                              id="Path 2"
                              fill-rule="evenodd"
                              class="shp0"
                              d="M169.14 27.76L169.14 21.31L171.39 21.31C171.96 21.31 172.37 21.37 172.62 21.48C172.87 21.6 173.07 21.8 173.23 22.08C173.39 22.37 173.47 22.71 173.47 23.11C173.47 23.61 173.34 24.02 173.1 24.33C172.86 24.64 172.52 24.83 172.07 24.91C172.3 25.07 172.49 25.25 172.64 25.45C172.79 25.64 172.99 25.99 173.25 26.5L173.89 27.76L172.62 27.76L171.85 26.35C171.57 25.85 171.38 25.53 171.28 25.4C171.18 25.27 171.07 25.18 170.96 25.14C170.85 25.09 170.67 25.06 170.43 25.06L170.21 25.06L170.21 27.76L169.14 27.76ZM170.21 24.03L171 24.03C171.48 24.03 171.79 24.01 171.92 23.97C172.05 23.93 172.16 23.84 172.24 23.71C172.32 23.58 172.37 23.41 172.37 23.2C172.37 22.99 172.32 22.83 172.24 22.7C172.16 22.58 172.05 22.49 171.91 22.45C171.81 22.41 171.52 22.4 171.04 22.4L170.21 22.4L170.21 24.03Z"
                            />
                          </g>
                        </g>
                      </g>
                      <g id="Group 5">
                        <path
                          id="Path 3"
                          fill-rule="evenodd"
                          class="shp0"
                          d="M58.23 40.65C58.23 44.36 58.73 48.48 62.81 48.48C66.48 48.48 66.95 45.63 67.08 44.64L74.13 44.64C74.02 45.56 73.3 54.05 62.7 54.05C52.35 54.05 50.91 46.1 50.91 38.72C50.91 29.46 54.75 23.81 62.85 23.81C72.11 23.81 74.38 30.15 74.38 37.77C74.38 38.79 74.32 40.16 74.26 40.65L58.23 40.65ZM67.11 35.78C67.11 32.94 66.75 29.34 62.84 29.34C58.61 29.34 58.36 33.67 58.35 35.78L67.11 35.78Z"
                        />
                        <path
                          id="Path 4"
                          class="shp0"
                          d="M79.67 34.2C79.67 29.41 79.67 26.39 79.61 24.31L86.64 24.31C86.7 24.82 86.82 26.03 86.82 29.11C88.02 25.81 90.84 23.82 95.19 23.82L95.19 31.37C89.97 31.26 87.04 32.66 87.04 38.18L87.04 53.5L79.67 53.5L79.67 34.2Z"
                        />
                        <path
                          id="Path 5"
                          class="shp0"
                          d="M98.72 33.07C98.72 27.3 98.72 25.57 98.66 24.31L105.69 24.31C105.82 24.88 105.92 26.35 105.92 27.29C107.36 25.03 109.73 23.81 112.95 23.81C116.42 23.81 118.44 25.24 119.42 27.77C120.74 25.73 122.99 23.81 127.26 23.81C131.8 23.81 135.35 25.92 135.35 32.56L135.35 53.5L128.09 53.5L128.09 33.57C128.09 31.24 127.26 29.54 124.7 29.54C121.71 29.54 120.75 31.61 120.75 35.21L120.75 53.5L113.43 53.5L113.43 33.68C113.43 31 112.44 29.59 110.07 29.59C107.11 29.59 106.03 31.45 106.03 35.38L106.03 53.5L98.72 53.5L98.72 33.07Z"
                        />
                        <path
                          id="Path 6"
                          fill-rule="evenodd"
                          class="shp0"
                          d="M162.29 47.14C162.29 48.57 162.43 52.18 162.54 53.5L155.85 53.5C155.72 52.92 155.54 51.63 155.54 50.78C154.32 52.64 152.22 54.01 148.34 54.01C142.2 54.01 139.84 49.53 139.84 45.35C139.84 39.38 144.33 35.76 152.43 35.76C153.5 35.76 154.32 35.76 155.04 35.82L155.04 32.63C155.04 30.93 154.8 28.94 151.61 28.94C148.55 28.94 148.19 30.78 148.01 32.7L141.02 32.7C141.14 28.4 143.35 23.81 151.89 23.81C158.74 23.81 162.29 26.65 162.29 32.22L162.29 47.14ZM155.21 40.7C154.46 40.59 153.8 40.58 152.83 40.58C148.63 40.58 147.11 42.36 147.11 44.74C147.11 46.52 148.04 48.53 150.77 48.53C154.53 48.53 155.21 45.96 155.21 41.63L155.21 40.7Z"
                        />
                      </g>
                      <path
                        id="Path 7"
                        fill-rule="evenodd"
                        class="shp0"
                        d="M47.14 37.63C47.14 42.03 46.38 45.97 44.87 49.48C43.35 52.99 40.94 55.77 37.63 57.82C34.33 59.87 30.15 60.9 25.1 60.9L4.82 60.9C4.1 60.9 3.51 60.68 3.04 60.23C2.57 59.78 2.13 58.68 1.74 56.92C1.34 55.16 1.04 52.56 0.82 49.12C0.6 45.69 0.5 40.91 0.5 34.8C0.5 27.08 0.68 20.74 1.05 15.78C1.42 10.82 1.88 7.26 2.43 5.08C2.98 2.91 3.54 1.52 4.11 0.9C4.69 0.29 5.29 -0.02 5.93 -0.02L19.25 -0.02C21.95 -0.02 24.9 0.69 28.09 2.11C31.28 3.53 34.32 5.75 37.23 8.78C40.14 11.82 42.52 15.76 44.37 20.6C46.22 25.44 47.14 31.12 47.14 37.63ZM21.74 34.56C18.65 28.28 17.96 22.47 20.35 17.27C21.02 15.79 21.49 14.16 22.18 12.27C16.68 10.61 13.3 12.31 11.11 15.79C6.53 23.06 6.05 31.96 9.62 42.05C11.29 46.78 14.28 50.68 19.18 52.53C20.7 53.11 21.59 52.9 22.33 51.72C25.42 46.8 24.93 41.06 21.74 34.56ZM35.17 22.62C33.62 19.01 31.15 15.98 27.7 13.89C26.12 12.94 25.24 12.9 24.53 14.5C21.53 21.2 20.84 28.26 25.8 36.85C28.46 41.44 28.45 45.8 26.72 49.62C26.17 50.85 25.68 52.12 24.98 53.8C28.9 54.11 31.63 52.78 33.53 50.32C39.26 42.95 39.88 33.66 35.17 22.62Z"
                      />
                    </g>
                    <g id="Group 9">
                      <g id="Group 7">
                        <path
                          id="Path 8"
                          class="shp0"
                          d="M66.37 58.81L66.37 60.37L62.7 60.37L62.7 62.57L66.07 62.57L66.07 64.09L62.7 64.09L62.7 66.49L66.41 66.49L66.41 68.05L60.76 68.05L60.76 58.81L66.37 58.81Z"
                        />
                        <path
                          id="Path 9"
                          class="shp0"
                          d="M72 62.66C71.46 62.5 71.07 62.4 70.53 62.4C70.08 62.4 69.79 62.49 69.62 62.58C69.31 62.74 69.24 62.99 69.24 63.13C69.24 63.45 69.5 63.56 69.76 63.67C70.27 63.88 70.82 63.98 71.33 64.2C72.05 64.54 72.44 65.2 72.44 65.98C72.44 66.27 72.39 66.98 71.73 67.53C71.14 68.04 70.38 68.17 69.6 68.17C69.03 68.17 68.58 68.13 67.51 67.87L67.61 66.38C67.87 66.49 68.53 66.82 69.38 66.82C70.18 66.82 70.61 66.47 70.61 66.09C70.59 65.79 70.37 65.62 70.12 65.5C69.64 65.28 69.13 65.17 68.66 64.96C68.3 64.81 67.43 64.34 67.43 63.2C67.43 63.03 67.46 62.62 67.7 62.22C68.04 61.69 68.81 61.09 70.27 61.09C70.94 61.09 71.46 61.2 72.12 61.35L72 62.66Z"
                        />
                        <path
                          id="Path 10"
                          fill-rule="evenodd"
                          class="shp0"
                          d="M75.58 70.9L73.74 70.9L73.78 68.6L73.78 62.99C73.77 62.39 73.75 61.8 73.73 61.2L75.47 61.2L75.51 62.25C75.62 62.12 75.71 61.99 75.82 61.88C76.31 61.35 77.09 61.06 77.83 61.06C78.92 61.06 79.57 61.64 79.83 61.94C80.21 62.37 80.66 63.17 80.66 64.52C80.66 64.77 80.65 65.46 80.41 66.18C79.82 67.96 78.37 68.19 77.65 68.19C77.34 68.19 76.67 68.16 76.03 67.64C75.83 67.48 75.74 67.34 75.58 67.14L75.58 70.9ZM76.39 62.81C75.56 63.35 75.58 64.47 75.58 64.68C75.58 65.39 75.78 66.21 76.46 66.59C76.69 66.7 76.93 66.76 77.18 66.76C77.46 66.76 77.69 66.68 77.79 66.62C78.79 66.15 78.78 64.7 78.78 64.57C78.78 64.43 78.79 63.24 78 62.74C77.88 62.66 77.64 62.54 77.28 62.54C76.97 62.54 76.66 62.63 76.39 62.81Z"
                        />
                        <path
                          id="Path 11"
                          class="shp0"
                          d="M86.28 62.82C86.12 62.78 86.01 62.73 85.69 62.73C85.39 62.73 84.64 62.79 84.23 63.56C83.97 64.03 83.93 64.58 83.95 65.66L83.95 68.05L82.13 68.05L82.13 62.97C82.11 62.39 82.11 61.78 82.08 61.2L83.8 61.2L83.8 62.83C83.88 62.53 83.93 62.4 84 62.25C84.5 61.27 85.37 61.1 85.78 61.1C85.9 61.1 86.04 61.12 86.28 61.16L86.28 62.82Z"
                        />
                        <path
                          id="Path 12"
                          fill-rule="evenodd"
                          class="shp0"
                          d="M88.5 65.24C88.59 65.62 88.67 65.8 88.78 65.96C89.02 66.34 89.56 66.83 90.63 66.83C91.45 66.83 92.09 66.55 92.36 66.42C92.5 66.34 92.65 66.25 92.81 66.15L92.84 67.68C92.44 67.83 91.51 68.19 90.33 68.19C89.92 68.19 88.69 68.18 87.75 67.3C87.29 66.87 86.73 66.1 86.73 64.69C86.73 64.35 86.76 63.38 87.32 62.49C87.67 61.95 88.49 61.05 90.13 61.05C90.42 61.05 91.19 61.06 91.9 61.51C93.15 62.28 93.27 63.79 93.29 64.16C93.31 64.52 93.29 64.87 93.28 65.24L88.5 65.24ZM91.62 63.98C91.61 63.75 91.59 63.58 91.51 63.35C91.33 62.71 90.79 62.31 90.11 62.31C89.83 62.31 89.54 62.37 89.32 62.52C88.59 62.94 88.53 63.8 88.5 64L91.62 63.98Z"
                        />
                        <path
                          id="Path 13"
                          class="shp0"
                          d="M98.75 62.66C98.21 62.5 97.82 62.4 97.27 62.4C96.83 62.4 96.54 62.49 96.36 62.58C96.05 62.74 95.99 62.99 95.99 63.13C95.99 63.45 96.24 63.56 96.51 63.67C97.02 63.88 97.57 63.98 98.08 64.2C98.8 64.54 99.19 65.2 99.19 65.98C99.19 66.27 99.13 66.98 98.48 67.53C97.89 68.04 97.13 68.17 96.35 68.17C95.77 68.17 95.33 68.13 94.26 67.87L94.35 66.38C94.62 66.49 95.28 66.82 96.12 66.82C96.92 66.82 97.35 66.47 97.35 66.09C97.34 65.79 97.11 65.62 96.87 65.5C96.39 65.28 95.88 65.17 95.41 64.96C95.05 64.81 94.18 64.34 94.18 63.2C94.18 63.03 94.21 62.62 94.45 62.22C94.78 61.69 95.56 61.09 97.02 61.09C97.69 61.09 98.21 61.2 98.87 61.35L98.75 62.66Z"
                        />
                        <path
                          id="Path 14"
                          class="shp0"
                          d="M104.6 62.66C104.06 62.5 103.67 62.4 103.13 62.4C102.68 62.4 102.39 62.49 102.22 62.58C101.91 62.74 101.84 62.99 101.84 63.13C101.84 63.45 102.1 63.56 102.36 63.67C102.87 63.88 103.42 63.98 103.93 64.2C104.65 64.54 105.04 65.2 105.04 65.98C105.04 66.27 104.99 66.98 104.33 67.53C103.74 68.04 102.98 68.17 102.2 68.17C101.63 68.17 101.18 68.13 100.11 67.87L100.21 66.38C100.47 66.49 101.13 66.82 101.97 66.82C102.78 66.82 103.21 66.47 103.21 66.09C103.19 65.79 102.97 65.62 102.72 65.5C102.24 65.28 101.73 65.17 101.26 64.96C100.9 64.81 100.03 64.34 100.03 63.2C100.03 63.03 100.06 62.62 100.3 62.22C100.63 61.69 101.41 61.09 102.87 61.09C103.54 61.09 104.06 61.2 104.72 61.35L104.6 62.66Z"
                        />
                        <path
                          id="Path 15"
                          fill-rule="evenodd"
                          class="shp0"
                          d="M111.23 61.35C112.61 61.93 113.29 63.21 113.29 64.64C113.29 64.87 113.28 65.47 113.02 66.1C112.71 66.86 111.82 68.17 109.66 68.17C109.23 68.17 108.21 68.14 107.28 67.4C106.78 67 106.01 66.18 106.01 64.62C106.01 64.13 106.1 63.59 106.29 63.13C106.85 61.75 108.17 61.06 109.66 61.06C109.9 61.06 110.57 61.08 111.23 61.35ZM108.79 62.63C108.39 62.9 107.92 63.5 107.92 64.58C107.92 64.77 107.93 66 108.75 66.57C109.03 66.77 109.33 66.85 109.66 66.85C110.51 66.85 111.36 66.26 111.36 64.58C111.36 64.06 111.29 63.55 111 63.11C110.84 62.87 110.45 62.37 109.66 62.37C109.23 62.37 108.92 62.54 108.79 62.63Z"
                        />
                        <path
                          id="Path 16"
                          class="shp0"
                          d="M125.39 60.62C125.25 60.55 125.12 60.49 124.98 60.44C124.3 60.19 123.64 60.18 123.4 60.18C123.14 60.18 122.47 60.19 121.8 60.54C120.38 61.29 120.31 62.86 120.31 63.29C120.31 63.5 120.32 64.06 120.54 64.64C121.02 65.92 122.1 66.64 123.5 66.62C123.94 66.62 124.61 66.53 125.02 66.42C125.24 66.35 125.34 66.31 125.53 66.22L125.64 67.87C124.76 68.09 124.3 68.18 123.39 68.18C123.12 68.18 122.36 68.18 121.6 67.97C120.12 67.59 118.98 66.59 118.5 65.17C118.39 64.85 118.25 64.28 118.25 63.46C118.25 61.5 119.06 60.41 119.69 59.85C120.27 59.34 121.34 58.67 123.19 58.67C124.33 58.67 125.09 58.91 125.53 59.04L125.39 60.62Z"
                        />
                        <path
                          id="Path 17"
                          fill-rule="evenodd"
                          class="shp0"
                          d="M131.84 61.35C133.22 61.93 133.9 63.21 133.9 64.64C133.9 64.87 133.89 65.47 133.64 66.1C133.33 66.86 132.43 68.17 130.27 68.17C129.85 68.17 128.83 68.14 127.89 67.4C127.39 67 126.62 66.18 126.62 64.62C126.62 64.13 126.71 63.59 126.9 63.13C127.46 61.75 128.79 61.06 130.27 61.06C130.51 61.06 131.18 61.08 131.84 61.35ZM129.4 62.63C129 62.9 128.53 63.5 128.53 64.58C128.53 64.77 128.55 66 129.36 66.57C129.64 66.77 129.94 66.85 130.27 66.85C131.12 66.85 131.97 66.26 131.97 64.58C131.97 64.06 131.91 63.55 131.61 63.11C131.45 62.87 131.06 62.37 130.27 62.37C129.85 62.37 129.54 62.54 129.4 62.63Z"
                        />
                        <path
                          id="Path 18"
                          class="shp0"
                          d="M139.34 59.56C139.13 59.51 139.05 59.48 138.82 59.48C138.59 59.48 138.38 59.52 138.19 59.68C137.75 60 137.79 60.72 137.77 61.2L139.35 61.2L139.35 62.53L137.77 62.53L137.77 68.05L135.97 68.05L135.97 62.53L134.57 62.53L134.57 61.2L135.97 61.2C135.98 60.08 135.99 58.83 137.2 58.28C137.72 58.03 138.22 58.03 138.42 58.03C138.83 58.03 139.07 58.07 139.48 58.13L139.34 59.56Z"
                        />
                        <path
                          id="Path 19"
                          class="shp0"
                          d="M144.63 59.56C144.42 59.51 144.34 59.48 144.11 59.48C143.88 59.48 143.67 59.52 143.48 59.68C143.04 60 143.08 60.72 143.06 61.2L144.64 61.2L144.64 62.53L143.06 62.53L143.06 68.05L141.26 68.05L141.26 62.53L139.86 62.53L139.86 61.2L141.26 61.2C141.27 60.08 141.28 58.83 142.49 58.28C143.01 58.03 143.51 58.03 143.71 58.03C144.12 58.03 144.36 58.07 144.77 58.13L144.63 59.56Z"
                        />
                        <path
                          id="Path 20"
                          fill-rule="evenodd"
                          class="shp0"
                          d="M147 65.24C147.1 65.62 147.18 65.8 147.28 65.96C147.53 66.34 148.06 66.83 149.13 66.83C149.95 66.83 150.59 66.55 150.86 66.42C151.01 66.34 151.15 66.25 151.31 66.15L151.34 67.68C150.94 67.83 150.01 68.19 148.84 68.19C148.42 68.19 147.19 68.18 146.25 67.3C145.8 66.87 145.23 66.1 145.23 64.69C145.23 64.35 145.26 63.38 145.82 62.49C146.17 61.95 146.99 61.05 148.64 61.05C148.92 61.05 149.69 61.06 150.4 61.51C151.65 62.28 151.77 63.79 151.8 64.16C151.81 64.52 151.8 64.87 151.78 65.24L147 65.24ZM150.12 63.98C150.11 63.75 150.1 63.58 150.01 63.35C149.83 62.71 149.29 62.31 148.61 62.31C148.33 62.31 148.05 62.37 147.82 62.52C147.1 62.94 147.03 63.8 147 64L150.12 63.98Z"
                        />
                        <path
                          id="Path 21"
                          fill-rule="evenodd"
                          class="shp0"
                          d="M154.53 65.24C154.62 65.62 154.7 65.8 154.81 65.96C155.05 66.34 155.59 66.83 156.66 66.83C157.48 66.83 158.12 66.55 158.39 66.42C158.53 66.34 158.68 66.25 158.84 66.15L158.87 67.68C158.47 67.83 157.54 68.19 156.36 68.19C155.95 68.19 154.72 68.18 153.78 67.3C153.32 66.87 152.76 66.1 152.76 64.69C152.76 64.35 152.79 63.38 153.35 62.49C153.7 61.95 154.52 61.05 156.16 61.05C156.45 61.05 157.22 61.06 157.93 61.51C159.18 62.28 159.3 63.79 159.32 64.16C159.34 64.52 159.32 64.87 159.31 65.24L154.53 65.24ZM157.65 63.98C157.64 63.75 157.62 63.58 157.54 63.35C157.36 62.71 156.82 62.31 156.14 62.31C155.86 62.31 155.57 62.37 155.35 62.52C154.62 62.94 154.56 63.8 154.53 64L157.65 63.98Z"
                        />
                      </g>
                      <g id="Group 8">
                        <path
                          id="Path 22"
                          class="shp0"
                          d="M66.37 58.81L66.37 60.37L62.7 60.37L62.7 62.57L66.07 62.57L66.07 64.09L62.7 64.09L62.7 66.49L66.41 66.49L66.41 68.05L60.76 68.05L60.76 58.81L66.37 58.81Z"
                        />
                        <path
                          id="Path 23"
                          class="shp0"
                          d="M72 62.66C71.46 62.5 71.07 62.4 70.53 62.4C70.08 62.4 69.79 62.49 69.62 62.58C69.31 62.74 69.24 62.99 69.24 63.13C69.24 63.45 69.5 63.56 69.76 63.67C70.27 63.88 70.82 63.98 71.33 64.2C72.05 64.54 72.44 65.2 72.44 65.98C72.44 66.27 72.39 66.98 71.73 67.53C71.14 68.04 70.38 68.17 69.6 68.17C69.03 68.17 68.58 68.13 67.51 67.87L67.61 66.38C67.87 66.49 68.53 66.82 69.38 66.82C70.18 66.82 70.61 66.47 70.61 66.09C70.59 65.79 70.37 65.62 70.12 65.5C69.64 65.28 69.13 65.17 68.66 64.96C68.3 64.81 67.43 64.34 67.43 63.2C67.43 63.03 67.46 62.62 67.7 62.22C68.04 61.69 68.81 61.09 70.27 61.09C70.94 61.09 71.46 61.2 72.12 61.35L72 62.66Z"
                        />
                        <path
                          id="Path 24"
                          fill-rule="evenodd"
                          class="shp0"
                          d="M75.58 70.9L73.74 70.9L73.78 68.6L73.78 62.99C73.77 62.39 73.75 61.8 73.73 61.2L75.47 61.2L75.51 62.25C75.62 62.12 75.71 61.99 75.82 61.88C76.31 61.35 77.09 61.06 77.83 61.06C78.92 61.06 79.57 61.64 79.83 61.94C80.21 62.37 80.66 63.17 80.66 64.52C80.66 64.77 80.65 65.46 80.41 66.18C79.82 67.96 78.37 68.19 77.65 68.19C77.34 68.19 76.67 68.16 76.03 67.64C75.83 67.48 75.74 67.34 75.58 67.14L75.58 70.9ZM76.39 62.81C75.56 63.35 75.58 64.47 75.58 64.68C75.58 65.39 75.78 66.21 76.46 66.59C76.69 66.7 76.93 66.76 77.18 66.76C77.46 66.76 77.69 66.68 77.79 66.62C78.79 66.15 78.78 64.7 78.78 64.57C78.78 64.43 78.79 63.24 78 62.74C77.88 62.66 77.64 62.54 77.28 62.54C76.97 62.54 76.66 62.63 76.39 62.81Z"
                        />
                        <path
                          id="Path 25"
                          class="shp0"
                          d="M86.28 62.82C86.12 62.78 86.01 62.73 85.69 62.73C85.39 62.73 84.64 62.79 84.23 63.56C83.97 64.03 83.93 64.58 83.95 65.66L83.95 68.05L82.13 68.05L82.13 62.97C82.11 62.39 82.11 61.78 82.08 61.2L83.8 61.2L83.8 62.83C83.88 62.53 83.93 62.4 84 62.25C84.5 61.27 85.37 61.1 85.78 61.1C85.9 61.1 86.04 61.12 86.28 61.16L86.28 62.82Z"
                        />
                        <path
                          id="Path 26"
                          fill-rule="evenodd"
                          class="shp0"
                          d="M88.5 65.24C88.59 65.62 88.67 65.8 88.78 65.96C89.02 66.34 89.56 66.83 90.63 66.83C91.45 66.83 92.09 66.55 92.36 66.42C92.5 66.34 92.65 66.25 92.81 66.15L92.84 67.68C92.44 67.83 91.51 68.19 90.33 68.19C89.92 68.19 88.69 68.18 87.75 67.3C87.29 66.87 86.73 66.1 86.73 64.69C86.73 64.35 86.76 63.38 87.32 62.49C87.67 61.95 88.49 61.05 90.13 61.05C90.42 61.05 91.19 61.06 91.9 61.51C93.15 62.28 93.27 63.79 93.29 64.16C93.31 64.52 93.29 64.87 93.28 65.24L88.5 65.24ZM91.62 63.98C91.61 63.75 91.59 63.58 91.51 63.35C91.33 62.71 90.79 62.31 90.11 62.31C89.83 62.31 89.54 62.37 89.32 62.52C88.59 62.94 88.53 63.8 88.5 64L91.62 63.98Z"
                        />
                        <path
                          id="Path 27"
                          class="shp0"
                          d="M98.75 62.66C98.21 62.5 97.82 62.4 97.27 62.4C96.83 62.4 96.54 62.49 96.36 62.58C96.05 62.74 95.99 62.99 95.99 63.13C95.99 63.45 96.24 63.56 96.51 63.67C97.02 63.88 97.57 63.98 98.08 64.2C98.8 64.54 99.19 65.2 99.19 65.98C99.19 66.27 99.13 66.98 98.48 67.53C97.89 68.04 97.13 68.17 96.35 68.17C95.77 68.17 95.33 68.13 94.26 67.87L94.35 66.38C94.62 66.49 95.28 66.82 96.12 66.82C96.92 66.82 97.35 66.47 97.35 66.09C97.34 65.79 97.11 65.62 96.87 65.5C96.39 65.28 95.88 65.17 95.41 64.96C95.05 64.81 94.18 64.34 94.18 63.2C94.18 63.03 94.21 62.62 94.45 62.22C94.78 61.69 95.56 61.09 97.02 61.09C97.69 61.09 98.21 61.2 98.87 61.35L98.75 62.66Z"
                        />
                        <path
                          id="Path 28"
                          class="shp0"
                          d="M104.6 62.66C104.06 62.5 103.67 62.4 103.13 62.4C102.68 62.4 102.39 62.49 102.22 62.58C101.91 62.74 101.84 62.99 101.84 63.13C101.84 63.45 102.1 63.56 102.36 63.67C102.87 63.88 103.42 63.98 103.93 64.2C104.65 64.54 105.04 65.2 105.04 65.98C105.04 66.27 104.99 66.98 104.33 67.53C103.74 68.04 102.98 68.17 102.2 68.17C101.63 68.17 101.18 68.13 100.11 67.87L100.21 66.38C100.47 66.49 101.13 66.82 101.97 66.82C102.78 66.82 103.21 66.47 103.21 66.09C103.19 65.79 102.97 65.62 102.72 65.5C102.24 65.28 101.73 65.17 101.26 64.96C100.9 64.81 100.03 64.34 100.03 63.2C100.03 63.03 100.06 62.62 100.3 62.22C100.63 61.69 101.41 61.09 102.87 61.09C103.54 61.09 104.06 61.2 104.72 61.35L104.6 62.66Z"
                        />
                        <path
                          id="Path 29"
                          fill-rule="evenodd"
                          class="shp0"
                          d="M111.23 61.35C112.61 61.93 113.29 63.21 113.29 64.64C113.29 64.87 113.28 65.47 113.02 66.1C112.71 66.86 111.82 68.17 109.66 68.17C109.23 68.17 108.21 68.14 107.28 67.4C106.78 67 106.01 66.18 106.01 64.62C106.01 64.13 106.1 63.59 106.29 63.13C106.85 61.75 108.17 61.06 109.66 61.06C109.9 61.06 110.57 61.08 111.23 61.35ZM108.79 62.63C108.39 62.9 107.92 63.5 107.92 64.58C107.92 64.77 107.93 66 108.75 66.57C109.03 66.77 109.33 66.85 109.66 66.85C110.51 66.85 111.36 66.26 111.36 64.58C111.36 64.06 111.29 63.55 111 63.11C110.84 62.87 110.45 62.37 109.66 62.37C109.23 62.37 108.92 62.54 108.79 62.63Z"
                        />
                        <path
                          id="Path 30"
                          class="shp0"
                          d="M125.39 60.62C125.25 60.55 125.12 60.49 124.98 60.44C124.3 60.19 123.64 60.18 123.4 60.18C123.14 60.18 122.47 60.19 121.8 60.54C120.38 61.29 120.31 62.86 120.31 63.29C120.31 63.5 120.32 64.06 120.54 64.64C121.02 65.92 122.1 66.64 123.5 66.62C123.94 66.62 124.61 66.53 125.02 66.42C125.24 66.35 125.34 66.31 125.53 66.22L125.64 67.87C124.76 68.09 124.3 68.18 123.39 68.18C123.12 68.18 122.36 68.18 121.6 67.97C120.12 67.59 118.98 66.59 118.5 65.17C118.39 64.85 118.25 64.28 118.25 63.46C118.25 61.5 119.06 60.41 119.69 59.85C120.27 59.34 121.34 58.67 123.19 58.67C124.33 58.67 125.09 58.91 125.53 59.04L125.39 60.62Z"
                        />
                        <path
                          id="Path 31"
                          fill-rule="evenodd"
                          class="shp0"
                          d="M131.84 61.35C133.22 61.93 133.9 63.21 133.9 64.64C133.9 64.87 133.89 65.47 133.64 66.1C133.33 66.86 132.43 68.17 130.27 68.17C129.85 68.17 128.83 68.14 127.89 67.4C127.39 67 126.62 66.18 126.62 64.62C126.62 64.13 126.71 63.59 126.9 63.13C127.46 61.75 128.79 61.06 130.27 61.06C130.51 61.06 131.18 61.08 131.84 61.35ZM129.4 62.63C129 62.9 128.53 63.5 128.53 64.58C128.53 64.77 128.55 66 129.36 66.57C129.64 66.77 129.94 66.85 130.27 66.85C131.12 66.85 131.97 66.26 131.97 64.58C131.97 64.06 131.91 63.55 131.61 63.11C131.45 62.87 131.06 62.37 130.27 62.37C129.85 62.37 129.54 62.54 129.4 62.63Z"
                        />
                        <path
                          id="Path 32"
                          class="shp0"
                          d="M139.34 59.56C139.13 59.51 139.05 59.48 138.82 59.48C138.59 59.48 138.38 59.52 138.19 59.68C137.75 60 137.79 60.72 137.77 61.2L139.35 61.2L139.35 62.53L137.77 62.53L137.77 68.05L135.97 68.05L135.97 62.53L134.57 62.53L134.57 61.2L135.97 61.2C135.98 60.08 135.99 58.83 137.2 58.28C137.72 58.03 138.22 58.03 138.42 58.03C138.83 58.03 139.07 58.07 139.48 58.13L139.34 59.56Z"
                        />
                        <path
                          id="Path 33"
                          class="shp0"
                          d="M144.63 59.56C144.42 59.51 144.34 59.48 144.11 59.48C143.88 59.48 143.67 59.52 143.48 59.68C143.04 60 143.08 60.72 143.06 61.2L144.64 61.2L144.64 62.53L143.06 62.53L143.06 68.05L141.26 68.05L141.26 62.53L139.86 62.53L139.86 61.2L141.26 61.2C141.27 60.08 141.28 58.83 142.49 58.28C143.01 58.03 143.51 58.03 143.71 58.03C144.12 58.03 144.36 58.07 144.77 58.13L144.63 59.56Z"
                        />
                        <path
                          id="Path 34"
                          fill-rule="evenodd"
                          class="shp0"
                          d="M147 65.24C147.1 65.62 147.18 65.8 147.28 65.96C147.53 66.34 148.06 66.83 149.13 66.83C149.95 66.83 150.59 66.55 150.86 66.42C151.01 66.34 151.15 66.25 151.31 66.15L151.34 67.68C150.94 67.83 150.01 68.19 148.84 68.19C148.42 68.19 147.19 68.18 146.25 67.3C145.8 66.87 145.23 66.1 145.23 64.69C145.23 64.35 145.26 63.38 145.82 62.49C146.17 61.95 146.99 61.05 148.64 61.05C148.92 61.05 149.69 61.06 150.4 61.51C151.65 62.28 151.77 63.79 151.8 64.16C151.81 64.52 151.8 64.87 151.78 65.24L147 65.24ZM150.12 63.98C150.11 63.75 150.1 63.58 150.01 63.35C149.83 62.71 149.29 62.31 148.61 62.31C148.33 62.31 148.05 62.37 147.82 62.52C147.1 62.94 147.03 63.8 147 64L150.12 63.98Z"
                        />
                        <path
                          id="Path 35"
                          fill-rule="evenodd"
                          class="shp0"
                          d="M154.53 65.24C154.62 65.62 154.7 65.8 154.81 65.96C155.05 66.34 155.59 66.83 156.66 66.83C157.48 66.83 158.12 66.55 158.39 66.42C158.53 66.34 158.68 66.25 158.84 66.15L158.87 67.68C158.47 67.83 157.54 68.19 156.36 68.19C155.95 68.19 154.72 68.18 153.78 67.3C153.32 66.87 152.76 66.1 152.76 64.69C152.76 64.35 152.79 63.38 153.35 62.49C153.7 61.95 154.52 61.05 156.16 61.05C156.45 61.05 157.22 61.06 157.93 61.51C159.18 62.28 159.3 63.79 159.32 64.16C159.34 64.52 159.32 64.87 159.31 65.24L154.53 65.24ZM157.65 63.98C157.64 63.75 157.62 63.58 157.54 63.35C157.36 62.71 156.82 62.31 156.14 62.31C155.86 62.31 155.57 62.37 155.35 62.52C154.62 62.94 154.56 63.8 154.53 64L157.65 63.98Z"
                        />
                      </g>
                    </g>
                  </g>
                </svg>