<svg version="1.2" baseProfile="tiny-ps" xmlns="http://www.w3.org/2000/svg" width="428" height="397" class="dr-footer-oliveoil d-none d-sm-block"><style>.shp0{fill:#fff;opacity:.3}</style><g id="Group 132" opacity=".388"><g id="Group 130"><g id="Group 121"><path id="Path 188" fill-rule="evenodd" class="shp0" d="M179.45 258.98c1.21-2.97 2.2-6.03 3.02-9.12 1.15-4.33 1.67-8.96 3.89-12.86l-.09-.36c-2.48-11.68-.26-24.31 9.82-31.71 9.4-6.9 23.13-9.22 34.33-6.14 12.26 3.39 22.35 12.31 29.83 22.31 1.39 1.86 2.63 3.81 3.8 5.81 3.66 4.24 6.89 8.85 9.55 13.76 4.76 8.81 7.85 18.89 6.89 28.99-1.01 10.68-6.94 21.46-16.61 26.62-11.13 5.94-24.3 3.01-34.88-2.71-10.72-5.8-18.8-14.46-26.05-24.09-6.64-8.82-12.81-18.73-15.82-29.49-1.26 3.8-1.44 8.04-2.44 11.88-.79 3.02-1.73 6-2.89 8.9-1.13 2.83-2.36 5.7-4.45 7.94-.65.7-1.8-.03-1.56-.91.83-3.07 2.47-5.88 3.66-8.82zm10.42-28.97c.72 11.29 6.44 21.91 12.63 31.13 5.95 8.84 12.74 17.52 21.35 23.92 8.76 6.5 20.7 12.04 31.86 9.69 10.35-2.18 17.78-11.4 20.22-21.38 2.16-8.83.41-18.02-2.92-26.33-6.17-15.39-18.18-29.04-32.76-37.45-14.94-8.61-36.68-12.9-47.21 5.12-2.67 4.58-3.51 10.06-3.17 15.3z"/><path id="Path 189" class="shp0" d="M199.01 222.13c-.06-.48-.03-.97.07-1.44.13-.56.55-1.08.91-1.51.6-.72 1.35-1.33 2.16-1.79 1.69-.96 3.77-1.32 5.68-.97 1.05.19.9 1.99-.19 1.89-.39-.04-.79-.04-1.18-.01-.41.03-.59.07-1 .18l-.57.18s-.33.15-.16.06c-.07.04-.14.08-.2.11-.36.2-.72.41-1.05.65-.08.05-.16.11-.24.17-.02.02-.27.21-.15.11.11-.09-.14.13-.13.13-.07.06-.14.13-.21.2-.14.13-.27.27-.39.42-.06.07-.12.15-.18.22-.16.19.05-.08-.03.04-.17.26-.32.52-.48.77.05.02.11.04.16.06.17.08.35.15.53.24.25.12.46.3.69.47.07.05.14.11.21.16-.34-.26-.01-.01.07.04.66.43 1.37.78 2.09 1.1.02.01 0 0 .01 0l.16.06c.18.06.36.11.55.15.17.05.35.09.53.12.08.01.16.01.24.03-.43-.08-.07-.01.03-.01.16.01.32.01.47.01.08-.01.16-.01.23-.02.11-.01.33.05.12-.01-.19-.05-.01.01.12-.02l.21-.06c.14-.04.27-.09.4-.14.04-.03.16-.08.24-.14.07-.03.13-.08.19-.12l.11-.09c.07-.07.25-.24.28-.28.06-.07.11-.13.17-.19l.04-.04.03-.06c.49-.82.7-1.33.84-2.32.1-.65-.03-1.45-.29-2.02-.27-.59-.79-1.25-1.31-1.76-1.37-1.32-3.07-2.21-4.69-3.18-.81-.48-.18-1.62.67-1.27 3.69 1.53 8.41 3.29 8.48 8.04.04 2.28-.87 4.63-2.73 6-1.58 1.15-3.71 1.29-5.55.86-1.08-.25-2.12-.68-3.03-1.31-.5-.34-1.03-.7-1.46-1.14-.44-.44-.72-1.13-.89-1.73-.34-.17-.52-.46-.58-.84z"/><path id="Path 190" class="shp0" d="M233.87 278.42c1.59-.11 3.1-.06 4.67.19 1.57.24 3.14.52 4.7.78 3.12.53 6.25.96 9.41 1.01 1.44.02 1.52 2.22.07 2.25-3.22.07-6.43-.25-9.61-.66-1.53-.2-3.06-.42-4.58-.63-1.67-.22-3.24-.54-4.86-.95-1.12-.29-.94-1.92.2-1.99z"/><path id="Path 191" class="shp0" d="M227.97 273.08c2.85.04 5.58.9 8.37 1.36 2.43.4 5.34.63 7.58-.6 1.45-.8 2.8 1.28 1.39 2.18-2.61 1.66-5.93 1.81-8.93 1.54-3.16-.28-6.44-.9-8.99-2.92-.61-.49-.17-1.56.58-1.56z"/><path id="Path 192" class="shp0" d="M219.77 263.92c5.4.2 10.52 3.22 15.97 1.8 1.24-.32 1.82 1.52.59 1.91-2.8.89-5.76.84-8.64.46-2.91-.37-5.66-1.08-8.4-2.13-1.01-.38-.56-2.08.48-2.04z"/><path id="Path 193" class="shp0" d="M213.95 256.34c.23-.44.7-.59 1.18-.53 1.2.14 2.39.27 3.57.54 1.24.28 2.46.6 3.7.86 2.4.51 4.81 1.07 7.16 1.76 1.66.5 1.1 3.02-.63 2.65-2.48-.53-5-.78-7.5-1.26-1.23-.23-2.5-.45-3.69-.83-1.34-.44-2.45-1.07-3.58-1.91-.37-.28-.42-.89-.21-1.28z"/><path id="Path 194" class="shp0" d="M212.54 248.19c.37-.62 1.01-.75 1.65-.5l.22.09c-.11-.04-.09-.04.04.01.15.05.29.11.44.16l.9.3c.58.19 1.16.4 1.75.57 1.18.37 2.37.68 3.58.95.52.12.91.7.76 1.23-.16.57-.67.85-1.23.77-1.26-.2-2.52-.43-3.76-.73-1.32-.3-2.58-.71-3.84-1.2-.6-.23-.81-1.12-.51-1.65z"/><path id="Path 195" class="shp0" d="M206.84 242.44c.81-.28 1.7-.37 2.52-.1.43.14.84.29 1.21.54.38.26.73.53 1.05.87.27.3.47.64.48 1.06.01.36-.14.8-.4 1.06-.27.27-.65.48-1.05.48-.38-.01-.8-.11-1.06-.4a5.17 5.17 0 00-.56-.49c-.31-.21-.63-.41-.98-.55l.34.13c-.21-.08-.42-.14-.62-.24l-.09-.04c-.26-.09-.51-.16-.77-.2l-.26-.1a.856.856 0 01-.32-.27 1.05 1.05 0 01-.27-.67c.01-.49.3-.93.78-1.08z"/><path id="Path 196" class="shp0" d="M237.43 230.76c1.88 2.33 10.03 9.79 11.57 3.64.73-2.9-.48-5.55-2.15-7.88-1.96-2.74-4.51-5.07-7.13-7.16-2.64-2.1-5.45-4.06-8.4-5.71-.83-.47-.16-1.71.7-1.31 3.17 1.48 6.13 3.35 8.93 5.44 3.13 2.33 6.16 5 8.4 8.22 1.99 2.86 3.21 6.3 2.15 9.77-1.03 3.37-4.2 4.48-7.41 3.52-3.53-1.05-7.35-3.68-9.21-6.91-.99-1.72 1.35-3.1 2.55-1.62z"/><g id="Group 120"><path id="Path 197" class="shp0" d="M262.02 262.45c.02-.03.06-.06.09-.07l-.05.04-.04.03z"/><path id="Path 198" class="shp0" d="M259.51 262.66c-.08-.03-.02-.04.13.06l-.05-.02-.08-.04z"/><path id="Path 199" class="shp0" d="M252.24 256.02c.06-.82.15-1.63.46-2.4.28-.71.65-1.31 1.09-1.92.58-.82 2.16-.23 2.07.77-.05.53-.09 1.07-.11 1.6-.01.3-.03.59-.07.88 0-.01.01-.02 0 .02l-.01.17c-.01.14-.02.28-.02.42a13 13 0 00.06 1.4c.02.21.05.42.07.62.02.11.04.23.07.34.1.41.23.81.37 1.2.06.16.13.32.19.48.04.09.09.18.14.27.18.34.39.68.63.99.04.05.08.11.12.16.12.13.24.25.36.38.26.25.55.46.83.7-.45-.38-.01-.01.14.08.14.1.28.19.43.27.14.07.28.14.42.2l.03.01c.01.01-.01.01.01.01l.07.03c.03.01.07.02.09.04-.02-.02-.02-.01-.04-.02h.01c.15.04.3.09.45.12.07.01.14.03.2.04h.05c.25 0 .5.01.75-.01.05-.01.1-.02.16-.04.12-.03.24-.08.36-.13h.01c.06-.04.13-.07.19-.11.06-.04.12-.07.17-.11l.04-.03-.02.02.05-.05.01-.01c.09-.05.07-.05.04-.03.09-.08.19-.19.21-.2.06-.06.11-.13.17-.19.03-.04.22-.29.11-.14-.11.15.07-.12.1-.16.05-.08.1-.16.14-.25.05-.09.1-.19.14-.29l.03-.07.02-.07c.15-.48.26-.97.33-1.48l.02-.16.01-.04v-.05l.03-.45c.01-.32.01-.64.01-.96-.02-.74-.1-1.46-.2-2.19-.14-.96 1.52-1.24 1.7-.28.45 2.36.6 4.79-.31 7.06-.59 1.48-1.86 2.64-3.44 2.95-3.79.74-7.3-2.36-8.46-5.77-.39-1.16-.58-2.4-.48-3.62z"/></g></g><g id="Group 123"><path id="Path 200" fill-rule="evenodd" class="shp0" d="M278.05 282.56c7.71 3.93 16.6 4.61 25.1 3.64 6.03-.69 12.03-2.21 17.81-4.42.4-.49.99-.8 1.67-.68 9.39-3.84 18.14-9.5 25.3-16.59 12.26-12.14 22.15-31.97 7.55-46.88-3.71-3.79-8.77-6.05-13.91-7.11-11.01-2.28-22.68.38-33.15 3.88.63-1.66 1.08-3.39 1.39-5.18 8.54-2.69 17.46-4.44 26.32-3.92 11.92.7 23.51 6.17 27.98 17.86 4.17 10.89 2.78 24.73-3.16 34.72-4.56 7.67-11.49 13.55-19.22 17.97 1.76.81 3.37 1.99 4.8 3.27 3.17 2.85 5.83 6.28 8.36 9.71 2.52 3.42 4.86 6.97 7.24 10.5 2.46 3.67 5.17 7.12 7.88 10.61 7.98 10.28 16.01 20.57 24.8 30.18 9.02 9.86 19.12 18.6 28.41 28.2 5.38 5.56 10.57 11.39 16.22 16.69 5.18 4.86 11.22 8.73 16.65 13.28.69.58.44 1.76-.27 2.17-4.55 2.6-7.15 8.81-12.96 9.03-5.1.2-8.22-4.68-10.96-8.22-3.89-5.04-8.21-9.87-12.46-14.61-4.71-5.26-9.81-9.68-15.73-13.54-11.63-7.55-23.2-14.86-32.93-24.84-9.32-9.57-17.35-20.27-24.89-31.26-3.8-5.54-7.38-11.2-11.03-16.84-3.7-5.69-7.75-11.6-13.5-15.39-.1-.06-.15-.14-.23-.22a75.202 75.202 0 01-11.99 3.88c-9.75 2.27-20.29 2.58-29.77-1.02-.9-.34-1.77-.76-2.64-1.18.51-1.19.97-2.42 1.32-3.69zm66.9 25.22c7.09 10.78 14.52 21.39 22.87 31.24 4.12 4.87 8.51 9.46 13.18 13.8 1.28 1.18 2.6 2.32 3.94 3.44-.07-.08-.14-.14-.18-.23-.38-.86-.81-1.69-1.13-2.56-.3-.79-.61-1.57-.93-2.34-.14-.35-.02-.9.16-1.2.19-.33.56-.64.93-.72.4-.09.85-.07 1.21.16l.31.24c.2.2.33.42.4.69.32.76.62 1.53.91 2.3.29.76.45 1.58.64 2.37.16.67-.15 1.35-.79 1.62-.36.15-.83.12-1.21-.08 3.87 3.18 7.94 6.11 12.01 9.01 5.56 3.95 11.49 7.48 16.8 11.77 5.06 4.09 9.6 8.8 13.86 13.7 2.22 2.57 4.47 5.15 6.53 7.85 1.64 2.16 3.16 4.62 5.33 6.3 4.86 3.76 9.22-2.64 13.05-5.91-4.41-3.47-9.22-6.42-13.57-9.97-5.13-4.18-9.58-9.23-14.24-13.92-4.76-4.79-9.55-9.57-14.52-14.16-4.66-4.3-9.51-8.39-13.95-12.94-8.93-9.15-16.98-19.12-24.79-29.22-5.73-7.41-11.25-14.81-16.46-22.58-2.69-4.02-5.46-8.03-8.7-11.64-2.11-2.36-5.2-5.97-8.65-6.18-.36-.03-.64-.15-.9-.3-1.82.87-3.66 1.7-5.51 2.43-2.04.8-4.12 1.44-6.23 2.02 8.66 6.28 13.86 16.24 19.63 25.01z"/><path id="Path 201" class="shp0" d="M346.75 221.43c.48.06.95.21 1.37.44.51.28.89.82 1.22 1.28.53.76.92 1.65 1.15 2.55.49 1.89.28 3.99-.56 5.74-.46.96-2.16.34-1.78-.68.14-.38.25-.75.33-1.14.07-.41.08-.59.08-1.02 0-.19-.01-.39-.02-.59 0 0-.05-.35-.01-.17l-.06-.23c-.09-.4-.2-.8-.34-1.18-.03-.09-.07-.18-.1-.27-.01-.03-.14-.31-.07-.17.06.13-.09-.17-.09-.17-.04-.08-.09-.17-.13-.25-.1-.17-.2-.33-.31-.49-.05-.08-.11-.15-.17-.23-.14-.21.07.07-.03-.05-.2-.22-.4-.44-.61-.66-.04.04-.07.09-.1.14-.12.15-.25.3-.37.44-.18.22-.41.38-.64.55-.07.05-.14.11-.21.16.34-.26.01-.01-.06.06-.59.52-1.12 1.11-1.61 1.72l-.01.01-.09.14c-.11.16-.21.32-.29.48-.1.16-.18.33-.26.49-.03.08-.06.15-.09.22.19-.39.03-.06-.01.04-.04.14-.08.29-.12.45-.02.07-.03.15-.05.22-.02.11-.13.31-.02.12.1-.17 0-.01-.01.12v.23c0 .13.02.27.03.41.02.05.04.18.07.27.02.07.05.15.07.22l.06.13c.04.08.16.3.19.35.05.06.1.13.14.2l.03.05.05.04c.67.7 1.09 1.04 2.01 1.44.61.26 1.4.35 2.03.25.64-.11 1.42-.43 2.04-.8 1.64-.97 2.95-2.38 4.31-3.69.68-.65 1.61.26 1.05.98-2.46 3.17-5.39 7.24-10 6.06-2.21-.56-4.23-2.06-5.06-4.22-.7-1.82-.26-3.91.64-5.58.52-.97 1.21-1.86 2.06-2.58.46-.39.95-.8 1.48-1.1.55-.31 1.28-.4 1.91-.4.25-.28.58-.38.96-.33z"/><path id="Path 202" class="shp0" d="M275.6 252.61c.54-1.52 1.14-3.01 1.77-4.5.59-1.42 1.21-2.83 1.81-4.25.65-1.54 1.37-2.97 2.2-4.43.57-1 2.1-.4 1.87.73-.32 1.56-.76 2.99-1.42 4.45-.65 1.45-1.33 2.88-2 4.33-1.14 2.46-2.17 4.95-3.02 7.53-.38-1.32-.77-2.62-1.21-3.86z"/><path id="Path 203" class="shp0" d="M289.95 235.88c-.78 2.74-2.34 5.14-3.52 7.71-1.02 2.23-2.02 4.98-1.42 7.47.38 1.6-1.98 2.36-2.48.76-.9-2.96-.17-6.2.88-9.02 1.11-2.97 2.58-5.97 5.2-7.89.63-.47 1.55.24 1.34.97z"/><path id="Path 204" class="shp0" d="M300.96 230.39c-1.63 5.15-5.89 9.29-5.97 14.93-.01 1.28-1.94 1.35-1.99.06-.12-2.93.72-5.78 1.84-8.46 1.13-2.71 2.54-5.17 4.27-7.53.65-.88 2.17.01 1.85 1z"/><path id="Path 205" class="shp0" d="M309.81 226.78c.37.34.38.83.2 1.28-.46 1.12-.89 2.23-1.46 3.3-.6 1.12-1.24 2.22-1.82 3.34-1.12 2.18-2.3 4.35-3.59 6.44-.92 1.47-3.19.26-2.38-1.3 1.17-2.26 2.07-4.63 3.19-6.91.55-1.12 1.09-2.29 1.79-3.34.78-1.18 1.67-2.08 2.78-2.94.36-.29.97-.17 1.29.13z"/><path id="Path 206" class="shp0" d="M318.04 227.58c.5.52.45 1.17.05 1.72l-.14.19c.07-.09.06-.08-.03.03l-.27.39c-.18.26-.35.52-.53.79-.34.51-.68 1.01-1.01 1.53-.66 1.04-1.27 2.11-1.86 3.2-.26.47-.92.69-1.39.41-.5-.31-.65-.87-.41-1.39.52-1.16 1.08-2.31 1.69-3.43.64-1.19 1.38-2.3 2.18-3.39.38-.51 1.3-.48 1.72-.05z"/><path id="Path 207" class="shp0" d="M325.1 223.6c.05.85-.1 1.74-.58 2.46-.24.37-.5.73-.84 1.02-.35.29-.7.57-1.11.78-.36.19-.74.28-1.15.19-.35-.09-.73-.34-.91-.67-.2-.34-.3-.76-.19-1.14.1-.36.32-.74.66-.92.22-.11.43-.26.63-.41.28-.24.56-.5.78-.8l-.21.3c.13-.18.25-.37.4-.54l.06-.08c.15-.22.29-.44.39-.68l.17-.23c.1-.11.21-.19.34-.24.22-.1.49-.14.72-.08.47.14.81.54.84 1.04z"/><path id="Path 208" class="shp0" d="M328.27 256.19c-2.74 1.2-12.1 7.09-6.57 10.2 2.6 1.47 5.48 1 8.17.01 3.16-1.17 6.08-3.01 8.79-4.99 2.72-1.98 5.35-4.18 7.72-6.59.68-.68 1.7.3 1.08 1.02-2.27 2.67-4.85 5.02-7.61 7.18-3.07 2.4-6.44 4.61-10.14 5.92-3.28 1.17-6.93 1.44-9.99-.51-2.98-1.88-3.22-5.23-1.44-8.08 1.94-3.12 5.49-6.11 9.1-7.05 1.92-.5 2.63 2.13.89 2.89z"/><g id="Group 122"><path id="Path 209" class="shp0" d="M291.2 271.53c.02.02.04.07.05.1l-.03-.05-.02-.05z"/><path id="Path 210" class="shp0" d="M291.66 269.04c.06-.06.05 0-.08.12l.03-.05.05-.07z"/><path id="Path 211" class="shp0" d="M299.99 263.79c.77.28 1.54.58 2.2 1.08.6.46 1.09.97 1.56 1.56.63.78-.35 2.14-1.29 1.79-.5-.19-1.01-.37-1.52-.53-.28-.08-.55-.19-.83-.29.01 0 .02 0-.02-.01l-.16-.06c-.13-.04-.26-.09-.4-.13-.44-.13-.9-.23-1.36-.31-.21-.03-.41-.07-.62-.1-.12 0-.23-.01-.34-.02-.42-.01-.84.01-1.26.04a4.6 4.6 0 00-.52.06l-.28.06c-.39.09-.77.2-1.13.35l-.19.07c-.15.08-.31.16-.46.25-.31.18-.59.41-.89.61.48-.33.01 0-.12.11s-.25.23-.37.35c-.11.12-.21.23-.31.35l-.02.02-.01.01-.04.06c-.02.03-.04.07-.06.08.01-.01.01-.02.03-.03l-.01.01c-.08.13-.16.26-.23.4-.04.06-.07.12-.1.18l-.01.05c-.06.24-.14.48-.19.72v.17c0 .13.01.25.03.39.02.07.03.14.05.21.02.07.05.14.07.2l.01.04-.02-.02.04.07c.04.1.04.09.03.05.06.1.12.23.14.26.04.07.09.14.14.21.03.04.22.29.1.14-.12-.14.1.11.13.14.06.07.13.14.2.2l.24.21.07.05.05.04c.43.27.87.51 1.34.71l.15.06.05.02.04.02c.14.04.29.09.43.14.3.1.61.19.92.26.71.18 1.43.3 2.16.39.97.12.8 1.79-.18 1.71-2.4-.19-4.77-.68-6.73-2.16-1.26-.96-2.05-2.5-1.93-4.1.29-3.85 4.21-6.42 7.81-6.63 1.21-.08 2.46.07 3.61.49z"/></g></g><g id="Group 125"><path id="Path 212" fill-rule="evenodd" class="shp0" d="M-26.05 170.57c17.75-.05 35.23-3.12 52.86-4.66 8.73-.76 17.51-1.11 26.27-1.19 8.46-.08 17.07-.04 25.5.86 3.19.34 6.33 1.05 9.5 1.56 1.52.24 3.32.49 5.08.47-4.48-2.73-9.91-4.16-14.78-5.68-7.28-2.27-14.08-5.41-21.07-8.43-8.19-3.54-16.54-6.69-24.54-10.65-7.96-3.93-15.68-8.34-23.62-12.3-4.11-2.04-8.25-4.02-12.29-6.17-4.16-2.22-8.48-4.57-12.3-7.34-1.42-1.02-.61-3.29 1.22-2.88 10.88 2.42 20.79 7.89 30.87 12.47 10.75 4.89 21.87 8.92 32.98 12.92 21.56 7.76 42.58 17.72 64.93 23.08 12.16 2.91 24.68 3.82 36.74 7.17.55-.29 1.09-.58 1.64-.85 4.51-3.33 9.34-6.21 14.45-8.49 9.13-4.09 19.42-6.41 29.41-4.69 6.92 1.18 13.68 4.5 18.8 9.44-1.32.59-2.54 1.4-3.63 2.39-3.36-3.15-7.45-5.59-11.8-7.01-8.65-2.81-17.95-1.76-26.48.93-6.88 2.18-13.49 5.54-19.57 9.72.15.8-.44 1.74-1.46 1.45-.15-.04-.31-.07-.46-.12-2.91 2.13-5.64 4.48-8.24 6.98-.22.86-.88 1.55-1.72 1.65-3.07 3.17-5.89 6.57-8.35 10.18-7.91 11.6-13.29 27.91-5.75 39.96.12.05.24.11.36.16.67.24 1.22 1.02 1.02 1.75 1.56 2.02 3.49 3.91 5.93 5.59 4.36 3.01 9.77 4.26 15.01 4.32 11.32.12 22.34-4.78 31.99-10.27 2.72-1.54 5.43-3.18 8.09-4.9-.63 1.83-1.13 3.81-1.35 6.09-9.85 6.16-20.8 11.6-32.39 13.16-5.08.69-10.23.41-15-.89.41.5.55 1.24.03 1.87-3.32 3.96-5.47 8.74-7.8 13.31a76.98 76.98 0 01-3.11 5.54c1.06-.43 2.09-.91 3.07-1.44 3.72-2.02 7.15-4.62 10.35-7.38.75-.65 1.83.39 1.1 1.1-3.29 3.24-6.93 6.18-10.98 8.43-1.73.96-3.65 1.86-5.64 2.42-1.08 1.43-2.3 2.79-3.77 3.72-.67.42-1.41-.4-1.05-1.05.4-.74.88-1.43 1.34-2.14-1.29.02-2.57-.15-3.81-.66-1.06-.44-.67-1.92.48-1.73 1.64.28 3.29.2 4.9-.1.42-.62.84-1.23 1.21-1.88 1.32-2.3 2.52-4.69 3.71-7.06 2.29-4.58 4.65-9.15 8.04-13.03.13-.15.26-.24.4-.31-5.18-1.71-9.81-4.77-13.23-9.46-5.29 6.26-11.56 11.64-17.22 17.57.06.33.01.67-.35.82-.22.09-.45.16-.68.25-1.94 2.09-3.8 4.26-5.49 6.57 2.17-.23 4.33-.54 6.47-.99 5.2-1.07 10.28-2.64 15.1-4.87.85-.4 1.6.84.74 1.28-4.82 2.51-9.94 4.52-15.23 5.81-2.57.62-5.17 1.09-7.8 1.42-2.73.34-5.51.58-8.2-.14-.75-.21-.8-1.4 0-1.58 2.16-.49 4.35-.57 6.55-.71 1.24-1.88 2.6-3.68 4.01-5.43-2.71.85-5.48 1.55-8.24 2.27-2.15.56-4.27 1.14-6.37 1.84-2.01.67-4.03 1.76-6.13 2-.86.11-1.12-1.03-.65-1.57 1.34-1.53 3.63-2.17 5.52-2.76 2.17-.68 4.4-1.15 6.62-1.62 3.8-.8 7.63-1.52 11.34-2.69 1.98-2.29 4.05-4.51 6.16-6.69 3.82-3.95 7.48-7.93 11.02-12.08-.94-.23-1.88-.41-2.81-.55-3.12-.48-6.31-.54-9.47-.57-4.12-.04-8.21-.06-12.31.04-2.56 5.22-3.72 11.6-6.47 16.75.77.25 1.16 1.4.25 1.91-.73.42-1.5.77-2.26 1.16-1.34 1.7-3 3.16-5.14 4.23-.93.47-1.78-.24-1.91-1.01-.17.07-.33.14-.5.21-3.36 1.31-6.77 2.6-10.37 3-.95.1-1.38-1.45-.5-1.84 3.2-1.4 6.6-2.21 9.9-3.37 2.09-.73 4.14-1.59 6.15-2.5 4.3-4.91 5.38-12.3 8.02-18.44-2.51.11-5.01.25-7.53.49-3.85.38-7.71.85-11.57 1.44-.05.17-.13.32-.26.43-3.33 2.81-4.69 6.86-5.92 10.91-.67 2.2-1.35 4.49-2.35 6.6.9-.41 1.8-.77 2.76-1.02 1.08-.28 2.16-.57 3.23-.9 2.12-.67 4.09-1.59 5.89-2.91.73-.53 1.87-.12 2.29.61.5.85.13 1.75-.6 2.29-1.95 1.43-4.18 2.44-6.48 3.18-2.3.74-4.65 1.26-7.08 1.15-.42-.02-.72-.3-.93-.63-.54.86-1.18 1.66-1.95 2.37-.68.63-1.82-.17-1.31-1 2.26-3.67 3.54-7.65 4.88-11.7 1.04-3.15 2.29-6.26 4.4-8.79-7.1 1.23-14.12 2.94-20.94 5.22.24.51.4 1.08.35 1.79-.15 2.35-1.1 4.65-1.94 6.83-.7 1.78-1.45 3.53-2.24 5.26 2.83.06 5.65-.67 8.02-2.24.6-.41 1.48-.12 1.84.48.39.67.11 1.42-.49 1.84a14.803 14.803 0 01-4.79 2.2c-1.77.45-3.66.39-5.46.12-.09-.01-.16-.06-.24-.1-.43.54-1.38.21-1.38-.49-.01-2.17.95-4.25 1.78-6.22.9-2.13 1.86-4.29 2.42-6.55.1-.38.18-.77.22-1.13.03-.41.02-.74-.04-.94-.06-.15.08.05-.09-.16.1.12.03.06-.05-.02-2.67.95-5.3 1.98-7.88 3.13-8.01 3.58-14.8 8.65-21.25 14.53-.45.42-1.04-.2-.67-.67 6.65-8.28 16.01-14.08 25.96-18.14-1.31-.13-2.65-.13-3.92-.14-2.4 0-4.86.24-7.25-.02-1.27-.15-1.3-2.15 0-2.03 4.75.46 9.76-.87 14.41.58.15.05.27.12.41.17 3.55-1.28 7.15-2.36 10.7-3.25 3.16-.79 6.34-1.47 9.52-2.06-5.18-2.17-10.39-4.29-15.6-6.38-.93-.37-.54-1.89.43-1.53 6.43 2.41 12.89 4.6 19.22 7.24 7.52-1.22 15.09-2.01 22.69-2.33l.02-.02c-8.38-3.88-15.9-10.77-25.38-11.49-.95-.07-.94-1.37 0-1.45 10.21-.96 18.6 7.62 27.5 11.19.66.26 1.12.98.8 1.68 3.5-.1 7.01-.12 10.52-.06 4 .08 8.92.02 13.15 1.28-4.83-2.35-9.46-5.13-14.02-7.96-2.7-1.68-5.39-3.37-8.16-4.93-2.86-1.61-5.88-2.92-8.73-4.54-.66-.37-.21-1.35.5-1.19 6.03 1.39 11.69 5.16 16.98 8.26 3.91 2.29 7.79 4.63 11.85 6.61-3.54-9.05-3.84-19.84-.65-28.73.48-1.34 1.05-2.64 1.66-3.91-.17.04-.33.1-.54.09-6.64-.27-13.35 1.41-19.66 3.35-3.31 1.01-6.51 2.25-9.93 2.9-3.42.65-6.94.86-10.32 1.69-1.76.43-3.09 1.07-4.03 2.65-1.13 1.91-1.93 3.99-3.18 5.84-2.95 4.32-6.79 5.33-11.77 4.96-2.55-.19-5.26-.44-7.77.16-1.62.38-2.03.92-2.14 2.52-.26 3.99-.89 8.04-4.64 10.32-4.2 2.57-9.63 1.57-14.29 1.68-5.56.12-10.53 2.9-14.17 7.01-2.15 2.43-3.74 5.31-5.66 7.91-2.26 3.09-4.08 6.51-5.86 9.89-3.23 6.09-5.9 12.41-7.11 19.18 9.13-3.07 17.26-8.77 26.66-11.15 4.54-1.15 9.02-1.4 13.26.77 3.68 1.88 7.09 5.56 11.48 5.61 2.11.03 4.01-1.11 5.94-1.81 2.03-.73 4.27-1.21 6.43-.91 3.31.46 5.71 2.89 8.13 4.96 3.23 2.76 6.45 4.82 10.9 4.25 4.22-.54 8.1-2.55 12.29-3.22 3.38-.54 6.8.12 9.28 2.62 1.94 1.95 2.56 4.52 3.85 6.86 3.25 5.92 13.26-2.35 16.99-4.13 2.89-1.39 6.46-2.64 9.38-.63 1.41.97 2.21 2.47 2.64 4.09.56 2.1.51 4.76 2.95 5.61 3.8 1.31 8.44-.99 11.2-3.47 2.67-2.39 5.23-5.27 8.5-6.87 3.17-1.55 6.18-.37 7.47 2.93.73 1.85.75 4.21 1.99 5.83 2.04 2.63 5.46.93 7.63-.51 5-3.32 8.47-7.35 11.51-12.5 2.73-4.63 5.16-9.39 8.75-13.44.8-.9 2.44.33 1.69 1.3-6 7.85-8.56 17.99-16.38 24.46-3.42 2.83-8.19 6.8-12.9 4.86-3.89-1.61-3.82-5.4-4.8-8.87-1.31-4.69-5.37-.67-7.25 1.28-2.5 2.58-4.91 5.69-8.26 7.22-3.71 1.69-8.93 2.9-12.46.19-1.67-1.28-2.41-3.1-2.79-5.12-.28-1.5-.32-3.86-2.1-4.39-1.42-.42-3.19.49-4.41 1.11-1.96 1-3.79 2.24-5.66 3.4-3.27 2.02-6.66 3.83-10.63 3.86-2.94.03-5.48-1.36-6.77-4.05-1.07-2.27-1.42-5.08-3.27-6.9-2.88-2.85-7.22-1-10.49.1-4.03 1.35-8.39 2.91-12.69 1.95-3.88-.87-6.83-3.59-9.34-6.5-2.63-3.08-5.3-4.73-9.37-3.17-2.49.95-4.62 2.63-7.37 2.83-2.37.17-4.74-.58-6.83-1.64-4.39-2.24-7.68-5.78-12.98-5.43-6.24.42-12.03 3.38-17.49 6.19-5.4 2.78-10.78 5.74-16.65 7.4-1.22.35-2.76-.65-2.64-2.01.58-6.89 3.55-13.25 6.92-19.2 1.8-3.18 3.82-6.22 5.77-9.31 1.8-2.85 3.07-5.94 4.79-8.81 2.9-4.83 6.64-8.84 11.89-11.1 5.18-2.23 10.15-1.46 15.61-1.72 2.48-.12 5.13-.58 6.61-2.79 1.13-1.68 1.25-3.6 1.3-5.55.05-1.6.14-3.26 1.24-4.53 1.33-1.56 3.47-2.01 5.42-2.25 2.71-.33 5.37-.07 8.07-.02 2.15.05 4.09-.19 5.65-1.79 3.09-3.16 3.49-8.38 7.47-10.75 2.77-1.65 6.24-1.81 9.36-2.21 4.28-.55 8.25-1.48 12.36-2.76 7.26-2.28 15.01-4.39 22.68-4.07.96.04 1.54.65 1.75 1.37 3.12-5.61 7.4-10.53 12.27-14.78-2.71-.84-5.69-.95-8.49-.92-4.28.05-8.54.51-12.83.52-11.6 0-23.21.02-34.82-.35-11.7-.38-23.35-.68-35.06-.6-11.52.08-23.17.78-34.65-.18-6.18-.52-12.3-1.45-18.46-2.1-6.42-.69-12.81-.94-19.26-.9-2.71.09-2.7-4.12 0-4.21zm34.25 3.81c11.75 1.41 23.52.64 35.3.04 11.84-.59 23.62-.7 35.47-.27 11.86.42 23.74.39 35.61.38 5.03 0 10.03-.53 15.06-.53 3.99-.01 8.13.37 11.72 2.18 1.8-1.37 3.63-2.68 5.5-3.88.41-.25.83-.48 1.24-.72-9.81-2.35-19.86-3.61-29.73-5.66-11.25-2.34-22.14-5.83-32.92-9.78-10.79-3.97-21.42-8.39-32.25-12.24-10.99-3.91-22.19-7.25-33.01-11.63-7.85-3.18-15.4-7.28-23.19-10.68.06.04.11.08.17.11 3.73 1.99 7.52 3.83 11.31 5.7 7.93 3.89 15.65 8.19 23.56 12.14 8.28 4.14 16.85 7.15 25.5 10.39 7.22 2.7 14.23 5.85 21.6 8.14 6.95 2.15 14.64 4.17 20.16 9.18.88.8.73 2.59-.41 3.12-2.35 1.07-4.83.88-7.34.46-3.06-.52-6.11-1.1-9.15-1.72-7.74-1.57-15.89-1.49-23.76-1.55-18.29-.16-36.24 1.86-54.34 4.26-2.39.31-4.79.63-7.19.93 3.71.59 7.41 1.19 11.09 1.63z"/><path id="Path 213" class="shp0" d="M143.29 233.44c-.48.03-.97-.03-1.43-.18-.55-.17-1.03-.62-1.44-1.01a8.206 8.206 0 01-1.62-2.29 8.672 8.672 0 01-.55-5.74c.27-1.03 2.06-.75 1.88.33-.06.39-.1.78-.1 1.18 0 .41.03.59.11 1.01a5.45 5.45 0 00.19.74c.02.08.05.15.09.22.17.37.35.74.56 1.09.05.08.1.17.15.25.02.02.2.28.11.16-.09-.12.11.15.11.14.06.08.12.15.18.22.13.15.26.29.4.42.07.07.14.13.21.2.18.18-.09-.06.04.04.24.18.48.35.72.53.03-.05.05-.1.08-.15.09-.17.17-.35.27-.51.14-.25.33-.45.52-.65l.18-.21c-.28.32-.01.01.05-.06.48-.63.88-1.31 1.25-2 .01-.02 0 0 .01-.01l.06-.16c.07-.18.14-.35.2-.53l.15-.53c.02-.08.03-.16.05-.24-.11.43-.02.08 0-.03.02-.15.03-.31.03-.46.01-.08.01-.16.01-.24 0-.1.07-.32 0-.11-.07.19 0 .01-.02-.12-.01-.07-.02-.15-.04-.22-.03-.14-.07-.27-.11-.4-.02-.05-.07-.17-.12-.26-.03-.07-.07-.13-.11-.2l-.08-.11c-.06-.08-.22-.27-.26-.31-.06-.06-.12-.11-.18-.17l-.03-.05-.06-.03c-.78-.55-1.27-.8-2.25-1.02-.65-.14-1.44-.08-2.04.14-.61.23-1.3.7-1.84 1.17-1.43 1.27-2.45 2.91-3.54 4.45-.53.76-1.62.05-1.21-.76 1.81-3.58 3.91-8.14 8.66-7.86 2.27.13 4.55 1.21 5.77 3.17 1.04 1.66 1.01 3.79.44 5.6a8.692 8.692 0 01-1.53 2.92c-.38.48-.78.98-1.24 1.37-.48.41-1.18.64-1.8.76-.19.33-.49.48-.88.51z"/><path id="Path 214" class="shp0" d="M207.58 185.32c-.22 2.91-.7 5.79-1.29 8.65-.31 1.51-.65 3.01-.97 4.52-.29 1.38-.68 2.69-1.1 4.02-.15.36-.32.71-.47 1.06-.56.63-1.72.33-1.72-.66.02-1.6.18-3.09.55-4.64.36-1.55.75-3.09 1.13-4.63.76-3.07 1.43-6.15 1.72-9.31.1-1.1 1.42-1.3 1.98-.67.06.57.11 1.13.17 1.66z"/><path id="Path 215" class="shp0" d="M196.28 208.39c.24-2.84 1.31-5.49 1.97-8.24.58-2.39 1.04-5.28-.02-7.61-.69-1.5 1.49-2.69 2.28-1.21 1.45 2.72 1.35 6.05.86 9.01-.51 3.14-1.38 6.36-3.59 8.75-.53.57-1.57.05-1.5-.7z"/><path id="Path 216" class="shp0" d="M186.52 215.88c.61-5.36 4-10.25 3-15.79-.23-1.26 1.65-1.7 1.95-.44.68 2.86.4 5.8-.19 8.65-.6 2.87-1.5 5.56-2.75 8.21-.47.99-2.13.41-2.01-.63z"/><path id="Path 217" class="shp0" d="M178.53 221.12c-.43-.27-.54-.75-.45-1.22.24-1.19.46-2.36.81-3.52.37-1.21.79-2.41 1.14-3.62.69-2.36 1.42-4.71 2.3-7.01.61-1.62 3.08-.87 2.58.82-.71 2.44-1.15 4.94-1.81 7.39-.33 1.21-.63 2.46-1.12 3.62-.53 1.3-1.24 2.37-2.16 3.42-.3.35-.92.35-1.29.12z"/><path id="Path 218" class="shp0" d="M170.3 221.91c-.6-.41-.67-1.06-.38-1.68l.1-.21c-.05.1-.04.09.02-.04.06-.15.13-.29.19-.43.13-.29.25-.58.37-.88.23-.56.48-1.12.7-1.69.45-1.15.85-2.32 1.22-3.5.16-.52.76-.86 1.28-.67.55.2.8.73.67 1.29-.29 1.24-.62 2.47-1 3.69-.41 1.29-.91 2.52-1.5 3.74-.27.58-1.17.72-1.67.38z"/><path id="Path 219" class="shp0" d="M164.13 227.16c-.21-.82-.24-1.72.09-2.52.17-.41.35-.81.63-1.16.29-.36.59-.69.95-.98.31-.26.67-.42 1.09-.4.36.01.78.19 1.02.47.26.3.44.69.41 1.09-.04.37-.18.79-.48 1.03-.2.15-.37.33-.53.52-.24.29-.46.6-.62.93l.15-.33c-.09.2-.17.41-.29.6l-.05.1c-.1.24-.19.48-.25.74l-.12.26c-.07.13-.17.22-.29.3-.2.14-.45.23-.69.21-.49-.04-.9-.37-1.02-.86z"/><path id="Path 220" class="shp0" d="M154.79 195.78c2.45-1.7 10.51-9.27 4.49-11.27-2.84-.94-5.57.07-8.02 1.56-2.88 1.75-5.39 4.12-7.68 6.58s-4.45 5.13-6.31 7.94c-.54.8-1.73.04-1.26-.79 1.71-3.06 3.8-5.86 6.09-8.5 2.57-2.94 5.44-5.77 8.83-7.76 3-1.77 6.52-2.73 9.9-1.41 3.29 1.28 4.16 4.53 2.96 7.66-1.31 3.43-4.23 7.04-7.58 8.65-1.79.87-2.99-1.57-1.42-2.66z"/><g id="Group 124"><path id="Path 221" class="shp0" d="M188.23 173.64a.705.705 0 01-.07-.09l.05.05.02.04z"/><path id="Path 222" class="shp0" d="M188.25 176.16c-.04.08-.04.01.06-.12l-.02.04-.04.08z"/><path id="Path 223" class="shp0" d="M181.09 182.91c-.82-.12-1.62-.27-2.37-.64-.68-.33-1.26-.74-1.83-1.23-.77-.64-.07-2.17.92-2 .53.09 1.06.17 1.59.23.29.03.59.07.87.13 0 0-.01-.01.02 0l.17.03c.14.02.28.03.42.05.47.05.93.05 1.4.04.21-.01.42-.01.63-.02.11-.02.22-.03.34-.05a9.647 9.647 0 001.72-.43c.09-.04.18-.07.27-.11.36-.16.71-.35 1.04-.56l.17-.11c.13-.11.27-.22.4-.33.28-.24.51-.52.77-.77-.42.41-.01 0 .09-.13l.3-.42c.08-.13.16-.27.23-.4l.01-.03c.01-.01.01.01.01-.01l.03-.07c.02-.03.03-.06.05-.08-.02.01-.01.02-.03.04l.01-.01c.06-.15.11-.3.15-.45.02-.06.04-.13.06-.19l.01-.05c.01-.25.04-.49.04-.75-.01-.05-.01-.1-.03-.16a2.54 2.54 0 00-.1-.37v-.01c-.04-.07-.06-.13-.1-.2-.03-.06-.06-.12-.1-.18l-.02-.03.02.01-.04-.05-.01-.01c-.05-.09-.05-.08-.04-.04a2.7 2.7 0 00-.18-.23 2.81 2.81 0 01-.17-.18c-.04-.03-.28-.24-.14-.12.15.12-.11-.09-.15-.12-.08-.05-.15-.1-.23-.15-.09-.06-.19-.11-.28-.16l-.08-.03-.06-.03c-.47-.19-.95-.34-1.45-.44l-.16-.04-.05-.01h-.04c-.15-.02-.3-.05-.45-.07-.32-.03-.64-.06-.96-.08-.73-.03-1.46-.01-2.19.04-.97.06-1.13-1.61-.15-1.72 2.39-.27 4.82-.24 7.01.84 1.43.7 2.5 2.06 2.69 3.66.45 3.82-2.9 7.1-6.39 8-1.18.3-2.44.39-3.64.2z"/></g></g><g id="Group 129"><g id="Group 127"><path id="Path 224" class="shp0" d="M269.75 235.64c.03.04.08.08.12.13.01.01.02.04.03.05l-.15-.18z"/><g id="Group 126"><path id="Path 225" class="shp0" d="M269.93 235.86l.07.06v.03l-.07-.09z"/><path id="Path 226" class="shp0" d="M205.73 171.53c5.57-10.24 16.99-18.19 28.44-20.16 12.54-2.17 25.47 1.62 36.49 7.48 2.05 1.09 4 2.33 5.91 3.64 3.95 1.76 7.75 3.83 11.35 6.2-1.27-2.73-2.99-5.13-4.83-7.52-3.94-5.14-7.24-10.17-8.73-16.57-1.41-6.12-2.18-11.97-6.03-17.15-3.22-4.34-6.8-8.18-7.9-13.66-1.31-6.54 0-13.26-1.28-19.79-1.18-6-4.6-11.4-6.61-17.14-2.16-6.16-1.85-12.45-1.71-18.89.15-6.79.18-13.59-1.01-20.31-1.11-6.27-3.02-12.37-5.88-18.06-2.93-5.85-6.92-10.93-10.33-16.47-.96-1.54.61-2.96 2.11-2.75 4.01.55 7.7 2.21 11.28 4.03 3.79 1.93 7.57 3.67 11.6 5.05 3.86 1.32 7.79 2.41 11.67 3.65 3.28 1.04 6.78 2.11 9.63 4.11 4.87 3.42 7.51 8.77 10.57 13.69 1.61 2.59 3.38 5.7 6.03 7.36 2.42 1.51 5.42.69 8.1 1.18 5.69 1.04 8.89 6.23 11.03 11.14 2.33 5.35 3.92 11.04 6.99 16.05.48.77 1 1.64 1.77 2.15.7.46 1.45.47 2.27.61 1.05.18 1.95.54 2.7 1.31.94.97 1.56 2.27 2.1 3.49 1.6 3.62 2.71 7.46 3.87 11.24 1.36 4.42 2.4 9 4.29 13.23.62 1.38 1.32 2.94 2.49 3.88.19.15.3.25.53.18.08-.04.23-.1.24-.11.32-.22.39-.25.68-.54 1.01-.97 2.33-.6 3.1.4 3.6 4.67 2.88 11.04 1.68 16.41-1 4.51-2.82 9.03-3.55 13.64 1.03-.27 2.1-.16 3.07.68 1.93 1.69 2.49 4.88 2.58 7.29.2 5.69-3.65 10.8-5.12 16.11-.63 2.29-1.19 6.1 1.25 7.6 2.15 1.31 4.98.96 5.73 4 .61 2.46-.94 5.2-2.08 7.27-1.71 3.08-3.43 6.15-5.37 9.09-4.9 7.43-10.77 14.21-15.12 22 .18.25.34.52.49.82.61 1.23-1.17 2.3-1.85 1.09-.19-.41-.45-.75-.79-1.03-.38-.37-.39-.91-.18-1.35 5.75-12.08 15.21-21.78 21.4-33.57.5-.95 1.35-2.51 1.02-3.64-.4-1.35-2.07-1.48-3.2-1.87-2.05-.69-3.37-2.07-4.04-4.14-1.45-4.45 1.21-9.31 2.95-13.29 1.13-2.58 2.47-5.35 2.65-8.21.1-1.47-.15-3.01-.67-4.4-.21-.57-.64-1.72-1.34-1.82-.67-.1-1.64 1.45-1.96 1.89-1.03 1.37-3.26.98-3.33-.91-.2-5.46 1.75-10.86 3.07-16.08 1.14-4.51 2.24-9.54.28-13.85-5.29 2.06-8.47-6.8-9.82-11.02-1.37-4.3-2.38-8.67-3.49-13.04-.49-1.93-1-3.85-1.65-5.74-.42-1.22-.87-2.82-1.76-3.81-.77-.85-1.85-.71-2.9-.94-1.5-.33-2.47-1.26-3.38-2.45-1.93-2.52-3.28-5.62-4.55-8.51-2.28-5.17-3.65-11.29-7.49-15.6-2.07-2.32-4.62-3.21-7.68-3.28-2.87-.07-5.25-.44-7.57-2.28-4.78-3.8-7.23-9.77-10.6-14.69-2-2.91-4.4-5.43-7.62-6.96-4.29-2.03-8.97-3.39-13.53-4.66-4.46-1.24-8.88-2.59-13.11-4.48-3.15-1.41-6.29-3.16-9.62-4.07 5.49 7.72 9.54 16.8 11.84 25.86a87.4 87.4 0 012.67 19.31c.16 6.51-.57 13.24.25 19.71.79 6.25 4.17 11.64 6.64 17.3 1.31 3 2.22 5.97 2.62 9.23.41 3.33.32 6.69.44 10.04.1 3.13.33 6.43 1.55 9.37 1.02 2.47 2.67 4.64 4.31 6.73 1.63 2.08 3.33 4.16 4.56 6.51 1.44 2.74 2.25 5.73 2.87 8.73.73 3.54 1.23 7.16 2.52 10.55 1.31 3.41 3.46 6.45 5.54 9.42 2.02 2.9 4.12 5.74 5.53 9.01.82 1.91 1.46 3.88 2.09 5.84 7.29 5.75 13.59 13.06 16.76 21.88a36.607 36.607 0 011.98 15.64c2.08-5.26 2.79-10.71 3.37-16.32.54-5.18 1.39-10.31 1.97-15.49-4.03-9.45-11.44-16.69-18.62-24.02-.02-.01-.04-.01-.06-.02-3.34-3.41-7-6.48-10.52-9.71-.64-.59.33-1.57.96-.96.68.65 1.36 1.28 2.04 1.92.13-.21.37-.33.62-.14 3 2.27 5.84 4.75 8.69 7.19 3.18 2.71 6.39 5.37 9.22 8.45 3.05 3.32 5.86 6.88 8.17 10.72.54-9.64.04-19.31-1.15-28.89-.73.21-1.58 0-1.72-.88-1.29-8.06-8.05-14.2-13.34-19.97-2.91-3.17-5.92-6.25-9.02-9.22-.23.25-.58.39-.9.16-3.85-2.74-7.8-5.31-11.81-7.79-3.95-2.45-8.05-4.78-11.58-7.82-.86-.73.23-1.84 1.11-1.45 4.3 1.93 8.21 4.73 12.04 7.46.94.66 1.85 1.35 2.78 2.03-.58-.48-1.13-.98-1.72-1.45-1.1-.88.34-2.76 1.52-1.96 7.78 5.23 14.25 12.26 20.46 19.22 2.74 3.08 5.52 6.15 8.02 9.43 1.08 1.41 2.16 2.97 3.07 4.6-1.66-10.39-4.21-20.64-7.76-30.55-5.41-5.06-10.45-10.56-16.46-14.93-2.47-1.79-5.16-3.38-7.84-4.98-.02.15-.06.3-.15.45-.34.57-1.2.87-1.79.47-4.25-2.93-9.11-4.82-13-8.27-.55-.48-.5-1.41 0-1.9.56-.57 1.33-.45 1.9 0 .77.62 1.6 1.17 2.43 1.71-.22-.2-.45-.39-.66-.6-.81-.82.26-2.33 1.27-1.65 3.27 2.21 6.45 4.46 9.85 6.47 3.49 2.07 7 4.12 10.26 6.55 4.26 3.18 8.07 6.88 11.89 10.57-2.35-5.72-5.08-11.28-8.09-16.69-.16-.08-.33-.15-.44-.35-5.48-9.45-15.16-14.74-24.26-20.43-.51.32-1.15.37-1.74.06-1.12-.58-2.14-1.28-3.12-2.05a14.7 14.7 0 01-1.25-1.12c-.26-.28-.54-.56-.74-.89-.15-.24-.29-.5-.43-.75-.03-.05-.01-.12-.03-.17-.13-.1-.28-.19-.41-.29-.93-.71-.1-2.28.94-1.62l.21.13c.38-.15.82-.17 1.17.08.22.15.44.3.67.45.33.21.6.47.89.73.34.29.69.57 1.04.85.87.66 1.79 1.24 2.76 1.74.24.12.41.32.55.54 3.7 2.27 7.4 4.55 10.96 7.03 2.36 1.65 4.64 3.43 6.79 5.35-1.37-2.16-2.75-4.32-4.17-6.45-3.65-5.44-7.57-10.7-11.39-16.02-3.53-4.9-7-9.82-11.95-13.4-.44-.32-.19-1.19.41-.96 4.62 1.81 8.04 6.25 11.02 10.04 3.42 4.35 6.54 9.04 9.69 13.59 4.24 6.13 8.25 12.47 11.98 18.98-.46-4.69-1.43-9.38-2.05-14-.8-5.88-1.36-11.76-1.2-17.7.02-.61.94-.61.95 0 .11 6.05.9 12.08 1.82 18.05.9 5.78 1.6 11.69 2.86 17.4.03.16-.04.29-.06.42 2.22 4.07 4.36 8.17 6.29 12.36 1.21 2.62 2.31 5.3 3.37 7.98.28.27.57.53.85.8.78-6.3 1.22-12.52 1.1-18.92-.12-7.11-.47-14.21-.39-21.32.01-.58.89-.58.9 0 .11 7.36.68 14.71 1 22.07.3 7.09.82 14.46-.16 21.51-.1.75-.78 1.02-1.43.98 2.78 7.84 5.04 15.86 6.84 23.98.14.59.25 1.17.38 1.76.21-1.32.39-2.64.52-3.89.47-4.36.59-8.76.85-13.14.51-8.16 1.55-16.5 5.93-23.6.5-.82 1.79-.08 1.3.77-4.47 7.59-5.01 16.49-5.38 25.09-.17 4.15-.33 8.3-.72 12.45-.25 2.68-.77 5.23-1.39 7.77 2.05 10.6 3.38 21.42 3.12 32.18-.02.97-.1 1.92-.16 2.87.73-1.91 1.46-3.82 2.12-5.75 1.44-4.17 2.52-8.42 3.47-12.72 1.8-8.1 3.36-16.58 7.71-23.78.31-.53 1.08-.07.81.47-3.78 7.67-5.01 16.23-6.52 24.56-1.62 9.03-4.2 17.76-7.19 26.43-.24.68-.8 1.03-1.4 1.15-.4 3.09-.83 6.19-1.21 9.3-.81 6.57-1.24 13.67-4.56 19.55-.74 1.3-2.74.85-3.17-.3-.69 5.01-2.44 9.85-5.48 13.93-7.1 9.52-19.18 12.68-30.59 12.45-.04.11-.02.23-.08.33-.4.56-1.25.83-1.88.45-.53-.32-1.02-.71-1.52-1.08-.48-.35-.95-.71-1.42-1.07-.17-.13-.3-.3-.47-.49-.01-.02-.03-.05-.01-.04-.04-.04-.08-.07-.11-.11-.35-.38-.53-.88-.41-1.4.11-.52.53-.94 1.03-1.1.82-.26 1.63.31 2.22.84-.21-.3-.4-.61-.63-.9 9.01.79 18.67-.37 25.83-5.78 8.44-6.38 11.24-17.89 9.19-27.95-5.08-25.02-36.28-40.6-59.43-42.53-17.19-1.43-38.69 3.95-40.54 24.73-.47 5.29 1.11 10.6 3.64 15.2.18.33.41.64.6.97-1.46.37-2.89.9-4.29 1.57-4.81-8.62-6.33-18.73-1.35-27.89z"/></g></g><path id="Path 227" class="shp0" d="M215.69 185.85c-.26-.4-.45-.86-.55-1.33-.12-.56.04-1.21.18-1.75.24-.9.66-1.78 1.19-2.54a8.593 8.593 0 014.73-3.3c1.03-.28 1.66 1.42.63 1.79-.37.14-.73.3-1.07.5-.36.2-.51.31-.83.59-.15.13-.29.26-.43.4 0 .01-.25.27-.12.12-.05.07-.1.13-.15.19-.23.33-.47.68-.67 1.03-.05.09-.1.17-.14.26-.01.02-.15.3-.09.16.07-.13-.07.18-.07.17-.03.09-.07.18-.1.27-.06.18-.12.37-.17.55-.02.09-.04.19-.07.28-.06.24.01-.1-.01.05-.04.3-.07.6-.11.9.06 0 .11-.01.17-.01.19-.01.39-.02.58-.02.28.01.55.07.83.14.08.02.17.03.26.05-.41-.09-.02 0 .08.01.78.11 1.57.12 2.36.1h.01l.17-.02c.19-.02.37-.05.56-.08.18-.04.36-.08.53-.14l.23-.06c-.43.11-.07.02.03-.02.14-.06.28-.13.42-.2.07-.04.14-.08.21-.11.09-.06.31-.1.1-.06-.2.04-.01.01.09-.07l.18-.15c.1-.09.19-.19.29-.3.03-.03.11-.14.16-.22.04-.06.08-.13.12-.19l.07-.13c.03-.09.11-.33.13-.38.02-.07.04-.16.07-.24l.01-.05c0-.02 0-.02.01-.07.09-.95.07-1.5-.22-2.45-.2-.64-.65-1.3-1.13-1.71-.5-.42-1.25-.8-1.93-1.03-1.8-.62-3.73-.7-5.61-.88-.93-.1-.84-1.39.07-1.43 4-.19 9.01-.61 11.1 3.66 1 2.04 1.18 4.55.08 6.59-.93 1.71-2.8 2.74-4.65 3.14-1.09.23-2.21.28-3.3.11-.6-.1-1.23-.2-1.8-.41-.6-.22-1.14-.72-1.55-1.2-.38 0-.67-.19-.88-.51z"/><path id="Path 228" class="shp0" d="M271.19 221.94c1.4-.77 2.78-1.37 4.31-1.81 1.53-.45 3.06-.87 4.59-1.3 3.04-.85 6.06-1.78 8.94-3.08 1.31-.6 2.33 1.36 1.02 2-2.89 1.44-5.92 2.51-8.98 3.5-1.47.47-2.94.91-4.41 1.38-1.6.51-3.15.89-4.8 1.2-1.14.22-1.67-1.33-.67-1.89z"/><path id="Path 229" class="shp0" d="M263.59 219.63c2.59-1.18 5.43-1.56 8.15-2.34 2.36-.67 5.1-1.7 6.6-3.76.97-1.34 3.08-.04 2.18 1.38-1.65 2.6-4.6 4.16-7.42 5.19-2.98 1.1-6.21 1.93-9.38 1.19-.76-.18-.82-1.34-.13-1.66z"/><path id="Path 230" class="shp0" d="M253.81 214.28c4.61-1.48 9.78-1.38 13.68-4.62.98-.82 2.29.6 1.34 1.48-2.15 2-4.86 3.21-7.62 4.1-1.72.55-3.44.92-5.17 1.2-.73-.74-1.46-1.46-2.23-2.16z"/><path id="Path 231" class="shp0" d="M250.36 211.38c-1.15-.9-2.31-1.78-3.49-2.62.4-.12.79-.24 1.2-.33 1.24-.27 2.48-.5 3.72-.79 2.38-.56 4.8-1.08 7.22-1.45 1.72-.26 2.28 2.25.56 2.65-2.47.58-4.86 1.43-7.32 2.06-.62.17-1.25.33-1.89.48z"/><path id="Path 232" class="shp0" d="M254.13 177.31c2.69 1.3 13.24 4.58 12.02-1.64-.58-2.93-2.81-4.81-5.3-6.21-2.95-1.65-6.24-2.67-9.51-3.44-3.28-.78-6.66-1.35-10.02-1.59-.96-.07-.88-1.48.07-1.49 3.5 0 6.97.43 10.4 1.12 3.82.78 7.69 1.9 11.09 3.86 3.02 1.74 5.59 4.34 6.11 7.93.5 3.49-1.89 5.85-5.21 6.34-3.63.55-8.21-.2-11.27-2.33-1.63-1.14-.1-3.38 1.62-2.55z"/><g id="Group 128"><path id="Path 233" class="shp0" d="M289.87 195.51c0-.03.03-.07.05-.1l-.03.06-.02.04z"/><path id="Path 234" class="shp0" d="M287.69 196.78c-.1 0-.04-.04.14-.01h-.06l-.08.01z"/><path id="Path 235" class="shp0" d="M278.28 193.86c-.29-.77-.56-1.54-.61-2.37-.04-.76.04-1.46.17-2.2.19-.99 1.86-1.13 2.2-.18.18.5.37 1 .58 1.49.13.27.23.55.32.82 0 0 0-.02.01.02l.06.16c.05.13.1.26.16.39.19.43.41.84.65 1.24.11.18.22.36.33.53.07.1.14.19.21.28.26.33.54.63.84.93.12.12.25.24.38.36.08.06.15.12.23.18.32.23.65.44 1 .62l.18.09c.16.07.32.14.49.2.34.12.69.18 1.04.28-.56-.16-.01 0 .16.02s.34.04.51.05c.16.01.31.01.47.01h.04l.07-.01c.04 0 .08-.01.1 0-.02-.01-.02 0-.04 0 .16-.03.32-.05.47-.09.06-.01.13-.03.2-.05l.04-.01c.22-.11.45-.21.67-.33.05-.04.09-.07.13-.11.1-.08.18-.18.28-.27.04-.06.08-.13.13-.19.03-.05.07-.11.1-.17l.02-.04v.03l.02-.07.01-.01c.05-.09.04-.08.02-.05.04-.11.1-.25.11-.27l.06-.24c.02-.05.08-.36.05-.18-.04.18.01-.14.02-.19.01-.09.02-.18.02-.28.01-.1.01-.21 0-.32v-.08l-.01-.07c-.07-.5-.18-.99-.33-1.47l-.05-.16-.02-.05-.01-.04c-.06-.14-.11-.28-.17-.42-.12-.3-.26-.59-.4-.87-.33-.66-.71-1.28-1.11-1.9-.53-.81.84-1.77 1.42-.97 1.41 1.94 2.58 4.07 2.73 6.52.09 1.58-.57 3.18-1.87 4.13-3.11 2.28-7.61.98-10.11-1.62-.84-.88-1.54-1.93-1.97-3.07z"/></g></g></g><path id="Path 236" class="shp0" d="M284.14 132.48c6.37 3.79 13.44 6.38 19.59 10.53.93.63.08 2.13-.89 1.52-6.3-3.96-13.74-5.83-19.73-10.28-1.03-.77-.13-2.46 1.03-1.77z"/><path id="Path 237" class="shp0" d="M281.14 122.85c3.8 1.77 7.39 3.87 10.93 6.13 1.77 1.13 3.51 2.3 5.17 3.58 1.29.99 2.75 2.04 3.68 3.38.34.5-.35 1.21-.84.85-1.31-.98-2.52-2.04-3.88-2.95-1.75-1.17-3.54-2.28-5.36-3.35-3.51-2.08-7.11-3.99-10.5-6.27-.86-.57-.13-1.8.8-1.37z"/><path id="Path 238" class="shp0" d="M279.92 117.75c5.85 3.15 11.54 6.59 17.32 9.86.73.41.09 1.48-.64 1.11-5.92-3-12.02-5.83-17.36-9.8-.69-.51-.1-1.59.68-1.17z"/><path id="Path 239" class="shp0" d="M271.96 105.97c7.22 4.07 14.2 8.59 20.75 13.68.53.41-.16 1.3-.71.93-6.82-4.62-14.16-8.39-20.98-13-.99-.67-.12-2.21.94-1.61z"/><path id="Path 240" class="shp0" d="M269.09 84.54c1.54.89 3.12 1.7 4.61 2.68 1.44.95 2.91 1.88 4.37 2.79 2.97 1.86 5.97 3.67 8.9 5.59.96.62.1 2.13-.9 1.54-3.07-1.79-6.2-3.49-9.3-5.22-1.56-.87-3.11-1.76-4.65-2.67-1.51-.9-2.86-2.05-4.22-3.17-.88-.72.25-2.09 1.19-1.54z"/><path id="Path 241" class="shp0" d="M266.3 64.56c2.88 2.37 6.21 4.14 9.04 6.57.54.47.51 1.45 0 1.92-.57.52-1.35.5-1.92 0-.74-.65-1.21-1-2.03-1.58-.78-.56-1.58-1.09-2.36-1.65-1.63-1.16-3.1-2.44-4.05-4.24-.47-.88.6-1.62 1.32-1.02z"/><g id="Group 131"><path id="Path 242" class="shp0" d="M261.11 46.02c.08.01.16.01.24.03.04 0 .08.01.11.01l-.35-.04z"/><path id="Path 243" class="shp0" d="M260.07 44.64c.04-.1.08-.19.12-.29.08-.2.19-.35.34-.52.25-.29.55-.5.91-.62.38-.13.8-.19 1.2-.17.52.02 1.04.19 1.49.45.24.14.46.32.66.49.13.11.24.23.34.36.2.21.34.45.42.72l.06.44c.03.51-.25.98-.64 1.29-.37.28-.76.38-1.22.32-.21-.01-.41-.08-.6-.19-.23-.14-.41-.33-.55-.56l.11.15c-.09-.11-.19-.2-.29-.29l-.06-.04c-.07-.02-.13-.04-.2-.05-.08-.01-.16-.02-.24-.01-.19.02-.38-.03-.57-.07-.13-.02-.26-.02-.38-.06a3.25 3.25 0 00-.17-.06c-.51-.16-.92-.73-.73-1.29z"/></g><path id="Path 244" class="shp0" d="M342.96 287.73c1.89 3.2 3.15 6.73 4.08 10.32.92 3.59 1.71 7.33 1.74 11.04 0 1.1-1.69 1.37-1.94.26-.79-3.48-1.15-7.04-1.99-10.51-.85-3.48-2-6.89-3.79-10-.71-1.23 1.18-2.33 1.9-1.11z"/><path id="Path 245" class="shp0" d="M351.87 298.69c.04 3.95.48 7.92 1.34 11.77.45 2 .99 4 1.75 5.9.65 1.66 1.45 3.42 2.43 4.91.71 1.08-.81 2.04-1.69 1.3-3.24-2.71-4.4-7.21-5.16-11.2-.79-4.17-1.15-8.45-1.05-12.68.04-1.53 2.37-1.54 2.38 0z"/><path id="Path 246" class="shp0" d="M359.98 312.23c1.5 5.73 2.51 11.65 6.05 16.57.69.97-.82 2.09-1.63 1.26-4.52-4.65-5.32-11.14-6.83-17.16-.4-1.57 2-2.24 2.41-.67z"/><path id="Path 247" class="shp0" d="M364.53 320.77c.51-.3 1.37-.16 1.64.43.97 2.12 1.54 4.37 2.21 6.59.62 2.08 1.36 4.24 2.74 5.95.38.47.46 1.12 0 1.57-.4.41-1.17.46-1.57 0-3.24-3.66-3.48-8.61-5.46-12.89-.27-.59-.16-1.3.44-1.65z"/><path id="Path 248" class="shp0" d="M374.59 328.56c.74-.17 1.51.22 1.72.97.59 2.13 1.14 4.24 1.59 6.4.14.64-.19 1.39-.87 1.54-.68.16-1.34-.2-1.55-.88-.63-2.1-1.23-4.21-1.87-6.31-.2-.71.26-1.56.98-1.72z"/><path id="Path 249" class="shp0" d="M141.53 273.6c5.45-3.15 11.68-5.99 15.13-11.36 2.38-4.84 4.61-9.76 6.68-14.75.6-1.45 2.87-.94 2.42.66-1.58 5.54-3.98 10.81-6.48 15.98-1.08 2.25-2.16 4.49-3.28 6.73 3.77-2.6 6.83-6.06 8.83-10.25.24-.5.94-.63 1.39-.37.5.3.59.89.36 1.38-2.52 5.49-6.91 10.26-12.43 12.78-.95 1.78-1.93 3.54-3 5.25-.71 1.12-2.7.41-2.23-.94 1.3-3.71 3.05-7.21 4.84-10.7-3.25 3.09-7.33 5.47-11.29 7.21-1.07.47-2-1-.94-1.62z"/><path id="Path 250" class="shp0" d="M134.55 270.64c2.99-1.88 5.97-3.79 8.74-5.98 2.78-2.19 5.39-4.58 7.93-7.04.8-.77 1.99.42 1.22 1.21-5.02 5.15-10.43 10.24-16.85 13.57-1.17.61-2.16-1.06-1.04-1.76z"/><path id="Path 251" class="shp0" d="M112.29 267.19c3.5-1.34 6.99-2.51 10.26-4.39 3.31-1.9 6.41-4.13 9.11-6.83.67-.66 1.66.34 1.03 1.04-2.68 2.96-5.85 5.54-9.25 7.63-3.28 2.02-7.01 4.06-10.92 4.31-1.07.06-1.12-1.43-.23-1.76z"/></g></svg>