<svg version="1.2" baseProfile="tiny-ps" xmlns="http://www.w3.org/2000/svg" width="750" height="568"><style>.shp0{fill:#3e2401}</style><g id="Group 132" opacity=".388"><g id="Group 130"><g id="Group 121"><path id="Path 188" fill-rule="evenodd" class="shp0" d="M358.69 367.84c2.08-5.12 3.8-10.41 5.22-15.75 1.98-7.48 2.88-15.49 6.73-22.23-.06-.21-.12-.42-.17-.63-4.28-20.18-.45-42 16.98-54.79 16.25-11.94 39.97-15.95 59.32-10.61 21.2 5.84 38.64 21.27 51.56 38.55 2.41 3.21 4.55 6.59 6.57 10.04 6.33 7.33 11.92 15.29 16.51 23.79 8.23 15.22 13.57 32.64 11.91 50.09-1.75 18.46-12 37.09-28.72 46.01-19.23 10.27-41.99 5.2-60.27-4.67-18.53-10.03-32.5-25-45.02-41.64-11.49-15.26-22.15-32.38-27.35-50.98-2.18 6.58-2.49 13.91-4.22 20.53-1.36 5.23-2.99 10.38-5 15.4-1.94 4.88-4.07 9.84-7.69 13.72-1.12 1.2-3.11-.06-2.69-1.57 1.43-5.31 4.26-10.17 6.33-15.26zm18-50.07c1.25 19.53 11.13 37.88 21.83 53.81 10.28 15.29 22.02 30.29 36.91 41.34 15.14 11.24 35.78 20.82 55.06 16.76 17.89-3.77 30.74-19.71 34.95-36.95 3.72-15.27.71-31.16-5.05-45.51-10.67-26.6-31.42-50.2-56.62-64.73-25.83-14.89-63.4-22.3-81.59 8.85-4.63 7.92-6.08 17.39-5.49 26.43z"/><path id="Path 189" class="shp0" d="M392.5 304.16c-.12-.83-.07-1.68.12-2.49.22-.98.95-1.86 1.57-2.61 1.03-1.24 2.34-2.3 3.73-3.09 2.92-1.67 6.52-2.29 9.82-1.68 1.81.32 1.56 3.44-.33 3.27-.68-.07-1.36-.08-2.04-.02-.71.06-1.02.12-1.73.32-.33.09-.65.19-.98.31 0 0-.57.24-.27.1-.13.06-.25.13-.36.19-.62.34-1.24.71-1.81 1.11l-.42.3c-.04.03-.45.37-.25.2.19-.16-.24.22-.23.21-.13.11-.25.23-.37.35-.23.23-.45.47-.66.73-.11.12-.21.26-.31.38-.28.34.08-.15-.07.07-.29.44-.55.89-.82 1.33.09.04.18.07.27.11.3.13.62.26.92.4.44.21.8.52 1.19.81.12.1.25.19.37.29-.59-.45-.02-.03.12.07 1.14.74 2.37 1.35 3.61 1.9.03.01 0 0 .02 0l.28.1c.31.1.62.19.94.27.3.07.62.14.93.19.13.02.27.03.41.06-.75-.14-.12-.02.06-.01.26.01.53.01.81 0 .13 0 .26-.01.39-.02.19-.02.57.09.21-.01-.33-.1-.03 0 .19-.05.13-.03.26-.06.38-.1.24-.07.46-.16.68-.25a5.013 5.013 0 00.75-.45l.2-.15c.11-.12.42-.42.48-.49.1-.11.19-.22.28-.33l.07-.06.05-.11c.86-1.42 1.22-2.29 1.47-4 .16-1.13-.06-2.5-.51-3.5-.47-1.02-1.36-2.16-2.26-3.03-2.37-2.29-5.32-3.83-8.12-5.51-1.39-.83-.3-2.79 1.16-2.19 6.39 2.65 14.54 5.68 14.67 13.9.06 3.94-1.51 8-4.73 10.36-2.72 2-6.4 2.23-9.59 1.5-1.87-.44-3.65-1.19-5.23-2.27-.87-.59-1.78-1.21-2.53-1.97-.76-.77-1.25-1.94-1.53-3-.59-.29-.9-.78-1-1.44z"/><path id="Path 190" class="shp0" d="M452.74 401.44c2.76-.19 5.36-.1 8.08.33 2.71.43 5.42.9 8.12 1.36 5.39.9 10.79 1.66 16.26 1.74 2.49.04 2.63 3.84.12 3.9-5.57.1-11.11-.45-16.62-1.16-2.64-.34-5.27-.72-7.91-1.07-2.87-.39-5.59-.94-8.4-1.65-1.93-.5-1.62-3.32.35-3.45z"/><path id="Path 191" class="shp0" d="M442.55 392.22c4.93.06 9.64 1.56 14.47 2.35 4.19.68 9.23 1.09 13.09-1.04 2.51-1.37 4.85 2.22 2.4 3.77-4.51 2.86-10.25 3.12-15.43 2.66-5.46-.48-11.13-1.55-15.53-5.05-1.06-.84-.3-2.7 1-2.69z"/><path id="Path 192" class="shp0" d="M428.38 376.38c9.32.36 18.18 5.57 27.6 3.12 2.14-.55 3.15 2.62 1.02 3.3-4.84 1.54-9.96 1.45-14.94.8-5.03-.65-9.78-1.87-14.51-3.68-1.76-.67-.97-3.61.83-3.54z"/><path id="Path 193" class="shp0" d="M418.31 363.29c.4-.77 1.22-1.03 2.04-.93 2.08.25 4.13.47 6.18.94 2.14.48 4.25 1.03 6.39 1.49 4.14.87 8.31 1.84 12.37 3.05 2.87.85 1.9 5.2-1.08 4.56-4.29-.91-8.65-1.34-12.96-2.16-2.14-.41-4.33-.78-6.39-1.45-2.32-.76-4.24-1.84-6.17-3.29-.65-.48-.73-1.54-.38-2.21z"/><path id="Path 194" class="shp0" d="M415.88 349.21c.63-1.08 1.75-1.3 2.84-.87l.38.14c-.18-.07-.15-.06.07.02.26.1.52.19.77.28.52.18 1.04.35 1.55.52 1.01.34 2.01.69 3.02.99 2.04.63 4.11 1.16 6.19 1.64.9.21 1.58 1.21 1.32 2.13-.28.98-1.15 1.47-2.13 1.32-2.18-.34-4.35-.74-6.49-1.25-2.28-.53-4.47-1.24-6.65-2.09-1.03-.39-1.39-1.93-.87-2.83z"/><path id="Path 195" class="shp0" d="M406.03 339.25c1.39-.47 2.94-.62 4.36-.17.73.24 1.44.51 2.08.95.66.45 1.27.91 1.81 1.49.48.52.82 1.11.84 1.83.02.63-.24 1.38-.69 1.83-.48.48-1.13.85-1.83.83-.64-.01-1.37-.19-1.82-.68-.3-.32-.63-.59-.97-.85-.54-.36-1.09-.71-1.69-.95l.59.23c-.36-.14-.73-.25-1.08-.42l-.16-.07c-.44-.15-.87-.28-1.33-.35l-.45-.17c-.23-.11-.41-.27-.55-.47-.27-.31-.47-.73-.46-1.16.02-.85.52-1.59 1.35-1.87z"/><path id="Path 196" class="shp0" d="M458.9 319.08c3.25 4.02 17.34 16.91 20 6.28 1.26-5-.84-9.59-3.72-13.61-3.39-4.74-7.8-8.76-12.33-12.38-4.55-3.64-9.42-7.02-14.51-9.86-1.44-.82-.29-2.97 1.21-2.27 5.48 2.56 10.58 5.79 15.43 9.4 5.41 4.03 10.64 8.63 14.51 14.2 3.44 4.94 5.56 10.9 3.72 16.89-1.78 5.83-7.26 7.75-12.81 6.09-6.09-1.82-12.7-6.37-15.91-11.94-1.71-2.97 2.34-5.36 4.41-2.8z"/><g id="Group 120"><path id="Path 197" class="shp0" d="M501.4 373.85c.03-.05.1-.1.15-.13l-.08.07-.07.06z"/><path id="Path 198" class="shp0" d="M497.06 374.21c-.14-.06-.03-.08.22.09l-.09-.02-.13-.07z"/><path id="Path 199" class="shp0" d="M484.49 362.74c.11-1.42.26-2.83.8-4.16.49-1.21 1.12-2.26 1.88-3.32 1.01-1.4 3.73-.4 3.57 1.34-.08.91-.15 1.84-.18 2.76-.01.51-.06 1.02-.12 1.53 0-.02.01-.04 0 .03l-.02.29c-.02.24-.03.48-.03.72-.02.82.03 1.62.11 2.43.03.36.07.72.11 1.07l.12.59c.17.7.39 1.39.64 2.07.1.28.22.56.33.84a12.935 12.935 0 001.34 2.17c.07.09.13.18.2.27.2.22.41.44.62.66.45.44.95.8 1.43 1.21-.77-.66 0-.01.24.15a11.663 11.663 0 001.48.81l.05.01c.01.02-.01.02.01.02l.12.05c.07.01.13.03.17.06-.04-.03-.05-.02-.08-.04l.02.01c.26.08.52.15.78.21.12.02.23.04.35.07h.08c.43 0 .86.01 1.3-.01.08-.03.17-.05.26-.07.22-.06.43-.15.64-.23.12-.07.23-.13.34-.2.1-.06.2-.12.3-.19l.06-.04-.03.04.09-.1.02-.01c.15-.1.12-.09.06-.06.15-.14.34-.32.37-.35.1-.1.19-.21.28-.32.06-.07.39-.51.2-.24-.19.25.13-.21.17-.28.09-.14.17-.28.24-.42.09-.17.17-.34.24-.51l.05-.13.04-.11c.26-.83.46-1.68.58-2.55l.03-.29.01-.08.01-.08c.01-.26.03-.52.04-.78.03-.55.03-1.11.02-1.65-.04-1.27-.17-2.53-.35-3.79-.23-1.66 2.63-2.14 2.95-.48.78 4.08 1.03 8.28-.54 12.2-1.02 2.56-3.22 4.57-5.95 5.1-6.54 1.28-12.62-4.07-14.62-9.98-.68-1.99-1-4.14-.83-6.24z"/></g></g><g id="Group 123"><path id="Path 200" fill-rule="evenodd" class="shp0" d="M529.1 408.61c13.33 6.78 28.69 7.96 43.39 6.28 10.42-1.19 20.79-3.82 30.78-7.64.69-.84 1.71-1.38 2.88-1.18 16.24-6.63 31.36-16.41 43.73-28.67 21.19-20.97 38.29-55.24 13.05-81.03-6.41-6.55-15.16-10.45-24.04-12.28-19.02-3.93-39.2.66-57.3 6.71 1.09-2.87 1.87-5.86 2.41-8.95 14.75-4.65 30.18-7.69 45.49-6.79 20.59 1.22 40.62 10.68 48.35 30.87 7.21 18.83 4.81 42.76-5.46 60.02-7.88 13.25-19.85 23.41-33.21 31.06 3.04 1.4 5.82 3.43 8.28 5.64 5.5 4.94 10.09 10.86 14.45 16.78 4.37 5.92 8.41 12.06 12.51 18.16 4.26 6.34 8.95 12.3 13.63 18.33 13.8 17.77 27.67 35.55 42.86 52.17 15.59 17.03 33.05 32.15 49.1 48.73 9.31 9.62 18.28 19.7 28.04 28.86 8.95 8.4 19.39 15.07 28.79 22.95 1.18.99.75 3.03-.49 3.75-7.86 4.5-12.35 15.22-22.38 15.61-8.82.34-14.22-8.1-18.95-14.22-6.73-8.7-14.19-17.05-21.53-25.24-8.15-9.1-16.97-16.74-27.2-23.4-20.09-13.06-40.09-25.69-56.91-42.95-16.1-16.52-29.99-35.03-43.01-54.02-6.58-9.57-12.77-19.36-19.08-29.1-6.38-9.83-13.38-20.05-23.33-26.6-.17-.1-.25-.25-.38-.38-6.72 2.79-13.65 5.07-20.73 6.71-16.86 3.91-35.07 4.45-51.46-1.77-1.55-.59-3.06-1.31-4.57-2.03.89-2.07 1.69-4.19 2.29-6.38zm115.63 43.59c12.25 18.62 25.09 36.96 39.52 53.98 7.12 8.42 14.71 16.35 22.79 23.85 2.21 2.04 4.49 4.02 6.8 5.94-.11-.12-.24-.23-.31-.39-.65-1.47-1.39-2.91-1.95-4.42-.51-1.36-1.05-2.71-1.6-4.05-.25-.6-.04-1.54.27-2.07.33-.56.97-1.1 1.61-1.24.7-.16 1.47-.13 2.08.27l.55.42c.34.34.56.73.69 1.19.55 1.31 1.07 2.64 1.57 3.97.5 1.32.78 2.73 1.11 4.11.28 1.16-.27 2.33-1.37 2.79-.62.27-1.44.21-2.08-.13 6.67 5.49 13.71 10.55 20.74 15.56 9.61 6.84 19.87 12.93 29.04 20.35 8.74 7.07 16.6 15.2 23.95 23.68 3.85 4.44 7.74 8.89 11.3 13.57 2.83 3.73 5.45 7.99 9.21 10.89 8.4 6.49 15.92-4.57 22.55-10.22-7.62-5.99-15.93-11.1-23.46-17.23-8.86-7.22-16.55-15.96-24.6-24.06-8.23-8.29-16.51-16.54-25.1-24.47-8.06-7.43-16.44-14.51-24.11-22.36-15.43-15.83-29.35-33.05-42.85-50.52-9.91-12.79-19.44-25.59-28.44-39.01-4.66-6.96-9.45-13.88-15.04-20.12-3.66-4.08-8.99-10.32-14.94-10.69-.63-.04-1.13-.25-1.57-.52-3.14 1.51-6.32 2.94-9.52 4.21-3.52 1.38-7.12 2.49-10.76 3.48 14.97 10.86 23.94 28.07 33.92 43.24z"/><path id="Path 201" class="shp0" d="M647.84 302.94c.83.1 1.64.38 2.37.77.88.48 1.54 1.41 2.1 2.21.92 1.32 1.6 2.86 2 4.42.83 3.25.48 6.89-.97 9.91-.8 1.66-3.74.59-3.07-1.18.24-.64.43-1.3.55-1.97.13-.7.16-1.01.16-1.75 0-.34-.02-.68-.05-1.02 0-.01-.08-.62-.02-.3-.02-.13-.06-.26-.09-.39-.16-.69-.36-1.39-.6-2.05-.05-.16-.11-.31-.17-.47-.02-.05-.23-.54-.13-.3.11.23-.14-.29-.14-.28-.08-.15-.16-.3-.24-.44a9.13 9.13 0 00-.53-.84c-.09-.14-.19-.27-.29-.4-.24-.36.12.12-.05-.08-.34-.39-.7-.77-1.06-1.15-.06.08-.11.16-.17.24-.21.26-.42.52-.64.77-.31.37-.71.65-1.1.94-.13.09-.24.19-.36.29.57-.46.02-.02-.11.09-1.01.9-1.93 1.93-2.79 2.98-.01.02.01 0-.01.02l-.16.24c-.18.27-.35.55-.51.83-.15.28-.3.56-.43.85-.06.13-.1.26-.17.38.34-.68.06-.11 0 .06-.09.25-.15.51-.22.78-.02.13-.05.26-.08.39-.04.19-.23.53-.04.2.17-.3 0-.02-.01.2 0 .13-.01.26 0 .4 0 .24.03.47.05.72.03.08.07.3.12.46.03.13.08.25.12.37l.1.23c.08.14.29.52.34.6.08.12.16.23.24.36l.05.08.08.08c1.15 1.2 1.89 1.78 3.48 2.47 1.04.46 2.42.61 3.5.44 1.11-.18 2.45-.75 3.52-1.38 2.84-1.68 5.11-4.12 7.47-6.38 1.16-1.11 2.76.45 1.8 1.7-4.24 5.47-9.32 12.52-17.28 10.47-3.82-.98-7.31-3.56-8.74-7.3-1.22-3.15-.46-6.76 1.09-9.64.92-1.68 2.1-3.22 3.56-4.45.81-.68 1.65-1.4 2.58-1.92.94-.53 2.2-.69 3.3-.68.43-.49.99-.66 1.65-.58z"/><path id="Path 202" class="shp0" d="M524.87 356.83c.94-2.61 1.97-5.19 3.05-7.76 1.03-2.46 2.09-4.9 3.13-7.35a73.78 73.78 0 013.81-7.66c.99-1.74 3.63-.69 3.23 1.25-.55 2.7-1.32 5.18-2.45 7.7-1.13 2.51-2.3 4.99-3.46 7.48-1.98 4.25-3.76 8.57-5.21 13.02-.66-2.28-1.35-4.53-2.1-6.68z"/><path id="Path 203" class="shp0" d="M549.67 327.91c-1.35 4.74-4.04 8.89-6.08 13.34-1.77 3.86-3.49 8.61-2.46 12.91.66 2.77-3.43 4.08-4.28 1.31-1.56-5.11-.29-10.71 1.52-15.58 1.91-5.15 4.45-10.33 8.98-13.65 1.08-.8 2.68.42 2.32 1.67z"/><path id="Path 204" class="shp0" d="M568.7 318.44c-2.81 8.9-10.18 16.05-10.31 25.8-.03 2.21-3.36 2.33-3.45.1-.2-5.07 1.25-9.98 3.18-14.61 1.96-4.69 4.39-8.94 7.38-13.03 1.12-1.51 3.75.02 3.2 1.74z"/><path id="Path 205" class="shp0" d="M583.99 312.19c.64.6.67 1.45.36 2.21-.8 1.95-1.55 3.86-2.54 5.72-1.03 1.93-2.13 3.82-3.13 5.77-1.94 3.76-3.98 7.52-6.21 11.12-1.59 2.54-5.52.46-4.12-2.25 2.02-3.9 3.59-8 5.52-11.93.95-1.95 1.89-3.96 3.09-5.78 1.34-2.03 2.89-3.6 4.8-5.08.63-.5 1.69-.3 2.23.22z"/><path id="Path 206" class="shp0" d="M598.22 313.57c.87.9.78 2.03.08 2.98l-.24.32c.12-.15.11-.14-.04.07-.16.22-.32.44-.47.66-.31.45-.61.91-.91 1.36-.59.89-1.19 1.75-1.76 2.65a89.34 89.34 0 00-3.21 5.53c-.45.82-1.59 1.2-2.4.71-.88-.52-1.12-1.49-.71-2.4.9-2.01 1.86-4 2.91-5.93 1.12-2.06 2.39-3.98 3.77-5.86.66-.88 2.25-.83 2.98-.09z"/><path id="Path 207" class="shp0" d="M610.42 306.7c.08 1.47-.18 3.01-.99 4.25-.42.64-.87 1.26-1.46 1.76-.61.51-1.22.98-1.92 1.35-.63.33-1.28.49-1.99.32-.6-.14-1.27-.59-1.58-1.14-.33-.59-.52-1.31-.32-1.98.18-.62.55-1.28 1.14-1.59.39-.2.74-.44 1.08-.7.49-.42.98-.87 1.36-1.39l-.37.52c.22-.31.43-.64.69-.93l.11-.14c.26-.37.49-.77.68-1.18l.28-.39c.17-.2.37-.33.6-.42.38-.17.84-.25 1.24-.13.82.24 1.41.92 1.45 1.79z"/><path id="Path 208" class="shp0" d="M615.89 363.03c-4.73 2.07-20.9 12.25-11.35 17.63 4.5 2.53 9.48 1.72 14.12.01 5.47-2.01 10.51-5.2 15.2-8.62 4.71-3.43 9.25-7.23 13.35-11.38 1.16-1.18 2.93.5 1.86 1.76-3.92 4.61-8.38 8.68-13.15 12.4-5.31 4.15-11.13 7.97-17.53 10.24-5.67 2.01-11.98 2.48-17.27-.88-5.15-3.26-5.56-9.05-2.49-13.97 3.36-5.39 9.5-10.56 15.73-12.18 3.32-.87 4.55 3.67 1.53 4.99z"/><g id="Group 122"><path id="Path 209" class="shp0" d="M551.83 389.53c.04.04.07.12.09.18l-.05-.09-.04-.09z"/><path id="Path 210" class="shp0" d="M552.63 385.24c.1-.12.09 0-.15.2l.05-.08.1-.12z"/><path id="Path 211" class="shp0" d="M567.02 376.16c1.34.48 2.66 1 3.8 1.87 1.04.79 1.88 1.68 2.7 2.7 1.09 1.34-.6 3.7-2.23 3.09-.86-.33-1.74-.64-2.62-.92-.49-.14-.96-.32-1.44-.51.02.01.04.02-.03-.01l-.28-.09c-.23-.08-.45-.16-.69-.23-.77-.24-1.56-.4-2.36-.54-.36-.06-.71-.12-1.07-.17-.19-.01-.39-.03-.59-.03-.73-.03-1.45 0-2.17.06-.3.02-.6.06-.89.1-.17.03-.34.07-.5.11-.66.15-1.32.35-1.95.6l-.32.13c-.27.14-.53.27-.79.42-.55.32-1.04.71-1.56 1.06.85-.57.02-.01-.2.19a9.22 9.22 0 00-1.17 1.22l-.03.03c-.02.02-.01-.01-.02.02l-.08.1c-.03.05-.06.11-.1.14.03-.03.02-.04.05-.06v.01c-.16.23-.29.46-.42.7-.05.11-.1.21-.15.32l-.03.07c-.11.42-.24.83-.33 1.26v.28c0 .23.03.45.05.67v.01c.03.12.06.25.1.37.03.12.07.23.11.34l.02.06-.03-.03.07.12v.01c.06.17.06.15.05.08.09.18.21.41.23.45l.24.36c.05.07.39.5.18.25-.2-.25.17.18.23.24a6.718 6.718 0 00.76.7l.11.09.1.07c.73.47 1.5.89 2.31 1.23l.26.1.08.04.08.02c.25.09.49.17.74.25.53.17 1.06.33 1.6.46 1.22.3 2.47.51 3.73.66 1.66.21 1.38 3.11-.32 2.97-4.14-.33-8.25-1.19-11.62-3.74-2.2-1.66-3.55-4.32-3.34-7.09.49-6.65 7.26-11.1 13.49-11.46 2.1-.13 4.25.13 6.24.85z"/></g></g><g id="Group 125"><path id="Path 212" fill-rule="evenodd" class="shp0" d="M3.51 215.04c30.67-.08 60.89-5.38 91.37-8.05 15.08-1.32 30.25-1.92 45.39-2.06 14.62-.14 29.51-.07 44.08 1.48 5.51.6 10.94 1.83 16.42 2.71 2.61.42 5.73.84 8.77.81-7.74-4.72-17.12-7.19-25.54-9.82-12.58-3.93-24.33-9.35-36.42-14.56-14.15-6.12-28.59-11.58-42.42-18.41-13.75-6.81-27.09-14.41-40.82-21.27-7.09-3.53-14.25-6.94-21.24-10.66-7.18-3.84-14.66-7.9-21.25-12.68-2.46-1.78-1.05-5.69 2.11-4.99 18.8 4.19 35.93 13.64 53.34 21.56 18.6 8.46 37.81 15.43 57.01 22.33 37.26 13.41 73.59 30.63 112.22 39.89 21.02 5.04 42.65 6.6 63.51 12.39.94-.49 1.88-1 2.83-1.47 7.79-5.75 16.14-10.73 24.96-14.68 15.8-7.06 33.57-11.07 50.85-8.1 11.95 2.05 23.64 7.78 32.48 16.31a23.98 23.98 0 00-6.26 4.14c-5.82-5.44-12.88-9.66-20.41-12.11-14.94-4.86-31.01-3.06-45.76 1.61-11.89 3.76-23.31 9.57-33.82 16.8.26 1.37-.77 2.99-2.52 2.49-.27-.07-.54-.11-.81-.19-5.02 3.68-9.75 7.73-14.23 12.06-.38 1.47-1.52 2.67-2.97 2.85-5.32 5.47-10.18 11.34-14.44 17.59-13.66 20.06-22.96 48.23-9.94 69.07.21.08.42.19.63.26 1.15.43 2.11 1.78 1.76 3.04 2.7 3.49 6.03 6.75 10.24 9.66 7.55 5.21 16.89 7.36 25.95 7.46 19.56.22 38.61-8.26 55.29-17.74 4.71-2.67 9.39-5.49 13.98-8.48-1.09 3.17-1.94 6.59-2.33 10.53-17.03 10.66-35.95 20.05-55.98 22.75-8.78 1.18-17.68.71-25.93-1.55.7.86.95 2.16.05 3.24-5.73 6.85-9.45 15.11-13.48 23.01-1.67 3.26-3.44 6.45-5.38 9.56 1.84-.73 3.62-1.57 5.31-2.48 6.44-3.48 12.36-7.98 17.89-12.75 1.31-1.12 3.17.67 1.91 1.91-5.69 5.59-11.98 10.67-18.98 14.56-2.99 1.65-6.32 3.21-9.75 4.18-1.86 2.46-3.97 4.82-6.52 6.43-1.16.73-2.43-.7-1.81-1.82.69-1.27 1.51-2.47 2.31-3.69-2.22.04-4.43-.26-6.58-1.14-1.83-.76-1.16-3.32.83-2.99 2.83.47 5.68.35 8.48-.17.71-1.07 1.45-2.14 2.08-3.25 2.29-3.99 4.36-8.11 6.41-12.21 3.97-7.92 8.04-15.81 13.9-22.53.22-.25.46-.41.69-.53-8.95-2.94-16.96-8.24-22.86-16.34-9.15 10.81-19.99 20.12-29.78 30.37.12.55.02 1.14-.6 1.4-.38.16-.78.29-1.17.45-3.35 3.61-6.56 7.35-9.49 11.34 3.75-.39 7.49-.93 11.19-1.7 8.98-1.86 17.76-4.56 26.09-8.42 1.47-.69 2.77 1.44 1.29 2.21-8.34 4.34-17.18 7.82-26.33 10.03-4.44 1.09-8.94 1.89-13.48 2.46-4.72.6-9.53 1.01-14.17-.24-1.31-.36-1.38-2.41 0-2.73 3.72-.85 7.51-.98 11.31-1.23 2.14-3.25 4.5-6.35 6.94-9.38-4.69 1.48-9.48 2.69-14.25 3.93-3.7.95-7.38 1.97-11.01 3.18-3.47 1.15-6.96 3.03-10.6 3.46-1.48.17-1.93-1.8-1.12-2.72 2.32-2.65 6.29-3.75 9.55-4.78 3.74-1.17 7.61-1.98 11.44-2.79 6.56-1.38 13.19-2.63 19.59-4.65 3.43-3.96 7.01-7.8 10.65-11.56 6.6-6.82 12.94-13.71 19.06-20.88-1.63-.4-3.27-.72-4.86-.96-5.4-.83-10.91-.93-16.36-.98-7.13-.07-14.21-.09-21.29.08-4.42 9.01-6.43 20.05-11.18 28.94 1.32.43 2.01 2.42.44 3.31-1.27.72-2.61 1.33-3.91 2-2.32 2.94-5.18 5.46-8.89 7.31-1.6.81-3.08-.41-3.3-1.75-.29.12-.57.25-.86.36-5.82 2.28-11.7 4.5-17.93 5.19-1.64.17-2.39-2.51-.86-3.18 5.53-2.42 11.41-3.82 17.11-5.82 3.61-1.27 7.15-2.75 10.63-4.33 7.43-8.49 9.31-21.25 13.86-31.86-4.33.18-8.66.42-13.01.84-6.66.66-13.34 1.48-19.99 2.5a1.6 1.6 0 01-.46.73c-5.75 4.86-8.12 11.87-10.24 18.85-1.15 3.82-2.33 7.78-4.05 11.41 1.54-.7 3.11-1.32 4.77-1.75 1.86-.48 3.74-.99 5.58-1.57 3.65-1.14 7.07-2.74 10.18-5.02 1.26-.93 3.23-.21 3.96 1.04.86 1.48.23 3.03-1.04 3.97-3.37 2.48-7.23 4.21-11.2 5.49-3.98 1.28-8.04 2.19-12.24 1.99-.72-.04-1.25-.52-1.6-1.09-.94 1.49-2.04 2.88-3.38 4.11-1.16 1.08-3.14-.31-2.26-1.74 3.91-6.34 6.12-13.21 8.43-20.22 1.8-5.45 3.97-10.81 7.61-15.2-12.28 2.13-24.41 5.09-36.2 9.03.43.89.71 1.87.62 3.09-.27 4.08-1.91 8.05-3.37 11.81-1.19 3.08-2.49 6.11-3.86 9.1 4.89.1 9.77-1.16 13.85-3.89 1.05-.69 2.58-.2 3.19.84.67 1.16.19 2.45-.84 3.17a25.571 25.571 0 01-8.28 3.81c-3.07.78-6.32.68-9.44.21-.15-.02-.28-.11-.42-.18-.73.95-2.38.37-2.38-.84-.02-3.75 1.63-7.35 3.07-10.74 1.56-3.69 3.23-7.43 4.19-11.33.16-.66.32-1.33.37-1.96.06-.7.05-1.28-.07-1.61-.09-.27.15.08-.14-.28.16.2.05.09-.09-.04-4.61 1.63-9.16 3.42-13.62 5.42-13.85 6.18-25.58 14.93-36.72 25.11-.8.73-1.81-.35-1.16-1.16 11.49-14.32 27.66-24.34 44.86-31.35-2.27-.24-4.58-.24-6.78-.25-4.15 0-8.4.42-12.53-.04-2.2-.25-2.25-3.72 0-3.5 8.22.8 16.87-1.51 24.92 1 .25.08.45.21.69.3a192.49 192.49 0 0118.5-5.62c5.46-1.36 10.95-2.54 16.46-3.57-8.96-3.75-17.96-7.41-26.96-11.01-1.61-.65-.94-3.28.73-2.65 11.11 4.16 22.29 7.94 33.23 12.51 12.99-2.11 26.07-3.47 39.22-4.02l.02-.04c-14.47-6.71-27.48-18.61-43.86-19.86-1.64-.12-1.62-2.36 0-2.52 17.64-1.65 32.14 13.18 47.52 19.34 1.15.46 1.94 1.7 1.4 2.92 6.05-.17 12.11-.22 18.17-.1 6.91.13 15.42.03 22.74 2.2-8.36-4.05-16.35-8.85-24.24-13.76-4.66-2.9-9.32-5.81-14.11-8.51-4.94-2.79-10.16-5.05-15.09-7.84-1.14-.65-.35-2.35.87-2.06 10.43 2.39 20.2 8.92 29.35 14.27 6.76 3.95 13.47 7.99 20.48 11.42-6.11-15.63-6.63-34.29-1.12-49.66.83-2.31 1.81-4.55 2.87-6.75-.3.07-.58.17-.93.15-11.48-.46-23.07 2.44-33.98 5.79-5.73 1.75-11.26 3.88-17.16 5.01-5.91 1.13-11.99 1.48-17.84 2.92-3.05.75-5.35 1.85-6.98 4.59-1.95 3.3-3.33 6.9-5.49 10.09-5.09 7.47-11.73 9.21-20.34 8.57-4.41-.32-9.08-.75-13.43.28-2.8.66-3.51 1.6-3.7 4.36-.45 6.89-1.54 13.89-8.01 17.83-7.27 4.44-16.65 2.72-24.71 2.9-9.61.22-18.19 5.02-24.49 12.12-3.72 4.19-6.47 9.17-9.77 13.68-3.92 5.32-7.05 11.25-10.14 17.08-5.57 10.54-10.19 21.46-12.29 33.16 15.79-5.31 29.83-15.17 46.09-19.28 7.84-1.98 15.58-2.41 22.92 1.34 6.36 3.24 12.24 9.61 19.83 9.7 3.65.05 6.93-1.92 10.27-3.14 3.52-1.26 7.37-2.08 11.11-1.56 5.72.79 9.87 4.98 14.06 8.56 5.58 4.77 11.15 8.33 18.84 7.35 7.3-.93 13.99-4.4 21.24-5.57 5.84-.94 11.75.21 16.03 4.53 3.35 3.38 4.44 7.81 6.66 11.85 5.61 10.23 22.91-4.06 29.36-7.14 5.01-2.39 11.16-4.55 16.22-1.08 2.44 1.67 3.81 4.27 4.56 7.07.97 3.62.89 8.24 5.09 9.69 6.57 2.28 14.6-1.7 19.37-5.98 4.62-4.15 9.04-9.12 14.68-11.89 5.48-2.68 10.68-.63 12.92 5.07 1.26 3.2 1.29 7.28 3.44 10.08 3.51 4.55 9.42 1.6 13.18-.89 8.64-5.74 14.65-12.71 19.9-21.59 4.72-8.02 8.91-16.24 15.13-23.24 1.38-1.55 4.21.57 2.92 2.25-10.37 13.56-14.81 31.09-28.32 42.27-5.91 4.89-14.16 11.76-22.3 8.4-6.72-2.78-6.6-9.33-8.28-15.33-2.28-8.11-9.29-1.16-12.55 2.22-4.31 4.45-8.49 9.84-14.26 12.47-6.42 2.92-15.44 5.02-21.54.34-2.9-2.21-4.18-5.37-4.83-8.86-.48-2.59-.56-6.66-3.62-7.58-2.45-.73-5.52.84-7.63 1.91-3.39 1.73-6.54 3.88-9.77 5.87-5.67 3.5-11.53 6.64-18.38 6.69-5.08.04-9.48-2.35-11.7-7.01-1.86-3.92-2.46-8.78-5.65-11.93-4.98-4.91-12.49-1.71-18.13.18-6.97 2.34-14.5 5.03-21.93 3.37-6.71-1.51-11.81-6.2-16.15-11.24-4.55-5.32-9.16-8.17-16.2-5.47-4.31 1.65-7.98 4.54-12.73 4.88-4.09.29-8.19-.99-11.81-2.83-7.59-3.87-13.27-10-22.44-9.38-10.78.73-20.79 5.84-30.22 10.7-9.33 4.8-18.63 9.91-28.78 12.79-2.1.6-4.77-1.12-4.57-3.48 1.02-11.91 6.14-22.91 11.97-33.19 3.11-5.49 6.6-10.74 9.97-16.08 3.11-4.92 5.31-10.27 8.28-15.23 5.01-8.35 11.48-15.28 20.55-19.18 8.95-3.86 17.54-2.52 26.97-2.97 4.29-.21 8.87-1.02 11.43-4.82 1.96-2.91 2.17-6.23 2.26-9.6.07-2.77.23-5.63 2.13-7.83 2.31-2.71 6.01-3.47 9.38-3.88 4.67-.57 9.26-.13 13.94-.04 3.71.08 7.06-.34 9.77-3.1 5.33-5.46 6.03-14.48 12.91-18.57 4.79-2.86 10.77-3.14 16.17-3.83 7.39-.95 14.26-2.55 21.37-4.77 12.54-3.93 25.94-7.58 39.2-7.04 1.66.07 2.66 1.13 3.03 2.37 5.37-9.69 12.78-18.2 21.2-25.54-4.69-1.45-9.83-1.63-14.67-1.58-7.4.07-14.77.88-22.18.89-20.06.01-40.13.04-60.18-.61-20.23-.66-40.35-1.17-60.6-1.03-19.9.13-40.04 1.34-59.89-.32-10.67-.89-21.26-2.5-31.9-3.63-11.1-1.19-22.14-1.61-33.29-1.55-4.69.15-4.67-7.11 0-7.28zm59.19 6.59c20.32 2.43 40.65 1.1 61.02.07 20.46-1.02 40.82-1.22 61.29-.48 20.51.75 41.04.69 61.56.67 8.69 0 17.34-.92 26.03-.92 6.9-.01 14.05.65 20.25 3.76 3.11-2.36 6.27-4.62 9.51-6.69.7-.44 1.43-.83 2.14-1.25-16.96-4.06-34.33-6.24-51.39-9.79-19.44-4.04-38.26-10.06-56.88-16.9-18.66-6.85-37.02-14.49-55.76-21.15-18.99-6.76-38.35-12.53-57.05-20.1-13.57-5.5-26.6-12.59-40.07-18.45.1.05.19.12.3.18 6.43 3.43 12.99 6.63 19.53 9.84 13.72 6.73 27.06 14.17 40.73 21 14.3 7.15 29.12 12.35 44.07 17.95 12.47 4.67 24.6 10.12 37.33 14.06 12.02 3.73 25.3 7.21 34.84 15.88 1.52 1.38 1.28 4.47-.69 5.38-4.07 1.86-8.36 1.53-12.69.8-5.29-.9-10.56-1.9-15.83-2.97-13.37-2.7-27.46-2.57-41.06-2.68-31.6-.28-62.64 3.22-93.91 7.36-4.14.55-8.28 1.09-12.43 1.61 6.41 1.03 12.8 2.06 19.16 2.82z"/><path id="Path 213" class="shp0" d="M296.19 323.71c-.83.05-1.67-.06-2.48-.31-.94-.29-1.77-1.08-2.48-1.76-1.15-1.12-2.11-2.5-2.8-3.95-1.44-3.03-1.79-6.67-.94-9.92.46-1.78 3.55-1.3 3.24.58-.11.67-.18 1.35-.18 2.03.01.71.05 1.03.2 1.75.06.33.14.67.24 1 0 0 .19.59.07.28.05.13.11.25.16.37.3.64.62 1.28.98 1.89.08.15.17.29.26.43.03.04.34.49.18.27-.14-.2.2.26.2.26l.31.37c.22.26.44.5.68.73.12.12.25.23.37.34.31.3-.15-.1.06.07.42.31.84.61 1.26.92.05-.09.09-.18.13-.27.15-.29.31-.59.47-.87.24-.43.58-.78.91-1.14.1-.11.2-.23.3-.35-.49.56-.02.02.08-.11.83-1.08 1.53-2.26 2.16-3.46.02-.03 0 0 .02-.02l.11-.27c.12-.3.24-.6.34-.91.09-.31.18-.61.26-.92.03-.13.05-.27.09-.4-.2.74-.03.12-.01-.06.04-.27.06-.54.07-.81v-.4c0-.18.13-.56.01-.2-.12.33 0 .03-.04-.2a2.32 2.32 0 00-.07-.38c-.05-.24-.12-.47-.19-.7-.04-.09-.12-.29-.2-.44-.06-.12-.13-.23-.19-.34l-.14-.21c-.11-.12-.38-.45-.45-.52-.1-.1-.21-.19-.31-.3l-.06-.08-.1-.06c-1.35-.95-2.19-1.39-3.88-1.75-1.12-.25-2.5-.14-3.53.24-1.05.39-2.26 1.19-3.19 2.02-2.46 2.19-4.22 5.02-6.1 7.69-.93 1.32-2.81.08-2.1-1.32 3.12-6.18 6.76-14.07 14.96-13.59 3.93.24 7.86 2.1 9.98 5.49 1.79 2.86 1.74 6.56.76 9.68-.56 1.83-1.45 3.56-2.64 5.05-.66.82-1.35 1.68-2.15 2.37-.83.7-2.04 1.1-3.11 1.3-.33.57-.85.84-1.52.89z"/><path id="Path 214" class="shp0" d="M407.31 240.54c-.39 5.03-1.21 10.01-2.23 14.95-.54 2.61-1.13 5.21-1.68 7.81-.5 2.39-1.18 4.65-1.91 6.95-.25.63-.54 1.22-.8 1.84-.98 1.07-2.98.56-2.97-1.15.02-2.76.31-5.34.94-8.03.63-2.67 1.3-5.33 1.96-7.99 1.31-5.32 2.46-10.64 2.96-16.09.18-1.91 2.46-2.25 3.44-1.16.09.99.19 1.95.29 2.87z"/><path id="Path 215" class="shp0" d="M387.77 280.41c.42-4.9 2.27-9.49 3.42-14.25 1-4.12 1.78-9.12-.05-13.14-1.18-2.59 2.58-4.66 3.94-2.1 2.52 4.71 2.34 10.45 1.5 15.58-.89 5.42-2.4 10.99-6.21 15.11-.92 1-2.72.1-2.6-1.2z"/><path id="Path 216" class="shp0" d="M370.9 293.35c1.06-9.26 6.92-17.7 5.19-27.29-.39-2.17 2.85-2.93 3.37-.76 1.17 4.94.69 10.04-.33 14.96-1.03 4.96-2.59 9.6-4.76 14.18-.8 1.71-3.67.71-3.47-1.09z"/><path id="Path 217" class="shp0" d="M357.09 302.42c-.74-.47-.93-1.3-.77-2.11.41-2.06.79-4.08 1.4-6.09.64-2.1 1.36-4.16 1.97-6.26 1.19-4.07 2.46-8.15 3.97-12.11 1.07-2.8 5.33-1.5 4.47 1.42-1.24 4.21-1.99 8.53-3.13 12.76-.57 2.1-1.1 4.26-1.93 6.27-.93 2.25-2.15 4.08-3.75 5.91-.52.6-1.59.61-2.23.21z"/><path id="Path 218" class="shp0" d="M342.87 303.78c-1.03-.71-1.16-1.84-.66-2.9l.18-.37c-.08.18-.07.16.03-.07.11-.25.22-.49.33-.75.22-.5.43-1 .64-1.5.41-.98.83-1.95 1.22-2.94.77-1.98 1.46-4.01 2.09-6.04.28-.89 1.33-1.49 2.22-1.16.96.35 1.38 1.26 1.15 2.22-.5 2.15-1.06 4.28-1.72 6.38-.7 2.23-1.58 4.36-2.58 6.47-.48 1-2.04 1.25-2.9.66z"/><path id="Path 219" class="shp0" d="M332.2 312.86c-.36-1.43-.4-2.99.17-4.36.28-.71.61-1.41 1.09-2.01.5-.62 1.01-1.2 1.63-1.7.55-.43 1.16-.72 1.88-.69.63.03 1.36.34 1.78.82.44.51.75 1.19.69 1.89-.06.64-.3 1.35-.82 1.76-.34.28-.63.59-.92.9-.4.51-.79 1.04-1.07 1.62l.26-.57c-.15.35-.3.71-.49 1.04l-.09.16c-.18.42-.34.85-.44 1.29l-.2.44c-.13.23-.3.4-.51.53-.34.23-.77.4-1.19.36-.85-.08-1.55-.64-1.77-1.48z"/><path id="Path 220" class="shp0" d="M316.06 258.62c4.25-2.94 18.17-16.02 7.76-19.48-4.9-1.62-9.63.13-13.85 2.69-4.98 3.02-9.32 7.12-13.27 11.37-3.97 4.26-7.7 8.87-10.92 13.72-.93 1.39-2.98.07-2.18-1.36 2.97-5.28 6.57-10.13 10.54-14.69 4.43-5.09 9.4-9.96 15.25-13.41 5.19-3.06 11.28-4.72 17.12-2.44 5.68 2.21 7.18 7.82 5.11 13.24-2.27 5.94-7.31 12.18-13.1 14.96-3.1 1.49-5.17-2.73-2.46-4.6z"/><g id="Group 124"><path id="Path 221" class="shp0" d="M373.86 220.35a.955.955 0 01-.12-.16l.08.08.04.08z"/><path id="Path 222" class="shp0" d="M373.9 224.71c-.08.14-.08.02.1-.22l-.03.09-.07.13z"/><path id="Path 223" class="shp0" d="M361.52 236.38c-1.41-.22-2.81-.48-4.09-1.11-1.17-.58-2.18-1.29-3.17-2.13-1.33-1.11-.12-3.75 1.59-3.46.92.15 1.84.3 2.75.39.51.06 1.01.14 1.51.23-.01 0-.03-.01.04 0l.29.05.71.09c.81.09 1.62.09 2.43.07.36-.01.72-.02 1.08-.04.2-.02.39-.04.59-.07.72-.12 1.42-.29 2.12-.47.29-.09.57-.19.85-.28.16-.06.32-.13.47-.19.63-.28 1.23-.6 1.8-.97l.29-.2c.24-.18.47-.36.7-.56.48-.41.87-.89 1.32-1.33-.72.71-.02 0 .16-.23s.35-.47.51-.72c.14-.23.29-.46.41-.7l.02-.04c.01-.02.01.01.02-.02l.05-.11c.02-.06.05-.12.08-.16-.03.03-.02.04-.05.07l.01-.01c.1-.26.19-.51.27-.77.04-.11.07-.23.1-.34l.01-.08c.03-.43.08-.85.08-1.3-.02-.09-.03-.18-.05-.27-.05-.22-.12-.43-.18-.65v-.01c-.06-.11-.11-.23-.17-.35-.05-.1-.11-.21-.17-.3l-.04-.06.04.02-.08-.1-.01-.01c-.09-.16-.09-.13-.07-.07-.12-.16-.28-.36-.31-.39-.1-.11-.2-.21-.3-.31-.06-.06-.48-.42-.23-.21.24.2-.2-.15-.27-.2-.13-.09-.26-.18-.4-.27-.16-.1-.31-.19-.48-.28l-.13-.05-.11-.05c-.81-.33-1.64-.59-2.5-.77l-.28-.05-.08-.02-.09-.01c-.25-.04-.51-.08-.77-.11-.54-.06-1.09-.11-1.65-.14-1.26-.06-2.53-.02-3.79.06-1.67.11-1.95-2.77-.26-2.97 4.13-.47 8.33-.41 12.12 1.45 2.47 1.21 4.31 3.56 4.64 6.32.79 6.62-5.01 12.28-11.04 13.83-2.04.52-4.21.69-6.29.36z"/></g></g><g id="Group 129"><g id="Group 127"><path id="Path 224" class="shp0" d="M514.75 327.51c.07.08.15.14.21.22.03.03.03.07.06.09l-.27-.31z"/><g id="Group 126"><path id="Path 225" class="shp0" d="M515.07 327.88l.11.12.02.04-.13-.16z"/><path id="Path 226" class="shp0" d="M404.1 216.71c9.63-17.71 29.38-31.44 49.17-34.85 21.67-3.74 44.01 2.8 63.06 12.93 3.54 1.89 6.92 4.03 10.22 6.29 6.82 3.04 13.39 6.61 19.61 10.72-2.2-4.72-5.18-8.88-8.35-13-6.81-8.88-12.51-17.59-15.08-28.64-2.45-10.57-3.78-20.69-10.42-29.64-5.57-7.5-11.75-14.14-13.66-23.61-2.27-11.3 0-22.93-2.21-34.2-2.04-10.37-7.95-19.71-11.43-29.63-3.73-10.65-3.2-21.52-2.96-32.64.26-11.74.32-23.5-1.74-35.11-1.91-10.84-5.22-21.38-10.16-31.22-5.07-10.1-11.97-18.88-17.86-28.46-1.65-2.67 1.06-5.11 3.65-4.76 6.93.96 13.31 3.83 19.49 6.97 6.55 3.34 13.09 6.34 20.05 8.73 6.68 2.28 13.46 4.17 20.18 6.31 5.67 1.8 11.71 3.65 16.63 7.1 8.42 5.92 13 15.16 18.28 23.67 2.78 4.47 5.84 9.84 10.42 12.71 4.19 2.62 9.37 1.19 14 2.04 9.84 1.8 15.37 10.78 19.07 19.26 4.02 9.25 6.76 19.08 12.08 27.74.82 1.32 1.73 2.83 3.05 3.71 1.22.8 2.52.81 3.93 1.06 1.81.31 3.37.93 4.66 2.27 1.62 1.67 2.69 3.91 3.63 6.01 2.78 6.26 4.68 12.91 6.69 19.43 2.35 7.64 4.15 15.56 7.42 22.88 1.06 2.38 2.28 5.07 4.3 6.7.33.27.52.43.91.31.15-.07.41-.17.43-.19.54-.38.66-.44 1.17-.92 1.74-1.69 4.03-1.05 5.36.69 6.22 8.05 4.97 19.07 2.89 28.36-1.72 7.79-4.86 15.6-6.13 23.57 1.78-.47 3.63-.28 5.3 1.18 3.35 2.91 4.31 8.42 4.46 12.6.36 9.83-6.3 18.67-8.84 27.84-1.09 3.95-2.07 10.55 2.15 13.13 3.72 2.27 8.61 1.66 9.92 6.91 1.05 4.25-1.63 8.98-3.61 12.56-2.94 5.33-5.92 10.64-9.27 15.72-8.47 12.85-18.61 24.56-26.13 38.03.3.43.58.89.84 1.41 1.06 2.13-2.01 3.98-3.2 1.88-.32-.69-.77-1.28-1.36-1.78-.66-.63-.68-1.56-.31-2.33 9.93-20.88 26.29-37.64 36.98-58.01.87-1.65 2.33-4.34 1.76-6.3-.68-2.34-3.57-2.56-5.53-3.23-3.54-1.2-5.81-3.58-6.98-7.15-2.51-7.7 2.1-16.1 5.1-22.97 1.96-4.46 4.27-9.26 4.59-14.2.16-2.54-.27-5.21-1.17-7.6-.36-.98-1.1-2.97-2.31-3.15-1.16-.17-2.83 2.51-3.39 3.26-1.78 2.37-5.64 1.71-5.76-1.56-.34-9.43 3.03-18.77 5.31-27.8 1.97-7.78 3.87-16.48.49-23.93-9.14 3.55-14.65-11.75-16.97-19.05-2.37-7.42-4.13-14.99-6.04-22.54-.85-3.33-1.73-6.66-2.84-9.91-.73-2.12-1.51-4.88-3.06-6.59-1.33-1.47-3.2-1.23-5.01-1.63-2.6-.56-4.27-2.17-5.84-4.23-3.33-4.36-5.66-9.71-7.86-14.7-3.94-8.94-6.32-19.53-12.95-26.98-3.57-4.01-7.99-5.54-13.28-5.67-4.95-.12-9.07-.75-13.07-3.93-8.26-6.57-12.5-16.89-18.33-25.39-3.44-5.03-7.6-9.39-13.17-12.02-7.42-3.52-15.5-5.86-23.38-8.06-7.7-2.15-15.35-4.49-22.66-7.75-5.45-2.43-10.86-5.47-16.63-7.03 9.49 13.35 16.5 29.04 20.47 44.7 2.77 10.95 4.33 22.07 4.61 33.37.29 11.25-.98 22.88.43 34.06 1.36 10.8 7.22 20.11 11.48 29.9 2.26 5.19 3.84 10.32 4.53 15.96.7 5.76.56 11.55.76 17.34.18 5.43.58 11.12 2.68 16.2 1.76 4.27 4.62 8.02 7.45 11.63 2.82 3.61 5.75 7.2 7.89 11.27 2.48 4.72 3.88 9.89 4.95 15.08 1.25 6.12 2.12 12.37 4.36 18.23 2.25 5.9 5.97 11.15 9.56 16.29 3.51 5.01 7.13 9.91 9.56 15.57 1.42 3.3 2.53 6.69 3.62 10.09 12.61 9.94 23.49 22.58 28.97 37.81 3.05 8.5 4.26 17.88 3.43 27.03 3.59-9.08 4.81-18.51 5.82-28.19.93-8.96 2.4-17.84 3.4-26.79-6.97-16.32-19.78-28.84-32.19-41.51-.03-.02-.06-.01-.09-.04-5.79-5.88-12.11-11.2-18.19-16.78-1.11-1.02.57-2.7 1.66-1.65 1.17 1.11 2.35 2.21 3.53 3.32.22-.37.63-.58 1.08-.24 5.17 3.92 10.07 8.21 15.02 12.42 5.49 4.68 11.03 9.28 15.92 14.61 5.27 5.73 10.12 11.88 14.13 18.52.92-16.66.06-33.37-2-49.93-1.26.36-2.72-.01-2.96-1.53-2.23-13.92-13.92-24.54-23.07-34.51a339.483 339.483 0 00-15.58-15.93c-.4.43-1.01.67-1.56.27-6.65-4.73-13.48-9.18-20.41-13.47-6.83-4.23-13.92-8.25-20.02-13.51-1.48-1.26.4-3.18 1.93-2.5 7.43 3.34 14.18 8.18 20.8 12.89 1.62 1.15 3.21 2.34 4.81 3.51-1-.83-1.96-1.69-2.97-2.5-1.91-1.53.59-4.77 2.62-3.4 13.44 9.05 24.62 21.2 35.36 33.23 4.74 5.31 9.54 10.62 13.87 16.29 1.87 2.44 3.74 5.13 5.3 7.96-2.87-17.96-7.28-35.67-13.41-52.8-9.35-8.75-18.06-18.26-28.45-25.81-4.27-3.1-8.91-5.84-13.54-8.61-.04.26-.12.52-.27.78-.58.99-2.08 1.5-3.09.81-7.34-5.06-15.75-8.33-22.48-14.3-.94-.83-.85-2.43 0-3.28.97-.97 2.3-.78 3.29 0 1.34 1.07 2.76 2.02 4.2 2.97-.38-.36-.77-.68-1.14-1.05-1.4-1.42.45-4.03 2.2-2.84 5.65 3.81 11.15 7.69 17.01 11.17 6.04 3.58 12.11 7.12 17.74 11.32 7.37 5.5 13.96 11.9 20.55 18.28-4.06-9.89-8.77-19.5-13.98-28.85-.27-.14-.56-.27-.75-.61-9.48-16.33-26.22-25.47-41.94-35.31-.88.56-1.99.64-3.01.11-1.93-1.01-3.69-2.22-5.4-3.55-.75-.6-1.46-1.25-2.14-1.94-.47-.48-.94-.96-1.29-1.53-.26-.42-.5-.87-.73-1.3-.05-.09-.03-.2-.06-.3-.23-.17-.49-.33-.71-.5-1.61-1.22-.17-3.93 1.63-2.79l.35.23c.67-.26 1.43-.3 2.02.12.38.27.77.53 1.16.78.57.36 1.04.82 1.55 1.26.58.51 1.18 1 1.8 1.48 1.5 1.13 3.08 2.15 4.76 3 .41.21.72.55.95.94 6.4 3.92 12.79 7.86 18.94 12.15 4.08 2.84 8.02 5.94 11.75 9.25-2.37-3.74-4.76-7.48-7.22-11.14-6.31-9.41-13.07-18.5-19.69-27.69-6.09-8.47-12.09-16.98-20.65-23.17-.76-.55-.33-2.06.7-1.65 7.99 3.13 13.91 10.79 19.06 17.34 5.91 7.52 11.3 15.62 16.74 23.49a457.662 457.662 0 0120.71 32.8c-.8-8.1-2.47-16.21-3.54-24.2-1.38-10.16-2.36-20.31-2.07-30.58.02-1.05 1.62-1.06 1.63 0 .2 10.45 1.57 20.88 3.16 31.19 1.55 9.99 2.76 20.21 4.93 30.08.06.27-.06.49-.1.73 3.83 7.02 7.53 14.12 10.87 21.35 2.1 4.54 4 9.16 5.83 13.8.48.46.98.92 1.47 1.39 1.35-10.89 2.1-21.65 1.9-32.71-.21-12.29-.81-24.57-.67-36.86.01-.99 1.53-.99 1.54 0 .21 12.74 1.19 25.44 1.73 38.15.53 12.26 1.43 25-.27 37.19-.18 1.28-1.34 1.76-2.48 1.68 4.81 13.55 8.73 27.41 11.84 41.46.23 1 .43 2.02.65 3.04.36-2.29.67-4.57.9-6.73.81-7.54 1.01-15.14 1.47-22.7.87-14.11 2.68-28.52 10.24-40.79.88-1.43 3.11-.14 2.25 1.32-7.73 13.12-8.66 28.5-9.29 43.36-.3 7.19-.58 14.36-1.25 21.52-.44 4.63-1.33 9.04-2.4 13.44 3.53 18.32 5.84 37.01 5.4 55.62-.04 1.67-.19 3.31-.28 4.96 1.25-3.3 2.51-6.6 3.66-9.94 2.48-7.21 4.35-14.55 6-22 3.11-14 5.8-28.65 13.31-41.1.55-.91 1.88-.11 1.41.83-6.53 13.25-8.66 28.04-11.26 42.44-2.82 15.61-7.27 30.69-12.44 45.67-.41 1.19-1.38 1.79-2.41 2-.69 5.35-1.43 10.69-2.1 16.07-1.4 11.35-2.14 23.62-7.88 33.79-1.27 2.26-4.73 1.47-5.48-.52-1.19 8.67-4.22 17.03-9.48 24.08-12.26 16.46-33.14 21.91-52.86 21.52-.07.19-.03.39-.14.56-.69.97-2.16 1.45-3.24.79-.91-.56-1.77-1.23-2.63-1.87-.83-.61-1.64-1.24-2.46-1.86-.29-.21-.52-.51-.8-.83-.02-.04-.07-.09-.03-.07-.06-.07-.13-.13-.19-.2-.6-.66-.91-1.52-.71-2.41.2-.9.91-1.63 1.78-1.91 1.43-.45 2.82.54 3.85 1.45-.38-.51-.7-1.06-1.1-1.55 15.57 1.37 32.28-.64 44.65-9.99 14.58-11.03 19.42-30.92 15.89-48.32-8.78-43.23-62.71-70.15-102.73-73.49-29.71-2.47-66.86 6.81-70.06 42.74-.82 9.14 1.91 18.32 6.28 26.26.32.58.72 1.11 1.05 1.69-2.53.64-5 1.55-7.42 2.71-8.31-14.9-10.94-32.37-2.34-48.2z"/></g></g><path id="Path 227" class="shp0" d="M421.33 241.46c-.46-.7-.78-1.49-.96-2.31-.21-.97.07-2.09.31-3.03.41-1.55 1.14-3.07 2.06-4.38 1.93-2.75 4.93-4.84 8.17-5.71 1.78-.48 2.88 2.46 1.09 3.1-.64.24-1.26.52-1.85.86-.62.35-.87.54-1.43 1.02-.26.23-.51.46-.75.7 0 0-.42.46-.21.21-.08.11-.16.21-.24.32-.42.57-.82 1.17-1.17 1.78l-.24.45c-.03.04-.26.52-.15.28.11-.23-.12.3-.12.29-.06.16-.12.31-.18.47-.11.31-.21.63-.29.95l-.12.48c-.11.42.01-.17-.03.09-.07.52-.12 1.04-.18 1.55.1 0 .2-.02.29-.02.34-.01.67-.02 1-.02.49 0 .96.12 1.44.23.14.03.3.06.45.09-.72-.15-.03-.01.14.02 1.34.18 2.72.21 4.07.18h.02l.3-.04c.32-.04.64-.09.96-.15.31-.06.62-.14.92-.23.13-.04.26-.08.4-.11-.74.19-.12.03.04-.04.25-.1.5-.21.74-.34.12-.06.23-.13.35-.19.16-.1.55-.17.18-.1-.34.06-.02.01.16-.13.1-.08.2-.16.3-.25.18-.16.34-.34.51-.51.05-.07.19-.25.28-.39.07-.1.14-.22.2-.34l.12-.22c.05-.16.2-.56.23-.64.04-.14.07-.29.11-.42l.04-.1c0-.03-.01-.03 0-.11.17-1.64.13-2.59-.38-4.24-.34-1.1-1.11-2.24-1.95-2.95-.86-.73-2.15-1.38-3.34-1.78-3.11-1.07-6.44-1.2-9.69-1.53-1.61-.16-1.46-2.4.12-2.47 6.91-.33 15.57-1.05 19.19 6.33 1.73 3.53 2.04 7.87.13 11.39-1.61 2.96-4.84 4.74-8.04 5.43-1.88.4-3.81.48-5.7.18-1.03-.16-2.13-.35-3.12-.71-1.02-.37-1.96-1.23-2.67-2.06-.65-.01-1.15-.33-1.51-.88z"/><path id="Path 228" class="shp0" d="M517.25 303.84c2.41-1.35 4.8-2.37 7.45-3.14 2.63-.77 5.28-1.5 7.93-2.24 5.26-1.47 10.47-3.09 15.45-5.34 2.27-1.02 4.02 2.35 1.76 3.47-4.99 2.48-10.23 4.34-15.52 6.04-2.54.82-5.08 1.59-7.62 2.39-2.76.88-5.45 1.54-8.3 2.08-1.96.38-2.88-2.3-1.15-3.26z"/><path id="Path 229" class="shp0" d="M504.11 299.84c4.47-2.05 9.38-2.7 14.08-4.04 4.08-1.17 8.82-2.95 11.41-6.51 1.68-2.31 5.33-.06 3.78 2.39-2.87 4.5-7.95 7.19-12.83 8.97-5.15 1.9-10.74 3.33-16.21 2.05-1.32-.31-1.42-2.32-.23-2.86z"/><path id="Path 230" class="shp0" d="M487.2 290.58c7.98-2.55 16.91-2.38 23.64-7.97 1.71-1.41 3.96 1.03 2.32 2.55-3.72 3.45-8.39 5.55-13.17 7.08-2.96.95-5.93 1.59-8.93 2.09-1.26-1.28-2.52-2.54-3.86-3.75z"/><path id="Path 231" class="shp0" d="M481.24 285.58c-1.98-1.56-3.99-3.07-6.03-4.53.69-.21 1.38-.41 2.08-.57 2.14-.47 4.29-.86 6.42-1.37 4.12-.97 8.3-1.87 12.49-2.5 2.96-.45 3.93 3.89.97 4.59-4.27.99-8.41 2.46-12.65 3.56-1.08.27-2.18.56-3.28.82z"/><path id="Path 232" class="shp0" d="M487.76 226.69c4.65 2.25 22.89 7.92 20.77-2.83-.99-5.07-4.85-8.32-9.16-10.74-5.09-2.85-10.78-4.6-16.43-5.95-5.66-1.35-11.51-2.33-17.33-2.74-1.65-.12-1.52-2.56.13-2.57 6.05-.01 12.05.73 17.97 1.94 6.6 1.34 13.3 3.28 19.18 6.67 5.21 3.01 9.66 7.49 10.56 13.7.86 6.03-3.28 10.1-9 10.96-6.29.95-14.21-.35-19.49-4.03-2.82-1.96-.17-5.85 2.8-4.41z"/><g id="Group 128"><path id="Path 233" class="shp0" d="M549.53 258.15c.01-.05.05-.12.08-.17l-.04.09-.04.08z"/><path id="Path 234" class="shp0" d="M545.76 260.34c-.16 0-.06-.06.24-.02l-.09.01-.15.01z"/><path id="Path 235" class="shp0" d="M529.5 255.31c-.5-1.34-.97-2.68-1.05-4.11-.07-1.31.06-2.52.29-3.81.32-1.7 3.21-1.95 3.8-.31.32.87.64 1.74 1.01 2.58.21.47.39.95.55 1.43-.01-.01-.01-.04.02.03l.1.27c.08.23.17.45.27.67.33.75.71 1.46 1.13 2.15.19.31.37.62.56.92.12.16.24.32.37.48.44.56.94 1.09 1.45 1.61.21.21.44.41.66.61.13.11.26.21.4.31.55.4 1.13.77 1.73 1.09l.3.15c.28.12.56.23.85.34.59.21 1.2.32 1.8.49-.97-.27-.01-.01.28.03.29.04.59.07.88.09.27.01.54.01.81.01h.05c.02 0-.01.01.02 0l.13-.01c.06-.01.12-.02.17-.01-.04-.01-.05.01-.08 0h.01c.27-.04.54-.08.81-.15.11-.02.22-.05.34-.08l.07-.03c.39-.19.79-.35 1.17-.57.07-.06.14-.11.21-.18.17-.14.32-.31.48-.47.08-.11.15-.22.23-.32l.18-.3.03-.07v.05l.04-.13.01-.01c.09-.16.07-.14.03-.08.08-.19.17-.43.19-.48.04-.13.08-.27.12-.41.02-.09.13-.62.07-.3-.06.31.03-.24.04-.33.02-.16.03-.32.04-.48.01-.19.01-.37 0-.56l-.01-.14-.01-.12c-.12-.86-.31-1.71-.57-2.55l-.09-.27-.03-.08-.03-.08c-.09-.24-.18-.48-.28-.72-.21-.51-.45-1.01-.69-1.51a36.81 36.81 0 00-1.92-3.27c-.93-1.4 1.45-3.07 2.45-1.69 2.44 3.36 4.46 7.04 4.71 11.27.17 2.74-.98 5.5-3.22 7.15-5.37 3.94-13.15 1.68-17.47-2.81-1.46-1.52-2.67-3.32-3.41-5.29z"/></g></g></g><path id="Path 236" class="shp0" d="M539.63 149.22c11.01 6.53 23.22 11.02 33.85 18.19 1.62 1.08.14 3.69-1.54 2.63-10.87-6.85-23.75-10.08-34.09-17.77-1.78-1.33-.22-4.25 1.78-3.05z"/><path id="Path 237" class="shp0" d="M534.44 132.57c6.57 3.06 12.78 6.69 18.89 10.59 3.06 1.96 6.07 3.98 8.95 6.2 2.22 1.71 4.74 3.51 6.35 5.84.58.85-.6 2.08-1.45 1.45-2.26-1.68-4.36-3.52-6.71-5.09-3.02-2.03-6.12-3.94-9.26-5.79-6.07-3.59-12.29-6.9-18.16-10.83-1.47-.99-.21-3.11 1.39-2.37z"/><path id="Path 238" class="shp0" d="M532.34 123.75c10.11 5.45 19.94 11.4 29.94 17.04 1.24.71.14 2.55-1.12 1.91-10.23-5.18-20.76-10.06-30-16.92-1.19-.89-.18-2.76 1.18-2.03z"/><path id="Path 239" class="shp0" d="M518.58 103.39c12.48 7.03 24.54 14.85 35.87 23.65.9.71-.29 2.25-1.24 1.6-11.78-7.98-24.47-14.5-36.26-22.46-1.71-1.16-.21-3.82 1.63-2.79z"/><path id="Path 240" class="shp0" d="M513.62 66.35c2.66 1.54 5.39 2.95 7.96 4.64 2.49 1.64 5.02 3.24 7.56 4.82 5.14 3.21 10.31 6.35 15.38 9.65 1.66 1.08.17 3.69-1.57 2.68-5.3-3.11-10.7-6.04-16.06-9.04-2.7-1.5-5.38-3.03-8.03-4.61-2.61-1.55-4.95-3.54-7.3-5.47-1.52-1.25.43-3.62 2.06-2.67z"/><path id="Path 241" class="shp0" d="M508.8 31.82c4.96 4.1 10.73 7.15 15.61 11.36.94.81.89 2.5 0 3.31-.98.91-2.33.87-3.31 0-1.28-1.12-2.1-1.73-3.51-2.73-1.35-.96-2.72-1.89-4.07-2.85-2.82-2-5.37-4.22-7.01-7.32-.8-1.52 1.03-2.81 2.29-1.77z"/><g id="Group 131"><path id="Path 242" class="shp0" d="M499.83-.23c.14.02.27.03.41.06.07 0 .13.02.2.02l-.61-.08z"/><path id="Path 243" class="shp0" d="M498.03-2.6c.06-.17.13-.34.2-.5.15-.36.34-.62.6-.91.43-.5.94-.86 1.56-1.07a5.84 5.84 0 012.07-.3c.91.05 1.81.33 2.59.79.41.24.79.54 1.14.85.21.19.41.39.58.62.35.35.6.77.73 1.25l.1.75c.04.88-.44 1.7-1.11 2.22-.63.49-1.31.66-2.1.56-.37-.02-.72-.13-1.05-.33-.39-.24-.71-.57-.95-.96l.19.25c-.14-.18-.31-.34-.48-.5l-.12-.07c-.11-.03-.22-.06-.34-.09-.14 0-.28-.02-.42-.01-.33.03-.65-.06-.98-.12-.22-.03-.44-.04-.65-.1-.1-.03-.19-.07-.3-.1-.89-.28-1.59-1.28-1.26-2.23z"/></g><path id="Path 244" class="shp0" d="M641.29 417.54c3.27 5.52 5.45 11.64 7.05 17.83 1.59 6.2 2.95 12.67 3 19.09.01 1.89-2.91 2.36-3.34.45-1.37-6.02-1.99-12.17-3.45-18.18-1.46-6-3.45-11.9-6.54-17.28-1.23-2.12 2.03-4.03 3.28-1.91z"/><path id="Path 245" class="shp0" d="M656.69 436.48c.07 6.83.84 13.68 2.32 20.35.77 3.45 1.7 6.9 3.01 10.2 1.14 2.86 2.52 5.9 4.21 8.47 1.23 1.88-1.4 3.53-2.92 2.26-5.6-4.69-7.61-12.46-8.91-19.37-1.37-7.2-2-14.59-1.82-21.91.06-2.65 4.09-2.66 4.11 0z"/><path id="Path 246" class="shp0" d="M670.71 459.88c2.59 9.91 4.34 20.14 10.45 28.64 1.2 1.68-1.42 3.61-2.82 2.18-7.81-8.03-9.19-19.26-11.81-29.67-.68-2.7 3.47-3.85 4.18-1.15z"/><path id="Path 247" class="shp0" d="M678.56 474.65c.89-.53 2.38-.28 2.85.74 1.67 3.67 2.66 7.55 3.81 11.39 1.08 3.59 2.36 7.32 4.75 10.28.64.81.78 1.93 0 2.72-.71.7-2.04.79-2.73 0-5.6-6.34-6-14.88-9.42-22.29-.47-1.02-.29-2.24.74-2.84z"/><path id="Path 248" class="shp0" d="M695.96 488.11c1.27-.3 2.6.38 2.96 1.68 1.02 3.67 1.98 7.33 2.77 11.05.23 1.11-.33 2.4-1.52 2.67-1.17.27-2.32-.36-2.67-1.52-1.1-3.63-2.14-7.28-3.23-10.92-.36-1.21.43-2.68 1.69-2.96z"/><path id="Path 249" class="shp0" d="M293.15 393.12c9.41-5.44 20.18-10.36 26.15-19.63 4.11-8.38 7.96-16.88 11.54-25.51 1.03-2.49 4.97-1.61 4.18 1.15-2.73 9.58-6.87 18.68-11.19 27.63-1.87 3.87-3.75 7.76-5.68 11.61 6.52-4.48 11.8-10.46 15.27-17.71.41-.86 1.62-1.08 2.39-.63.88.52 1.02 1.53.63 2.39-4.36 9.48-11.93 17.72-21.47 22.08-1.66 3.07-3.35 6.12-5.2 9.07-1.22 1.93-4.66.72-3.84-1.62 2.24-6.41 5.27-12.46 8.36-18.49-5.63 5.34-12.68 9.45-19.51 12.45-1.85.81-3.47-1.72-1.63-2.79z"/><path id="Path 250" class="shp0" d="M281.08 387.99c5.17-3.24 10.32-6.55 15.11-10.33 4.8-3.79 9.32-7.92 13.71-12.16 1.38-1.33 3.43.72 2.1 2.09-8.67 8.9-18.03 17.69-29.13 23.46-2.02 1.05-3.72-1.84-1.79-3.06z"/><path id="Path 251" class="shp0" d="M242.6 382.03c6.07-2.31 12.09-4.33 17.75-7.58 5.71-3.28 11.07-7.13 15.74-11.8 1.15-1.15 2.86.59 1.78 1.79-4.63 5.12-10.11 9.57-15.99 13.2-5.66 3.49-12.12 7.01-18.86 7.43-1.87.12-1.94-2.45-.42-3.04z"/></g></svg>