<svg version="1.2" baseProfile="tiny-ps" xmlns="http://www.w3.org/2000/svg" width="189" height="94"><style></style><path id="Path 187" fill-rule="evenodd" d="M177.21.56c2.95 5.05-.28 11.56-2.84 16.09-3 5.31-6.59 10.47-10.53 15.17 2.19-1.56 4.45-3.03 6.71-4.47 2.9-1.84 5.89-3.61 9.08-4.9 2.61-1.05 5.6-1.89 8.39-1.11.47.13.78.47.83.96.35 3.05-1.98 5.43-4.24 7.11-2.46 1.83-5.28 3.16-8.05 4.46-7.32 3.46-15.64 4.59-22.79 8.4-.24.27-.47.55-.72.81-2.63 2.66-5.96 5.39-9.6 6.97-1.57.98-3.16 1.93-4.78 2.82 2.44-.46 4.89-.9 7.34-1.26 3.85-.57 7.72-1.04 11.61-1.23 3.17-.15 6.48-.2 9.59.51 2.42.54 4.89 1.71 5.41 4.36.06.35-.19.73-.46.92-5.43 3.79-12.86 4.16-19.26 4.19-8.28.03-16.44-1-24.58-2.44-6.77 3.01-13.77 5.59-20.88 7.73.09.01.18.01.28.01 3.89-.05 7.77-.36 11.67-.49 3.86-.13 7.78-.12 11.6.53 2.51.42 5.9 1.07 7.81 2.93 3.21 3.11-3.9 4.81-5.72 5.19-4.49.93-8.77 1.15-13.34.85-8.15-.55-16.9-1.96-24.21-5.84-10.48 2.36-21.16 3.58-31.86 3.72 1.1.23 2.21.45 3.33.66 4.97.91 10.02 1.42 15.01 2.25 4.35.72 8.64 1.7 12.94 2.64 3.31.73 7.05 1.63 9.41 4.24.42.46.47 1.17-.1 1.55-5.47 3.73-13.18 2.4-19.24 1.13-7.53-1.57-14.75-3.84-21.77-6.97-3.73-1.66-7.42-3.4-11.18-4.95a.794.794 0 01-.27-.1c-.69-.28-1.39-.56-2.09-.83-5.58-.42-11.15-1.14-16.67-2.17 1.55.75 3.14 1.44 4.68 2.16 2.32 1.09 4.61 2.28 6.91 3.41 2.87 1.41 5.69 2.9 8.47 4.47 2.67 1.5 5.38 3.12 7.65 5.19 1.44 1.32 3.19 3.22 2.88 5.34-.3 1.96-2.06 2.63-3.84 2.51-2.48-.17-4.91-1.33-7.1-2.44-2.58-1.31-5.06-2.81-7.47-4.4-2.2-1.44-4.25-2.98-6.25-4.68-4.92-4.16-9.8-8.4-14.47-12.83a.799.799 0 01-.28-.65c-8.2-2.09-16.21-5.14-23.08-10.1-.64-.46.11-1.59.78-1.15 5.87 3.86 12.58 6.4 19.41 8.25.13-.14.29-.25.51-.3 7.07-1.46 13.47-4.63 19.91-7.78 3.1-1.52 6.25-2.89 9.4-4.31 1.71-.77 3.35-1.69 5.14-2.31 1.54-.53 3.9-1.18 5.21.19 1.51 1.57.25 3.76-.82 5.16-3.34 4.39-8.59 7.35-13.76 9.02-5.34 1.73-10.99 2.22-16.6 2.4 7.25 1.45 14.63 2.36 22.02 2.75 7.75-1.97 14.27-6.53 20.39-11.58 6.24-5.15 12.25-10.43 19.46-14.2 2.45-1.28 6.27-3.02 8.09.15 1.47 2.55-.63 5.47-2.21 7.41-1.75 2.14-3.82 3.99-5.86 5.85a54.49 54.49 0 01-10.67 7.67 66.082 66.082 0 01-10.17 4.51c7.83-.58 15.59-1.82 23.24-3.56 2.33-1.84 3.98-4.35 5.69-6.77 2.33-3.31 5.13-6.39 8.1-9.14 2.85-2.64 5.47-5.53 8.42-8.06 2.02-1.74 4.7-3.93 7.5-4.13 4.5-.32 2.03 5.74 1.08 7.75-1.91 4.02-4.31 7.8-7.54 10.87-1.75 1.67-3.67 3.16-5.7 4.51 4.53-1.54 9-3.26 13.4-5.14 2.26-1.44 3.8-3.66 5.08-6 1.41-2.58 2.67-5.25 4.06-7.85 1.71-3.19 3.36-6.42 5.29-9.48 1.57-2.49 3.41-5.5 5.91-7.17 1.2-.8 2.75-.97 3.59.41.85 1.39.6 3.43.43 4.96-.54 4.78-2.44 9.24-5.43 13.02-1.74 2.21-3.8 4.09-5.98 5.85 1.26-.71 2.52-1.45 3.75-2.22 2.86-1.79 5.58-3.8 8.23-5.89.02-.31.17-.62.53-.87.53-.35 1.02-.74 1.53-1.12 2.99-3.71 4.81-8.03 6.68-12.47 2.88-6.87 4.89-14.3 8.89-20.64 1.86-2.95 4.42-6.13 8.15-6.47.35-.03.76.15.94.46zM73.92 79.86c3.03.96 6.16 1.7 9.27 2.42 3.28.77 6.61 1.45 9.98 1.7 2.85.21 6.22.2 8.9-1.09-2.29-1.81-5.45-2.43-8.24-3.02-4.24-.89-8.45-1.87-12.73-2.55-4.75-.75-9.54-1.23-14.27-2.07-2.67-.47-5.34-1.03-8.02-1.45 4.98 2.16 9.92 4.41 15.11 6.06zM57.31 56.4c.62-.58 3.69-3.4 2.78-4.37-.77-.81-3.84.79-4.59 1.13-4.51 2.01-8.94 4.25-13.35 6.46-3.85 1.93-7.74 3.85-11.77 5.36 9.62-.48 19.68-1.75 26.93-8.58zm.38 33.92c.95.36 3.29 1.24 3.95.28 1.04-1.53-1.19-3.6-2.16-4.48-4.38-3.98-10-6.59-15.29-9.1-2.4-1.14-4.79-2.31-7.23-3.36-2.67-1.16-5.49-2.23-8.07-3.67 9.17 7.34 17.59 16.17 28.8 20.33zm18.99-25.17c6.49-2.97 12.15-7.18 17.21-12.17 1.07-1.05 2.1-2.15 3.01-3.35.71-.92 1.61-2.11 1.71-3.32.32-3.56-5.07-.38-6.29.28-6.73 3.66-12.42 8.8-18.29 13.66-4.66 3.86-9.58 7.45-15.08 9.86.13 0 .25.01.37.01h.8c5.71-.91 11.28-2.56 16.56-4.97zm23.66 2.52c-.55.14-1.12.27-1.68.41 5.44 2.15 11.34 3.24 17.1 3.91 4.59.53 9.08.9 13.67.32 1.92-.24 3.84-.54 5.7-1.07.69-.2 1.44-.4 2.06-.78.19-.12.31-.22.44-.35-1.56-1.44-4.33-2.04-6.46-2.42-3.48-.63-7.06-.65-10.59-.54-3.93.12-7.84.46-11.77.59-2.61.08-5.35-.24-8.03-.2-.14.04-.29.09-.44.13zm13.34-10.5c3.61-2.81 6.25-6.11 8.46-10.06.9-1.61 1.81-3.29 2.33-5.06.18-.61.27-1.15.26-1.75-.01.01-.12-.01-.34.02-2.6.44-5.13 2.81-6.99 4.53-2.58 2.37-4.99 4.92-7.53 7.33-2.96 2.81-5.71 5.95-8.06 9.29-.72 1.03-1.45 2.11-2.24 3.14 5.04-1.79 9.84-4.1 14.11-7.44zm22.66-1.52c-1.46.29-2.92.6-4.39.91 6.79.88 13.58 1.59 20.44 1.59 5.88 0 12.78-.13 17.97-3.32-.67-1.21-2.63-1.73-3.95-1.98-2.92-.56-5.96-.47-8.92-.29-7.11.44-14.17 1.71-21.15 3.09zM173.62 33c2.81-1.19 5.63-2.6 8.21-4.23 1.93-1.22 4.63-3.05 4.9-5.55-2.49-.35-5.13.72-7.34 1.73-2.94 1.35-5.69 3.11-8.38 4.89-2.64 1.76-5.32 3.5-7.85 5.43-1.19.9-2.37 1.83-3.56 2.75 4.63-1.78 9.48-3.1 14.02-5.02zm-32.9 11.63c3.29-3.37 5.69-7.5 6.58-12.14.3-1.51.64-3.24.35-4.78-.03-.15-.08-.3-.13-.45-.06.05-.13.11-.14.11-.37.36-.79.65-1.14 1.03-4.42 4.78-7.15 11.04-10.21 16.72-1 1.86-1.91 3.9-2.95 5.86 2.67-1.98 5.32-3.98 7.64-6.35zm28.95-36.27c-1.98 3.49-3.44 7.27-4.81 11.02-1.23 3.37-2.49 6.69-3.85 10.01-.63 1.54-1.28 3.07-1.98 4.58 3.91-4.08 7.26-8.71 10.39-13.4 1.98-2.96 3.87-6.03 5.27-9.32 1.12-2.64 2.26-6.11 1.04-8.92-2.79.67-4.75 3.73-6.06 6.03z" opacity=".58" fill="#fff"/></svg>